<?xml version="1.0" encoding="UTF-8" standalone="no"?>
<!-- Created with Inkscape (http://www.inkscape.org/) -->

<svg
   xmlns:dc="http://purl.org/dc/elements/1.1/"
   xmlns:cc="http://creativecommons.org/ns#"
   xmlns:rdf="http://www.w3.org/1999/02/22-rdf-syntax-ns#"
   xmlns:svg="http://www.w3.org/2000/svg"
   xmlns="http://www.w3.org/2000/svg"
   xmlns:xlink="http://www.w3.org/1999/xlink"
   xmlns:sodipodi="http://sodipodi.sourceforge.net/DTD/sodipodi-0.dtd"
   xmlns:inkscape="http://www.inkscape.org/namespaces/inkscape"
   width="144.49777mm"
   height="144.49777mm"
   viewBox="0 0 511.99998 511.99998"
   id="svg4157"
   version="1.1"
   inkscape:version="0.91 r13725"
   sodipodi:docname="icon-makehaven-alt.svg">
  <defs
     id="defs4159">
    <mask
       id="mask-2-3-7"
       fill="white">
      <use
         xlink:href="#path-1"
         id="use35-6-5"
         x="0"
         y="0"
         width="100%"
         height="100%" />
    </mask>
  </defs>
  <sodipodi:namedview
     id="base"
     pagecolor="#ffffff"
     bordercolor="#666666"
     borderopacity="1.0"
     inkscape:pageopacity="0.0"
     inkscape:pageshadow="2"
     inkscape:zoom="0.088388348"
     inkscape:cx="-1526.5073"
     inkscape:cy="221.07175"
     inkscape:document-units="px"
     inkscape:current-layer="layer1"
     showgrid="false"
     fit-margin-top="0"
     fit-margin-left="0"
     fit-margin-right="0"
     fit-margin-bottom="0"
     inkscape:window-width="1920"
     inkscape:window-height="1107"
     inkscape:window-x="0"
     inkscape:window-y="25"
     inkscape:window-maximized="1" />
  <metadata
     id="metadata4162">
    <rdf:RDF>
      <cc:Work
         rdf:about="">
        <dc:format>image/svg+xml</dc:format>
        <dc:type
           rdf:resource="http://purl.org/dc/dcmitype/StillImage" />
        <dc:title />
      </cc:Work>
    </rdf:RDF>
  </metadata>
  <g
     inkscape:label="Layer 1"
     inkscape:groupmode="layer"
     id="layer1"
     transform="translate(1967.9224,2133.8782)">
    <path
       style="fill:#ae1c01;fill-rule:evenodd;stroke:#ae1c01;stroke-width:13.058;stroke-linecap:butt;stroke-linejoin:round;stroke-opacity:1;fill-opacity:1;stroke-miterlimit:4;stroke-dasharray:none"
       d="m -1712.0657,-1648.6042 -25.0538,0 c -33.8226,-1.2536 -41.3387,-37.5802 -41.3387,-37.5802 l 1.2523,-205.4412 -62.6345,-1.2535 c 0,0 -2.5054,189.1556 -2.5054,219.2197 1.2522,28.8119 -31.3172,25.0539 -31.3172,25.0539 0,0 -42.5914,-1.2536 -56.9973,-0.6268 -33.1963,-1.879 -30.6909,-30.6909 -30.6909,-30.6909 l 0,-398.3548 c 0,-20.0423 20.0431,-25.0538 20.0431,-25.0538 l 124.0161,0 81.4246,131.5331 23.8011,0 24.0888,0 81.4247,-131.5331 124.0162,0 c 0,0 20.043,5.0115 20.043,25.0538 l 0,398.3548 c 0,0 2.5054,28.8119 -30.6909,30.6909 -14.4058,-0.6268 -56.9973,0.6268 -56.9973,0.6268 0,0 -32.5698,3.758 -31.3172,-25.0539 0,-30.0641 -2.5054,-219.2197 -2.5054,-219.2197 l -62.6344,1.2535 1.2522,205.4412 c 0,0 -7.5161,36.3279 -41.3387,37.5802 z"
       id="path4138"
       inkscape:connector-curvature="0"
       sodipodi:nodetypes="cccccccccscccccccsccccccccc" />
    <rect
       style="opacity:1;fill:#ffffff;fill-opacity:1;stroke:#ffffff;stroke-width:13.10450077;stroke-linejoin:bevel;stroke-miterlimit:4;stroke-dasharray:none;stroke-dashoffset:0;stroke-opacity:1"
       id="rect4164"
       width="46.302708"
       height="52.566147"
       x="-1926.2521"
       y="-1726.2479" />
    <rect
       style="opacity:1;fill:#ffffff;fill-opacity:1;stroke:#ffffff;stroke-width:9.12323189;stroke-linejoin:bevel;stroke-miterlimit:4;stroke-dasharray:none;stroke-dashoffset:0;stroke-opacity:1"
       id="rect4164-6"
       width="30.240957"
       height="39.009777"
       x="-1927.6163"
       y="-2077.7385" />
    <rect
       style="opacity:1;fill:#ffffff;fill-opacity:1;stroke:#ffffff;stroke-width:7.10376644;stroke-linejoin:bevel;stroke-miterlimit:4;stroke-dasharray:none;stroke-dashoffset:0;stroke-opacity:1"
       id="rect4181"
       width="23.494648"
       height="26.000023"
       x="-1856.7887"
       y="-2076.2434" />
    <rect
       style="opacity:1;fill:#ffffff;fill-opacity:1;stroke:#ffffff;stroke-width:11.21206093;stroke-linecap:round;stroke-linejoin:bevel;stroke-miterlimit:4;stroke-dasharray:none;stroke-dashoffset:0;stroke-opacity:1"
       id="rect4187"
       width="64.674263"
       height="50.894684"
       x="-1744.4025"
       y="-1724.7863" />
    <rect
       style="opacity:1;fill:#ffffff;fill-opacity:1;stroke:#ffffff;stroke-width:13.10450077;stroke-linejoin:bevel;stroke-miterlimit:4;stroke-dasharray:none;stroke-dashoffset:0;stroke-opacity:1"
       id="rect4164-5"
       width="46.302708"
       height="52.566147"
       x="1497.5919"
       y="-1726.2479"
       transform="scale(-1,1)" />
    <rect
       style="opacity:1;fill:#ffffff;fill-opacity:1;stroke:#ffffff;stroke-width:9.12323189;stroke-linejoin:bevel;stroke-miterlimit:4;stroke-dasharray:none;stroke-dashoffset:0;stroke-opacity:1"
       id="rect4164-6-3"
       width="30.240957"
       height="39.009777"
       x="1496.2277"
       y="-2077.7385"
       transform="scale(-1,1)" />
    <rect
       style="opacity:1;fill:#ffffff;fill-opacity:1;stroke:#ffffff;stroke-width:7.10376644;stroke-linejoin:bevel;stroke-miterlimit:4;stroke-dasharray:none;stroke-dashoffset:0;stroke-opacity:1"
       id="rect4181-5"
       width="23.494648"
       height="26.000023"
       x="1567.0543"
       y="-2076.2434"
       transform="scale(-1,1)" />
  </g>
</svg>
