<?xml version="1.0" encoding="UTF-8" standalone="no"?>
<!-- Created with Inkscape (http://www.inkscape.org/) -->

<svg
   xmlns:dc="http://purl.org/dc/elements/1.1/"
   xmlns:cc="http://creativecommons.org/ns#"
   xmlns:rdf="http://www.w3.org/1999/02/22-rdf-syntax-ns#"
   xmlns:svg="http://www.w3.org/2000/svg"
   xmlns="http://www.w3.org/2000/svg"
   xmlns:sodipodi="http://sodipodi.sourceforge.net/DTD/sodipodi-0.dtd"
   xmlns:inkscape="http://www.inkscape.org/namespaces/inkscape"
   width="144.49777mm"
   height="144.49777mm"
   viewBox="0 0 511.99998 511.99998"
   id="svg4157"
   version="1.1"
   inkscape:version="0.91 r13725"
   sodipodi:docname="icon-fsf.svg">
  <defs
     id="defs4159" />
  <sodipodi:namedview
     id="base"
     pagecolor="#ffffff"
     bordercolor="#666666"
     borderopacity="1.0"
     inkscape:pageopacity="0.0"
     inkscape:pageshadow="2"
     inkscape:zoom="0.5"
     inkscape:cx="255.99999"
     inkscape:cy="255.99999"
     inkscape:document-units="px"
     inkscape:current-layer="layer1"
     showgrid="false"
     fit-margin-top="0"
     fit-margin-left="0"
     fit-margin-right="0"
     fit-margin-bottom="0"
     inkscape:window-width="1920"
     inkscape:window-height="1107"
     inkscape:window-x="0"
     inkscape:window-y="25"
     inkscape:window-maximized="1" />
  <metadata
     id="metadata4162">
    <rdf:RDF>
      <cc:Work
         rdf:about="">
        <dc:format>image/svg+xml</dc:format>
        <dc:type
           rdf:resource="http://purl.org/dc/dcmitype/StillImage" />
        <dc:title></dc:title>
      </cc:Work>
    </rdf:RDF>
  </metadata>
  <g
     inkscape:label="Layer 1"
     inkscape:groupmode="layer"
     id="layer1"
     transform="translate(626.42907,593.20422)">
    <path
       inkscape:connector-curvature="0"
       d="m -195.60039,-438.99626 c 0.49204,0.24602 -0.61592,5.90967 -35.21492,7.14093 -2.0972,0.0734 -22.67527,1.45491 -24.87168,1.47785 -22.77907,0.24602 -49.74394,3.94036 -68.9514,8.49548 -22.79455,5.40617 -49.37462,13.7904 -64.15025,23.39499 -6.08344,3.95469 -16.22194,11.18107 -18.83871,18.22279 -3.57046,9.60402 6.52617,17.8529 12.92846,18.83871 9.52717,1.46581 20.94337,-0.26208 30.65921,-1.47785 5.91025,-0.73921 14.82953,-2.6552 20.06996,-3.07842 4.5557,-0.36932 8.23341,0.0923 12.92846,0.86193 8.24947,1.35513 17.73076,8.37276 21.17792,16.25291 3.65879,8.3653 2.57033,17.58451 -0.98466,25.24157 -3.20172,6.89491 -10.76645,13.61262 -17.85347,18.46882 -6.64946,4.55627 -16.43355,9.01964 -24.62624,12.55972 -18.22279,7.88013 -38.16946,13.29777 -57.46236,19.45347 -7.71384,2.46308 -26.26466,6.77333 -41.77893,9.85061 -9.78408,1.9395 -20.08086,3.76373 -29.7967,5.17219 -16.99212,2.46193 -34.50667,4.50867 -51.34452,6.15627 -8.71569,0.84645 -22.79054,2.05477 -22.9253,-2.0238 0,0 -20.64516,5.96244 -20.64516,5.96244 0.29993,3.57218 9.99799,5.84487 23.54637,5.61261 53.69176,-0.87627 227.01707,-7.47985 265.22897,-58.80888 4.09405,-5.51628 8.37218,-18.90696 8.51498,-33.51284 l -16.51613,-37.16129 c -10.3071,-7.8767 -26.62423,-15.44143 -54.31283,-7.54236 -13.93262,3.97878 -42.34495,15.78322 -47.37319,10.41663 -4.74495,-5.06036 -0.80516,-12.9904 35.69147,-30.02437 9.22724,-4.2942 44.93419,-19.30036 108.5838,-25.3104 l 0.95426,-0.0195 c 40.078,-2.31226 54.81176,-3.49419 63.04172,-6.10638 2.64717,-0.839 11.22007,-5.60229 10.46136,-9.71526 -0.3263,-1.85521 -4.45476,-4.34467 -8.21906,-3.72474 -9.33792,1.47326 -13.89821,1.18136 -80.05907,0.68875 -15.63011,-0.11183 -17.61548,-0.54251 -55.93118,-0.0505 -34.71427,0.42724 -74.87714,3.90882 -109.09534,21.83971 0,0 -31.98911,20.71857 -31.98911,20.71857 -7.75397,8.2615 -14.22623,18.18839 -16.54251,27.93061 -2.31627,9.74222 -0.11526,1.90509 -0.11526,1.90509 0,0 19.74365,34.32143 19.74365,34.32143 0.61592,0 3.85491,1.09305 6.88229,2.47742 4.48345,2.04732 11.66223,4.40258 16.4995,5.41821 7.01821,1.47785 14.28302,3.69434 19.70065,1.10796 2.88917,-1.37635 9.1114,-7.14094 8.74208,-10.5881 -0.40775,-3.79814 -6.88746,-4.86022 -10.83527,-5.66423 -6.64889,-1.35455 -17.02653,-0.65434 -25.4876,-1.9699 -9.319,-1.44344 -16.83326,-4.81777 -20.19326,-12.43584 -3.11685,-7.07613 -0.86137,-15.51484 3.81763,-22.90179 4.12043,-6.51068 8.72201,-11.83197 14.77505,-16.62279 11.81993,-9.358 26.87714,-17.31441 41.9871,-23.64044 15.88301,-6.64888 35.09104,-12.43584 53.68316,-14.15971 18.4,-1.70437 38.17003,-2.21648 57.00874,-1.72387 15.91455,0.41577 44.94165,0 47.65018,0.2466 2.7091,0.24602 50.89377,-2.43957 51.83714,-1.96989"
       id="path1"
       style="fill:#b11107" />
    <path
       inkscape:connector-curvature="0"
       d="m -475.43122,-371.89605 -151.39785,0 0,37.16129 c 0,0 172.04301,0 172.04301,0 m 25.23298,-86.70968 -155.98567,0 0,20.64517 c 0,0 137.63442,0.0734 137.63442,0.0734 m 142.22222,28.82982 0,37.16129 c 0,0 190.85304,0 190.85304,0 l 0,-37.16129 -190.85304,0 z m 25.69175,66.06509 144.51613,0 0,20.64516 -144.51613,0 0,-20.64516 z"
       id="path2"
       style="fill:#b11107" />
    <path
       inkscape:connector-curvature="0"
       d="m -556.63552,-429.7025 -20.64516,0 0,181.67685 c 0,0 20.64516,5.7e-4 20.64516,5.7e-4 m 284.90322,-128 0,156.90323 16.51613,0 0,-156.90323 -16.51613,0 z"
       id="path3"
       style="fill:#b11107" />
  </g>
</svg>
