<?xml version="1.0" encoding="UTF-8" standalone="no"?>
<!-- Created with Inkscape (http://www.inkscape.org/) -->

<svg
   xmlns:dc="http://purl.org/dc/elements/1.1/"
   xmlns:cc="http://creativecommons.org/ns#"
   xmlns:rdf="http://www.w3.org/1999/02/22-rdf-syntax-ns#"
   xmlns:svg="http://www.w3.org/2000/svg"
   xmlns="http://www.w3.org/2000/svg"
   xmlns:sodipodi="http://sodipodi.sourceforge.net/DTD/sodipodi-0.dtd"
   xmlns:inkscape="http://www.inkscape.org/namespaces/inkscape"
   width="512"
   height="511.99982"
   viewBox="0 0 512.00001 511.99978"
   id="svg4149"
   version="1.1"
   inkscape:version="0.91 r13725"
   sodipodi:docname="icon-bitmessage.svg">
  <defs
     id="defs4151" />
  <sodipodi:namedview
     id="base"
     pagecolor="#ffffff"
     bordercolor="#666666"
     borderopacity="1.0"
     inkscape:pageopacity="0.0"
     inkscape:pageshadow="2"
     inkscape:zoom="0.14582977"
     inkscape:cx="827.57037"
     inkscape:cy="-120.50736"
     inkscape:document-units="px"
     inkscape:current-layer="layer1"
     showgrid="false"
     fit-margin-top="0"
     fit-margin-left="0"
     fit-margin-right="0"
     fit-margin-bottom="0"
     units="px"
     inkscape:window-width="1920"
     inkscape:window-height="1102"
     inkscape:window-x="0"
     inkscape:window-y="25"
     inkscape:window-maximized="1" />
  <metadata
     id="metadata4154">
    <rdf:RDF>
      <cc:Work
         rdf:about="">
        <dc:format>image/svg+xml</dc:format>
        <dc:type
           rdf:resource="http://purl.org/dc/dcmitype/StillImage" />
        <dc:title></dc:title>
      </cc:Work>
    </rdf:RDF>
  </metadata>
  <g
     inkscape:label="Layer 1"
     inkscape:groupmode="layer"
     id="layer1"
     transform="translate(-52.938858,390.61479)">
    <g
       id="g4767"
       transform="matrix(0.49273842,0,0,0.50392446,17.379052,59.831649)">
      <path
         sodipodi:nodetypes="sssssccssssssscccsssssscccssssssssscssssssscssscsssssssscscsssssssscscscsssccssccccssssscssscssccccssscsscssscccsssccsssccscssscccsssccscssscccssscccssssccssc"
         inkscape:connector-curvature="0"
         id="path4169"
         d="M 225.62468,87.371471 C 220.71415,85.508442 198.67939,75.140411 193.75771,72.766616 155.32903,54.228058 113.96303,26.679943 87.611422,-1.8051932 84.035825,-5.6703096 77.011526,-13.548531 74.915041,-18.716239 c -2.096478,-5.167703 -3.966875,-10.089027 -1.744316,-17.118031 2.222552,-7.028992 4.973818,-10.435874 8.653312,-13.823307 l 19.685393,-39.792565 c 8.98276,-8.573878 14.60565,-17.150078 16.91525,-25.897438 3.22092,-12.19894 4.46417,-24.92175 10.97744,-33.643 5.3398,-7.14998 12.62777,-13.57492 13.86187,-21.21008 2.22571,-13.76998 5.17001,-24.90541 12.20768,-33.321 6.14369,-7.34657 13.70861,-14.24135 15.67179,-22.41462 3.49709,-14.55911 3.42881,-26.19411 10.82171,-34.60759 7.41978,-8.44405 14.38156,-14.59102 15.44037,-20.59317 1.99308,-11.29834 1.63826,-24.05005 7.97731,-32.02697 3.29979,-7.89228 14.12701,-31.27562 14.74643,-33.39833 1.91612,-5.07948 4.87736,-5.55552 8.53419,-7.28739 0.15207,-1.69086 -1.03833,-5.73337 -0.57128,-8.11354 0.64939,-3.30946 2.56838,-4.96571 5.83902,-8.47764 5.3165,-5.70874 11.60787,-9.2541 17.8647,-11.58734 9.49577,-3.54109 22.68811,-6.28517 39.00428,-7.37367 32.63233,-2.17695 77.92829,3.01502 130.81993,27.24659 57.55643,26.36849 87.21564,59.25388 102.81728,85.41656 8.71543,14.61505 15.16343,30.22624 17.05175,47.11911 -0.71,5.76367 -3.0133,7.46732 -5.93725,11.40484 1.47423,3.1822 0.004,7.55316 -0.33956,8.91245 l -14.35548,30.49336 c -5.51359,11.71188 -12.23838,25.15496 -19.82484,34.52929 -5.57246,6.88573 -4.38265,13.58349 -6.21025,21.02163 -4.5046,18.33353 -9.62139,24.463414 -19.64645,34.499851 -5.31828,5.324336 -4.58375,8.130998 -5.54586,22.078479 -0.79666,11.548767 -9.13903,22.790036 -18.63637,33.360392 -6.82477,7.595801 -5.24305,16.345038 -6.55787,25.5970697 -1.76325,12.4073753 -10.99825,22.4382463 -18.15245,31.2540673 -6.16511,7.597034 -3.35063,19.043926 -6.79845,27.042939 l -17.9619,41.671871 c -0.12145,3.234689 0.5103,5.848539 0.15367,8.337541 -1.10712,7.72729 -6.33505,11.38351 -11.78011,14.92811 -3.0596,1.99172 -7.86326,3.79037 -14.23309,5.194 -12.73951,2.80712 -32.16575,1.67001 -60.24269,-4.7814 -38.30672,-8.80188 -62.7971,-18.309013 -89.795,-28.553295 z M 370.31624,108.0277 c 6.1473,-0.49426 11.14635,-2.67008 12.66351,-4.156 2.72555,-2.66944 2.26077,-5.750586 1.23151,-8.784747 -15.03851,4.734663 -32.71139,3.824973 -45.45014,2.548955 C 310.04554,94.759588 269.90338,85.080172 220.92204,62.029476 168.11318,37.177573 135.76365,12.928657 116.57481,-5.2033843 103.46855,-17.587825 96.752393,-26.905599 93.607455,-31.800567 c -2.525475,0.50825 -5.08167,0.876016 -5.237508,2.366041 -0.587268,5.615569 3.829215,10.690383 7.21693,15.023305 20.793903,26.595597 58.271963,54.746879 95.224963,74.914938 4.77299,2.605268 17.68863,9.343315 37.91963,17.397402 20.25159,8.062168 53.40917,20.072488 86.30457,25.992211 32.89539,5.91973 45.34333,4.93352 55.28018,4.13443 z M 245.33023,62.671099 c 31.77095,13.003944 61.30637,22.462863 85.69333,25.112916 16.58118,1.801792 32.72089,1.654606 48.97926,-0.555237 -2.75755,-3.726121 -6.79352,-8.674277 -9.54074,-11.189416 C 361.46163,67.799261 351.25799,60.178239 340.44103,52.996183 324.96128,50.576755 287.05955,42.941054 239.35415,20.900241 187.58836,-3.0165468 156.36316,-23.31129 147.00765,-29.656878 c -10.27068,-2.198404 -19.80242,-3.702063 -28.04151,-4.223029 -5.27106,-0.333271 -10.0646,-0.218821 -14.33464,0.18172 3.69883,6.01941 10.06256,14.994464 20.98686,25.3171338 18.64773,17.6207161 47.57012,37.3927152 99.83756,61.9898192 6.04782,2.846132 14.32564,6.791273 19.87431,9.062365 z m -2.16501,-50.022923 c 31.90517,14.740789 58.90416,23.319873 77.68309,28.234682 C 298.88463,28.171309 275.3936,17.00692 253.32049,6.9186699 231.18451,-3.1983435 200.29964,-15.184862 176.46668,-22.597333 c 14.58612,9.287073 40.33657,23.06578042 66.69854,35.245509 z m -141.8992,-64.595871 c 6.18714,-0.866112 14.2874,0.04686 21.87003,0.526609 38.68797,2.446277 91.83007,22.201484 137.21042,42.9419901 40.54226,18.5293209 86.66427,41.2823139 120.77033,72.5071879 3.28025,3.003151 6.52577,7.095176 9.22608,10.60704 5.4997,-11.932291 12.23267,-24.592636 16.94372,-36.312596 -6.51856,-7.821401 -45.1951,-51.074889 -133.80928,-89.473212 -52.80716,-22.882417 -92.58051,-31.624735 -119.00947,-34.69074 -18.28161,-2.120832 -29.48206,-1.566693 -34.91859,-1.029467 -1.57094,2.257285 -3.15477,4.451536 -4.55373,6.059284 z m 25.11968,-46.004279 c 7.07544,-0.05071 16.68389,0.07382 29.3889,0.814696 28.29253,1.649798 68.79599,10.851531 122.5453,34.142198 79.15148,34.297947 119.94837,74.20005 133.60364,89.380279 2.39902,-5.885588 5.14236,-10.905219 9.95962,-14.278633 6.18001,-4.3276897 8.16186,-15.8990836 9.40763,-21.186563 0.34989,-1.485069 0.59394,-3.002824 0.88318,-4.512304 -2.89571,-4.30023 -12.07559,-17.24173 -28.74674,-34.023532 -20.32409,-20.458991 -52.83508,-46.275838 -101.49628,-67.361727 -52.69142,-22.83226 -93.58046,-30.00738 -121.17504,-31.54202 -14.36351,-0.79881 -24.79334,-0.1063 -31.67324,0.73954 -1.91919,3.35634 -4.09185,6.41863 -6.57587,8.86009 -4.60063,4.52182 -10.86624,14.93629 -10.67579,24.75451 0.0558,2.86847 -2.30549,8.41005 -5.44531,14.213466 z m 308.44479,71.142332 c 1.53126,-6.464332 3.7723,-12.250452 8.62974,-15.99384 11.46959,-8.839089 11.06864,-14.542309 12.07519,-22.127423 -4.12037,-6.378408 -14.82842,-22.062451 -29.71004,-36.976355 -19.13523,-19.17676 -50.46987,-43.74973 -99.17581,-64.85501 -52.69114,-22.83214 -93.30365,-29.88787 -120.61006,-31.3005 -15.19041,-0.78583 -25.6516,0.12267 -32.33858,1.08551 -1.6608,2.45461 -3.37142,4.68092 -5.05286,6.49412 -5.40158,5.82484 -9.74283,13.23156 -11.18636,21.04323 -0.75495,4.0854 -2.0152,8.36815 -3.50041,12.5884 7.22193,-0.53167 15.99924,-1.00815 27.42583,-1.02153 28.74618,-0.0334 73.23266,5.99341 127.09771,29.33423 50.07427,21.69821 83.75068,49.932304 103.01011,72.902044 10.89368,12.992332 18.2569,22.274025 23.33554,28.827124 z m 23.36462,-52.685378 c 1.67533,-6.990445 4.21722,-13.733891 8.82035,-18.425315 -3.29763,-5.245545 -11.43814,-17.093885 -26.41842,-32.173605 -20.32409,-20.45899 -52.83507,-46.27583 -101.49627,-67.36173 -52.69142,-22.83226 -93.58047,-30.00738 -121.17505,-31.54202 -13.81256,-0.76816 -24.16224,-0.15219 -31.05402,0.64788 -1.68045,6.97959 -4.10485,14.35823 -6.82557,20.0695 7.06676,-0.55684 15.54447,-1.0587 26.57997,-1.12856 29.1198,-0.18435 72.10963,6.40773 125.97496,29.74866 50.02953,21.67883 81.53317,48.79951 101.27433,69.71025 11.40399,12.079622 19.34073,23.020337 24.31972,30.45494 z m 16.23093,-26.60559 c 4.69081,-6.1822 7.41282,-12.6539 8.31153,-19.09546 1.01445,-7.27154 3.50396,-20.48363 8.45507,-28.57813 -3.77028,-5.79103 -10.29679,-19.17025 -24.08339,-33.04836 -20.32409,-20.459 -52.88203,-47.14624 -101.54324,-68.23212 -52.69142,-22.83226 -94.70156,-26.55184 -122.29614,-28.08647 -13.03002,-0.72465 -22.72873,-0.1961 -29.5996,0.53463 -2.50669,13.18415 -10.31924,23.09597 -17.42415,31.65188 -2.50923,2.97914 -5.5037,7.85874 -5.64947,12.01636 6.7768,-0.43706 16.0854,-1.39895 27.96034,-1.41286 28.74618,-0.0334 73.23266,5.99341 127.0977,29.33423 50.07428,21.69821 83.73927,49.92714 102.9987,72.89688 13.90633,16.58537 21.52646,26.43467 25.77265,32.01943 z m 23.64063,-56.37145 c 6.15934,-7.4994 6.68813,-13.52236 9.90857,-21.71686 l 11.02842,-28.06203 c -0.11683,-2.52834 -0.91521,-4.63949 -1.65544,-7.14511 -5.06935,-15.76126 -10.22066,-27.20501 -17.37552,-37.93797 -15.42512,-23.13921 -43.25643,-52.84743 -94.75449,-74.42718 -48.73154,-20.42047 -111.371,-27.73506 -160.53242,-11.87756 -10.09422,3.68232 -15.50953,27.40144 -20.27751,36.71855 -2.06071,4.02688 -4.79816,9.68732 -7.13517,13.90394 6.80374,-0.77741 15.21173,-1.46498 26.62796,-1.47834 28.74617,-0.0334 73.36263,4.73143 127.22767,28.07225 50.07427,21.6982 84.07652,50.15505 103.33595,73.12479 11.80181,14.07544 18.66505,24.41783 23.60198,30.82552 z m 24.34396,-63.31749 c 1.65736,-2.34596 2.83736,-4.31009 2.97639,-4.79093 -0.0513,-1.26746 -0.79665,-16.02544 -14.11868,-38.44748 -13.90467,-23.40271 -40.60295,-55.00268 -96.28408,-78.65389 -34.21195,-14.53188 -79.81014,-24.29923 -109.7918,-22.29909 -14.99082,1.00008 -28.93295,2.19659 -36.97182,4.55002 -6.98147,2.04388 -13.92045,4.05603 -15.7441,6.43727 -0.63618,0.83069 -0.67787,2.33432 -0.72315,4.15812 21.61847,-4.88614 87.19097,-15.60581 156.98504,15.13108 52.15672,22.96938 80.45106,54.74423 96.56455,78.79438 10.15936,15.1634 10.31951,21.23636 17.10765,35.12052 z"
         style="color:#000000;font-style:normal;font-variant:normal;font-weight:normal;font-stretch:normal;font-size:medium;line-height:normal;font-family:sans-serif;text-indent:0;text-align:start;text-decoration:none;text-decoration-line:none;text-decoration-style:solid;text-decoration-color:#000000;letter-spacing:normal;word-spacing:normal;text-transform:none;direction:ltr;block-progression:tb;writing-mode:lr-tb;baseline-shift:baseline;text-anchor:start;white-space:normal;clip-rule:nonzero;display:inline;overflow:visible;visibility:visible;opacity:1;isolation:auto;mix-blend-mode:normal;color-interpolation:sRGB;color-interpolation-filters:linearRGB;solid-color:#000000;solid-opacity:1;fill:#6a87a2;fill-opacity:1;fill-rule:evenodd;stroke:none;stroke-width:2.48031497;stroke-linecap:butt;stroke-linejoin:miter;stroke-miterlimit:4;stroke-dasharray:none;stroke-dashoffset:0;stroke-opacity:1;color-rendering:auto;image-rendering:auto;shape-rendering:auto;text-rendering:auto;enable-background:accumulate" />
      <path
         sodipodi:nodetypes="sszssszss"
         inkscape:connector-curvature="0"
         id="path4173-94"
         d="m 355.14566,-231.94622 c -52.54669,-22.76956 -94.972,-25.33794 -122.85088,-26.60019 -13.58779,-0.61519 -22.06623,2.65298 -22.9393,-0.26478 -0.87308,-2.9178 14.6312,-6.5205 24.4196,-6.36068 29.68495,0.48469 70.28972,0.84669 124.29949,24.25023 50.42153,21.84868 85.22496,50.76244 104.39306,75.68703 10.04785,13.06539 18.28174,30.55321 15.77753,30.95128 -2.50422,0.3981 -13.5282,-17.43404 -23.81205,-27.90475 -21.20481,-21.5901 -51.53823,-49.0674 -99.28745,-69.75811 z"
         style="color:#000000;font-style:normal;font-variant:normal;font-weight:normal;font-stretch:normal;font-size:medium;line-height:normal;font-family:sans-serif;text-indent:0;text-align:start;text-decoration:none;text-decoration-line:none;text-decoration-style:solid;text-decoration-color:#000000;letter-spacing:normal;word-spacing:normal;text-transform:none;direction:ltr;block-progression:tb;writing-mode:lr-tb;baseline-shift:baseline;text-anchor:start;white-space:normal;clip-rule:nonzero;display:inline;overflow:visible;visibility:visible;opacity:1;isolation:auto;mix-blend-mode:normal;color-interpolation:sRGB;color-interpolation-filters:linearRGB;solid-color:#000000;solid-opacity:1;fill:#6a87a2;fill-opacity:1;fill-rule:evenodd;stroke:none;stroke-width:1.77165353;stroke-linecap:butt;stroke-linejoin:miter;stroke-miterlimit:4;stroke-dasharray:none;stroke-dashoffset:0;stroke-opacity:1;color-rendering:auto;image-rendering:auto;shape-rendering:auto;text-rendering:auto;enable-background:accumulate" />
      <path
         sodipodi:nodetypes="ssszssszs"
         inkscape:connector-curvature="0"
         id="path4173-4"
         d="m 471.45879,-224.60723 c -22.67878,-19.36891 -50.21967,-44.61914 -92.07836,-62.75736 -52.49263,-22.74613 -90.93381,-25.28741 -119.19161,-24.18667 -15.88259,0.61866 -27.90805,5.61907 -29.16461,1.57398 -1.25658,-4.04507 11.67872,-6.7046 29.15812,-8.12863 30.46173,-2.48167 67.61682,-1.52936 121.68065,21.8976 43.20322,18.72084 73.82891,44.03182 94.81591,66.73139 15.45798,16.71935 26.14946,36.77422 23.78043,38.00564 -2.36903,1.23143 -16.26895,-22.26249 -29.00053,-33.13595 z"
         style="color:#000000;font-style:normal;font-variant:normal;font-weight:normal;font-stretch:normal;font-size:medium;line-height:normal;font-family:sans-serif;text-indent:0;text-align:start;text-decoration:none;text-decoration-line:none;text-decoration-style:solid;text-decoration-color:#000000;letter-spacing:normal;word-spacing:normal;text-transform:none;direction:ltr;block-progression:tb;writing-mode:lr-tb;baseline-shift:baseline;text-anchor:start;white-space:normal;clip-rule:nonzero;display:inline;overflow:visible;visibility:visible;opacity:1;isolation:auto;mix-blend-mode:normal;color-interpolation:sRGB;color-interpolation-filters:linearRGB;solid-color:#000000;solid-opacity:1;fill:#6a87a2;fill-opacity:1;fill-rule:evenodd;stroke:none;stroke-width:1.77165353;stroke-linecap:butt;stroke-linejoin:miter;stroke-miterlimit:4;stroke-dasharray:none;stroke-dashoffset:0;stroke-opacity:1;color-rendering:auto;image-rendering:auto;shape-rendering:auto;text-rendering:auto;enable-background:accumulate" />
      <path
         sodipodi:nodetypes="zssszsssz"
         inkscape:connector-curvature="0"
         id="path4173-9-7"
         d="m 137.68131,-122.12958 c -2.02391,-3.53655 16.04742,-6.71519 31.78452,-5.69003 28.6854,1.86866 71.91489,8.91771 125.77993,32.258525 50.07428,21.698202 85.31815,46.800944 104.32789,69.977746 14.09341,17.1827594 16.92753,24.71112357 14.585,26.8956952 -2.34254,2.1845651 -5.93073,-5.5782631 -21.48465,-21.4599132 -21.07852,-21.522638 -53.28166,-44.716681 -101.94286,-65.80257 -52.69142,-22.832263 -90.92939,-31.721903 -118.47653,-33.951433 -18.79597,-1.52125 -32.54938,1.30854 -34.5733,-2.22802 z"
         style="color:#000000;font-style:normal;font-variant:normal;font-weight:normal;font-stretch:normal;font-size:medium;line-height:normal;font-family:sans-serif;text-indent:0;text-align:start;text-decoration:none;text-decoration-line:none;text-decoration-style:solid;text-decoration-color:#000000;letter-spacing:normal;word-spacing:normal;text-transform:none;direction:ltr;block-progression:tb;writing-mode:lr-tb;baseline-shift:baseline;text-anchor:start;white-space:normal;clip-rule:nonzero;display:inline;overflow:visible;visibility:visible;opacity:1;isolation:auto;mix-blend-mode:normal;color-interpolation:sRGB;color-interpolation-filters:linearRGB;solid-color:#000000;solid-opacity:1;fill:#6a87a2;fill-opacity:1;fill-rule:evenodd;stroke:none;stroke-width:1.77165353;stroke-linecap:butt;stroke-linejoin:miter;stroke-miterlimit:4;stroke-dasharray:none;stroke-dashoffset:0;stroke-opacity:1;color-rendering:auto;image-rendering:auto;shape-rendering:auto;text-rendering:auto;enable-background:accumulate" />
      <path
         sodipodi:nodetypes="sssszssss"
         inkscape:connector-curvature="0"
         id="path4173-9-0"
         d="m 164.78299,-177.23988 c -1.2477,-1.52839 13.48823,-7.8715 29.75612,-7.04675 28.70933,1.45552 73.23639,5.99293 127.10143,29.33375 50.07428,21.69821 83.60135,50.05567 103.00639,72.902519 13.6926,16.121191 22.07066,32.717197 19.64382,32.263058 -2.42684,-0.454139 -12.59972,-12.826384 -26.9686,-27.953232 -19.86108,-20.908772 -50.71513,-46.145045 -99.37633,-67.230925 -52.69142,-22.83227 -95.44315,-29.9991 -123.03648,-31.55602 -19.85753,-1.12043 -28.87866,0.816 -30.12635,-0.7124 z"
         style="color:#000000;font-style:normal;font-variant:normal;font-weight:normal;font-stretch:normal;font-size:medium;line-height:normal;font-family:sans-serif;text-indent:0;text-align:start;text-decoration:none;text-decoration-line:none;text-decoration-style:solid;text-decoration-color:#000000;letter-spacing:normal;word-spacing:normal;text-transform:none;direction:ltr;block-progression:tb;writing-mode:lr-tb;baseline-shift:baseline;text-anchor:start;white-space:normal;clip-rule:nonzero;display:inline;overflow:visible;visibility:visible;opacity:1;isolation:auto;mix-blend-mode:normal;color-interpolation:sRGB;color-interpolation-filters:linearRGB;solid-color:#000000;solid-opacity:1;fill:#6a87a2;fill-opacity:1;fill-rule:evenodd;stroke:none;stroke-width:1.77165353;stroke-linecap:butt;stroke-linejoin:miter;stroke-miterlimit:4;stroke-dasharray:none;stroke-dashoffset:0;stroke-opacity:1;color-rendering:auto;image-rendering:auto;shape-rendering:auto;text-rendering:auto;enable-background:accumulate" />
    </g>
    <g
       id="g4835"
       transform="matrix(0.99967329,0,0,1.0223677,0.01729585,-2.7150972)">
      <path
         sodipodi:nodetypes="sssssccssssssscccsssssscccssssssssscssssssscssscsssssssscscsssssssscscscsssccssccccssssscssscssccccssscsscssscccsssccsssccscssscccsssccscssscccssscccssssccssc"
         inkscape:connector-curvature="0"
         id="path4169-6"
         d="m 531.02042,-41.54209 c -1.48385,2.121269 -9.10181,11.397171 -10.83107,13.462025 -13.50398,16.121993 -31.66821,32.5584665 -48.4652,41.707098 -2.27916,1.241357 -6.89287,3.645544 -9.61567,4.022651 -2.72279,0.377103 -5.30053,0.675958 -8.39064,-1.235774 -3.09011,-1.911728 -4.38549,-3.638246 -5.55937,-5.805964 L 431.52338,-3.6089129 c -3.01113,-5.3288192 -6.42952,-9.0524181 -10.33022,-11.2134641 -5.43986,-3.013756 -11.36912,-5.145817 -14.74919,-9.312414 -2.7711,-3.415919 -4.96023,-7.675118 -8.45948,-9.187793 -6.31088,-2.728112 -11.27599,-5.481125 -14.44661,-9.861356 -2.76786,-3.823819 -5.14803,-8.272154 -8.81628,-10.198266 -6.53428,-3.431029 -12.10227,-4.804882 -15.22894,-9.354603 -3.13803,-4.566261 -5.23377,-8.635989 -7.97388,-9.867499 -5.15794,-2.318169 -11.29419,-3.690092 -14.33964,-7.683462 -3.37241,-2.53084 -13.23722,-10.531248 -14.17667,-11.083836 -2.19558,-1.529637 -2.06509,-3.0022 -2.45061,-4.958957 -0.78959,-0.277063 -2.86518,-0.196908 -3.94608,-0.70781 -1.50291,-0.710368 -2.06237,-1.827563 -3.34517,-3.814957 -2.08522,-3.23057 -3.01883,-6.66545 -3.37742,-9.9373 -0.54421,-4.96558 -0.26072,-11.60121 1.1915,-19.52941 2.90447,-15.85639 10.86097,-36.87327 28.83366,-59.21815 19.55771,-24.3156 38.85719,-34.51284 53.24491,-38.80539 8.0373,-2.39791 16.2765,-3.59193 24.57696,-2.45219 2.66832,1.03601 3.20398,2.34258 4.73205,4.21576 1.69881,-0.31978 3.60973,0.91114 4.21773,1.23962 l 12.8358,10.54586 c 4.92997,4.05042 10.54078,8.88889 14.10319,13.64725 2.6167,3.49515 5.96103,3.73625 9.29439,5.50871 8.21608,4.36873 10.52668,7.55477 14.11069,13.55845 1.90132,3.18495 3.33127,3.17323 9.87972,5.319 5.42223,1.77673 9.78537,7.12199 13.6883,12.93804 2.80463,4.1794 7.17662,4.48122 11.43873,6.22792 5.71567,2.34241 9.39252,7.96789 12.7403,12.45218 2.88496,3.86433 8.69504,3.90319 12.10055,6.51766 l 17.74145,13.62048 c 1.531,0.44905 2.85639,0.46314 4.00264,0.93444 3.55862,1.46313 4.67376,4.40326 5.70932,7.43364 0.58188,1.70279 0.86067,4.21562 0.76138,7.4291 -0.19862,6.42686 -3.0903,15.572159 -9.56712,28.20875 -8.8366,17.240719 -16.34003,27.794099 -24.49883,39.456579 z m 27.36133,-66.64332 c 0.50693,-2.99721 0.0715,-5.64901 -0.45511,-6.5536 -0.94611,-1.62509 -2.47461,-1.77546 -4.04889,-1.65041 0.44453,7.75844 -2.12652,16.09339 -4.27617,22.026308 -4.84568,13.373933 -14.32348,31.385631 -31.25921,52.00473 -18.25911,22.230328 -33.75689,34.7571343 -44.74084,41.73458347 -7.50219,4.76570163 -12.76652,6.84862623 -15.48574,7.75970183 -0.0624,1.2682278 -0.19569,2.5341529 0.49748,2.788739 2.61239,0.9594537 5.57125,-0.5374842 8.05124,-1.632512 15.22224,-6.7213176 33.20471,-21.2270403 47.30895,-36.4469053 1.8219,-1.965822 6.60294,-7.322992 12.89715,-16.016693 6.30056,-8.702563 16.04785,-23.094937 22.85308,-38.098284 6.80524,-15.00334 7.83873,-21.070758 8.65809,-25.915638 z m -36.78223,54.241227 c 10.05447,-13.609666 18.14472,-26.579627 22.35903,-37.912497 2.86537,-7.705447 4.74606,-15.43554 5.65547,-23.47167 -2.11386,0.86725 -4.9662,2.19768 -6.50014,3.20639 -5.02551,3.30473 -9.90064,7.25925 -14.64015,11.5599 -3.02736,7.104471 -11.25775,24.29264 -27.55667,44.424114 -17.68618,21.844942 -31.15856,34.312485 -35.32171,38.015903 -2.29205,4.642055 -4.1628,9.0149937 -5.40771,12.8890357 -0.79644,2.4784692 -1.32121,4.78287948 -1.64599,6.8717209 3.32348,-1.03982421 8.38144,-2.9957721 14.63466,-6.9680666 10.6742,-6.780693 23.61842,-18.211038 41.69033,-40.213452 2.09109,-2.545878 4.97692,-6.0245 6.73289,-8.401374 z m -24.16498,-5.012408 c 10.90064,-13.463846 18.26386,-25.328142 22.88244,-33.707464 -8.72921,8.958645 -16.90375,18.834154 -24.39266,28.162203 -7.51026,9.354615 -16.97144,22.663861 -23.39448,33.156305 6.20102,-5.847268 15.89793,-16.486404 24.9047,-27.611044 z M 449.41436,1.0408297 c 0.33405,-3.0612003 1.7495,-6.8215159 2.89536,-10.3868534 5.84569,-18.1911863 21.70965,-41.1968593 37.10616,-60.3745033 13.75506,-17.133076 30.20289,-36.421843 49.24644,-48.944723 1.83157,-1.20442 4.17926,-2.26062 6.18381,-3.12643 -5.03697,-4.07043 -10.27277,-8.81818 -15.30362,-12.48609 -4.52541,2.16939 -29.86929,15.4222 -58.92978,53.124422 -17.3178,22.467595 -26.30323,40.416339 -30.96313,52.674688 -3.22338,8.479425 -4.31254,13.898505 -4.71301,16.561272 0.88873,1.023537 1.74579,2.0456127 2.34493,2.9084508 z M 430.46794,-16.523677 c 0.83108,-3.387103 2.05209,-7.963411 3.94194,-13.944892 4.20845,-13.320046 13.50167,-31.562134 31.12843,-54.430581 25.95726,-33.67618 49.95601,-48.34731 58.86052,-53.03739 -2.5224,-1.85783 -4.58939,-3.77552 -5.61904,-6.48522 -1.3209,-3.47624 -6.61068,-5.82205 -8.98669,-7.05651 -0.66734,-0.34671 -1.36309,-0.6468 -2.04942,-0.96749 -2.4049,0.86388 -9.69864,3.68604 -19.73303,9.62364 -12.2331,7.23863 -28.49963,19.65306 -44.45778,40.35669 -17.27984,22.418352 -25.65126,41.089672 -29.72031,54.090126 -2.11802,6.766986 -3.0479,11.834554 -3.47539,15.224337 1.37182,1.322804 2.57248,2.731182 3.43885,4.213294 1.60459,2.745008 5.8237,6.997945 10.53832,8.0938 1.37743,0.320087 3.74001,2.118307 6.1336,4.320196 z m 71.28101,-138.789243 c -2.90385,-1.51314 -5.39782,-3.28346 -6.5994,-6.05709 -2.83724,-6.5492 -5.61097,-7.04703 -9.11382,-8.44492 -3.54598,1.19786 -12.33497,4.41872 -21.26047,9.727 -11.47667,6.82554 -27.00662,18.82821 -42.97945,39.55088 -17.27974,22.418232 -25.56068,40.971845 -29.5366,53.849347 -2.21178,7.163687 -3.04224,12.27235 -3.39049,15.58409 0.97216,1.090329 1.82921,2.176866 2.49238,3.199522 2.13041,3.285253 5.1449,6.255053 8.70318,7.889141 1.86093,0.854608 3.75508,1.974528 5.59218,3.194389 0.61895,-3.515242 1.4523,-7.767046 2.8272,-13.228816 3.45898,-13.740292 11.71655,-34.269447 29.38127,-57.187133 16.42157,-21.30485 33.98405,-33.98396 47.2882,-40.41034 7.52521,-3.63494 12.85052,-6.03143 16.59582,-7.66607 z m -22.35111,-17.5335 c -3.13784,-1.64558 -6.0529,-3.67538 -7.73823,-6.44209 -2.9052,0.94166 -9.55094,3.39931 -18.56759,8.73469 -12.2331,7.23863 -28.49963,19.65305 -44.45779,40.35668 -17.27983,22.41835 -25.65125,41.089679 -29.72031,54.090132 -2.03677,6.507422 -2.99354,11.527439 -3.44433,14.917365 3.13203,1.646715 6.36482,3.697162 8.76504,5.687646 0.58817,-3.444137 1.37317,-7.555846 2.6738,-12.837563 3.43201,-13.937072 11.77878,-33.68273 29.44359,-56.60054 16.4069,-21.28581 33.17468,-33.06126 45.55318,-39.96673 7.15076,-3.98913 13.33816,-6.45912 17.49264,-7.93959 z m -10.75133,-10.97206 c -2.3871,-2.98882 -5.15053,-5.07184 -8.11997,-6.27997 -3.35204,-1.36376 -9.36445,-4.15048 -12.63387,-7.49485 -3.22299,1.10158 -10.40514,2.60292 -18.70332,7.51316 -12.23311,7.23863 -28.92122,19.57027 -44.87937,40.27391 -17.27984,22.41835 -24.13557,42.04311 -28.20461,55.04356 -1.92139,6.138748 -2.84124,10.837133 -3.32264,14.208686 5.99698,2.79156 9.7889,7.722934 13.01844,12.152257 1.12025,1.559155 3.08996,3.579915 5.05904,4.152159 0.61036,-3.291102 1.27598,-7.855458 2.70482,-13.531535 3.45898,-13.740292 11.71656,-34.269447 29.38128,-57.187137 16.42156,-21.30485 33.9802,-33.97912 47.28435,-40.4055 9.6063,-4.64019 15.2339,-7.09082 18.41585,-8.44474 z m -24.07912,-18.11097 c -2.839,-3.84978 -5.65313,-4.83053 -9.17954,-7.35999 l -12.07618,-8.66213 c -1.22228,-0.2498 -2.3276,-0.1235 -3.61438,-0.0727 -8.14426,0.5171 -14.23532,1.59527 -20.22893,3.71675 -12.92163,4.57369 -30.48194,14.28154 -47.01901,36.28106 -15.64869,20.81768 -26.71602,49.8655 -25.08138,75.27401 0.53935,5.268616 11.21882,10.723554 15.0946,14.128201 1.67512,1.471486 4.04903,3.463821 5.78142,5.090272 0.45098,-3.345118 1.13881,-7.44596 2.51246,-12.902778 3.45898,-13.740285 11.12924,-34.484105 28.79396,-57.401795 16.42156,-21.30484 34.12987,-34.11272 47.43403,-40.53911 8.15254,-3.93796 13.92426,-5.9673 17.58295,-7.55181 z m -27.31324,-19.28672 c -0.92066,-1.07555 -1.71657,-1.87684 -1.92953,-2.0014 -0.61186,-0.1287 -7.754,-1.55654 -20.0787,2.09889 -12.86375,3.81529 -31.19106,12.75305 -49.22364,36.50102 -11.07966,14.59139 -21.25903,35.1996 -23.92756,49.76801 -1.33426,7.2842 -2.44788,14.09103 -2.29507,18.21687 0.13271,3.58314 0.2554,7.14214 1.17282,8.30142 0.32004,0.40441 1.0335,0.60609 1.89952,0.8482 0.2785,-10.92096 3.08278,-43.55037 26.20725,-73.18562 17.28072,-22.14627 35.88453,-31.82555 49.32466,-36.61806 8.47388,-3.0216 11.39518,-2.36401 18.85025,-3.92933 z"
         style="color:#000000;font-style:normal;font-variant:normal;font-weight:normal;font-stretch:normal;font-size:medium;line-height:normal;font-family:sans-serif;text-indent:0;text-align:start;text-decoration:none;text-decoration-line:none;text-decoration-style:solid;text-decoration-color:#000000;letter-spacing:normal;word-spacing:normal;text-transform:none;direction:ltr;block-progression:tb;writing-mode:lr-tb;baseline-shift:baseline;text-anchor:start;white-space:normal;clip-rule:nonzero;display:inline;overflow:visible;visibility:visible;opacity:1;isolation:auto;mix-blend-mode:normal;color-interpolation:sRGB;color-interpolation-filters:linearRGB;solid-color:#000000;solid-opacity:1;fill:#6a87a2;fill-opacity:1;fill-rule:evenodd;stroke:none;stroke-width:2.48031497;stroke-linecap:butt;stroke-linejoin:miter;stroke-miterlimit:4;stroke-dasharray:none;stroke-dashoffset:0;stroke-opacity:1;color-rendering:auto;image-rendering:auto;shape-rendering:auto;text-rendering:auto;enable-background:accumulate" />
      <path
         sodipodi:nodetypes="sszssszss"
         inkscape:connector-curvature="0"
         id="path4173-94-7"
         d="m 394.09262,-142.03347 c -17.23238,22.35677 -23.5882,42.319073 -27.56146,55.488306 -1.9365,6.418508 -1.39973,10.864967 -2.89951,10.929451 -1.4998,0.06448 -1.34712,-7.779686 -0.0875,-12.437716 3.82004,-14.126251 8.90147,-33.485331 26.61365,-56.464591 16.53545,-21.45259 34.55894,-34.58808 48.78617,-40.73451 7.45787,-3.22194 16.8097,-5.04248 16.6972,-3.79773 -0.11249,1.24475 -9.96613,4.35691 -16.21266,8.00527 -12.88007,7.52275 -29.6768,18.6959 -45.33588,39.01152 z"
         style="color:#000000;font-style:normal;font-variant:normal;font-weight:normal;font-stretch:normal;font-size:medium;line-height:normal;font-family:sans-serif;text-indent:0;text-align:start;text-decoration:none;text-decoration-line:none;text-decoration-style:solid;text-decoration-color:#000000;letter-spacing:normal;word-spacing:normal;text-transform:none;direction:ltr;block-progression:tb;writing-mode:lr-tb;baseline-shift:baseline;text-anchor:start;white-space:normal;clip-rule:nonzero;display:inline;overflow:visible;visibility:visible;opacity:1;isolation:auto;mix-blend-mode:normal;color-interpolation:sRGB;color-interpolation-filters:linearRGB;solid-color:#000000;solid-opacity:1;fill:#6a87a2;fill-opacity:1;fill-rule:evenodd;stroke:none;stroke-width:1.77165353;stroke-linecap:butt;stroke-linejoin:miter;stroke-miterlimit:4;stroke-dasharray:none;stroke-dashoffset:0;stroke-opacity:1;color-rendering:auto;image-rendering:auto;shape-rendering:auto;text-rendering:auto;enable-background:accumulate" />
      <path
         sodipodi:nodetypes="ssszssszs"
         inkscape:connector-curvature="0"
         id="path4173-4-5"
         d="m 411.65987,-196.7261 c -11.99685,8.49559 -27.39182,18.60356 -41.11913,36.41296 -17.21465,22.33378 -23.0759,40.39555 -25.96582,54.0315 -1.62432,7.664219 -0.68857,14.015008 -2.7734,14.126465 -2.08482,0.11147 -1.792,-6.391108 -0.35949,-14.915715 2.49646,-14.85602 7.44296,-32.49532 25.17287,-55.49758 14.16825,-18.38146 29.96515,-29.95615 43.34904,-37.2407 9.85789,-5.36544 20.73346,-8.05002 21.03551,-6.76913 0.30206,1.28089 -12.6047,5.08289 -19.33958,9.8522 z"
         style="color:#000000;font-style:normal;font-variant:normal;font-weight:normal;font-stretch:normal;font-size:medium;line-height:normal;font-family:sans-serif;text-indent:0;text-align:start;text-decoration:none;text-decoration-line:none;text-decoration-style:solid;text-decoration-color:#000000;letter-spacing:normal;word-spacing:normal;text-transform:none;direction:ltr;block-progression:tb;writing-mode:lr-tb;baseline-shift:baseline;text-anchor:start;white-space:normal;clip-rule:nonzero;display:inline;overflow:visible;visibility:visible;opacity:1;isolation:auto;mix-blend-mode:normal;color-interpolation:sRGB;color-interpolation-filters:linearRGB;solid-color:#000000;solid-opacity:1;fill:#6a87a2;fill-opacity:1;fill-rule:evenodd;stroke:none;stroke-width:1.77165353;stroke-linecap:butt;stroke-linejoin:miter;stroke-miterlimit:4;stroke-dasharray:none;stroke-dashoffset:0;stroke-opacity:1;color-rendering:auto;image-rendering:auto;shape-rendering:auto;text-rendering:auto;enable-background:accumulate" />
      <path
         sodipodi:nodetypes="zssszsssz"
         inkscape:connector-curvature="0"
         id="path4173-9-7-3"
         d="m 420.28022,-24.843918 c -1.93459,0.539607 -1.26896,-8.479955 1.12326,-15.875944 4.36053,-13.481321 12.95463,-33.286256 30.61935,-56.203942 16.42156,-21.304846 32.67722,-35.111496 46.05013,-41.393526 9.91438,-4.65737 13.85438,-5.10159 14.61509,-3.71814 0.76072,1.38345 -3.38248,2.15965 -12.85168,7.6722 -12.83255,7.47056 -27.80857,20.05493 -43.76672,40.758567 -17.27984,22.418352 -26.15007,39.615611 -30.54544,52.509395 -2.99904,8.797689 -3.3094,15.71178 -5.24399,16.25139 z"
         style="color:#000000;font-style:normal;font-variant:normal;font-weight:normal;font-stretch:normal;font-size:medium;line-height:normal;font-family:sans-serif;text-indent:0;text-align:start;text-decoration:none;text-decoration-line:none;text-decoration-style:solid;text-decoration-color:#000000;letter-spacing:normal;word-spacing:normal;text-transform:none;direction:ltr;block-progression:tb;writing-mode:lr-tb;baseline-shift:baseline;text-anchor:start;white-space:normal;clip-rule:nonzero;display:inline;overflow:visible;visibility:visible;opacity:1;isolation:auto;mix-blend-mode:normal;color-interpolation:sRGB;color-interpolation-filters:linearRGB;solid-color:#000000;solid-opacity:1;fill:#6a87a2;fill-opacity:1;fill-rule:evenodd;stroke:none;stroke-width:1.77165353;stroke-linecap:butt;stroke-linejoin:miter;stroke-miterlimit:4;stroke-dasharray:none;stroke-dashoffset:0;stroke-opacity:1;color-rendering:auto;image-rendering:auto;shape-rendering:auto;text-rendering:auto;enable-background:accumulate" />
      <path
         sodipodi:nodetypes="sssszssss"
         inkscape:connector-curvature="0"
         id="path4173-9-0-5"
         d="m 397.22212,-44.456284 c -0.88117,0.411451 -2.13087,-7.396835 0.22976,-15.070687 4.166,-13.542697 11.71678,-34.271287 29.3815,-57.188969 16.42156,-21.30485 34.02494,-33.89769 47.28797,-40.4085 9.35866,-4.59417 18.30177,-6.59141 17.7914,-5.48666 -0.51037,1.10476 -7.65214,4.47023 -16.61741,9.50776 -12.39205,6.96302 -28.18086,18.65586 -44.13901,39.35949 -17.27984,22.418355 -25.87247,41.980757 -29.95202,54.97792 -2.93584,9.353405 -3.10103,13.8982 -3.98219,14.309646 z"
         style="color:#000000;font-style:normal;font-variant:normal;font-weight:normal;font-stretch:normal;font-size:medium;line-height:normal;font-family:sans-serif;text-indent:0;text-align:start;text-decoration:none;text-decoration-line:none;text-decoration-style:solid;text-decoration-color:#000000;letter-spacing:normal;word-spacing:normal;text-transform:none;direction:ltr;block-progression:tb;writing-mode:lr-tb;baseline-shift:baseline;text-anchor:start;white-space:normal;clip-rule:nonzero;display:inline;overflow:visible;visibility:visible;opacity:1;isolation:auto;mix-blend-mode:normal;color-interpolation:sRGB;color-interpolation-filters:linearRGB;solid-color:#000000;solid-opacity:1;fill:#6a87a2;fill-opacity:1;fill-rule:evenodd;stroke:none;stroke-width:1.77165353;stroke-linecap:butt;stroke-linejoin:miter;stroke-miterlimit:4;stroke-dasharray:none;stroke-dashoffset:0;stroke-opacity:1;color-rendering:auto;image-rendering:auto;shape-rendering:auto;text-rendering:auto;enable-background:accumulate" />
    </g>
    <path
       style="fill:none;fill-rule:evenodd;stroke:#6a87a2;stroke-width:9.75179005;stroke-linecap:butt;stroke-linejoin:miter;stroke-miterlimit:4;stroke-dasharray:none;stroke-opacity:1"
       d="m 181.34791,-133.08136 c -22.15238,-33.07469 4.04104,-79.41641 25.93066,-114.80209 19.65319,-12.20253 21.23199,26.04408 -0.97804,14.255 -25.12642,-13.32098 -16.84701,-48.39932 -12.68312,-71.22769 8.19428,-44.14883 46.48309,-86.31217 90.33998,-80.31285 152.82254,21.28582 -7.61041,129.04341 68.50283,179.02195"
       id="path4810"
       inkscape:connector-curvature="0"
       sodipodi:nodetypes="cccccc" />
  </g>
</svg>
