<?xml version="1.0" encoding="UTF-8" standalone="no"?>
<!-- Created with Inkscape (http://www.inkscape.org/) -->

<svg
   xmlns:dc="http://purl.org/dc/elements/1.1/"
   xmlns:cc="http://creativecommons.org/ns#"
   xmlns:rdf="http://www.w3.org/1999/02/22-rdf-syntax-ns#"
   xmlns:svg="http://www.w3.org/2000/svg"
   xmlns="http://www.w3.org/2000/svg"
   xmlns:xlink="http://www.w3.org/1999/xlink"
   xmlns:sodipodi="http://sodipodi.sourceforge.net/DTD/sodipodi-0.dtd"
   xmlns:inkscape="http://www.inkscape.org/namespaces/inkscape"
   width="144.49777mm"
   height="144.49777mm"
   viewBox="0 0 511.99998 511.99998"
   id="svg5807"
   version="1.1"
   inkscape:version="0.91 r13725"
   sodipodi:docname="icon-gnu-linux.svg">
  <defs
     id="defs5809">
    <linearGradient
       xlink:href="#linearGradient153"
       id="linearGradient1401"
       gradientUnits="userSpaceOnUse"
       x1="400.57785"
       y1="369.53015"
       x2="400.84448"
       y2="304.07886"
       gradientTransform="matrix(-0.96493873,-0.01291555,-0.03671998,2.5569228,862.8276,-357.26968)" />
    <linearGradient
       id="linearGradient153">
      <stop
         style="stop-color:#ffeed7;stop-opacity:1;"
         offset="0"
         id="stop154" />
      <stop
         style="stop-color:#bdbfc2;stop-opacity:1;"
         offset="1"
         id="stop155" />
    </linearGradient>
    <linearGradient
       xlink:href="#linearGradient138"
       id="linearGradient1403"
       gradientUnits="userSpaceOnUse"
       x1="303.01761"
       y1="237.93179"
       x2="297.0856"
       y2="330.09561"
       gradientTransform="matrix(1.4132361,-0.0796503,-0.04119768,1.0713842,-108.6094,-190.01368)" />
    <linearGradient
       id="linearGradient138">
      <stop
         style="stop-color:#ffffff;stop-opacity:0.8;"
         offset="0"
         id="stop139" />
      <stop
         style="stop-color:#ffffff;stop-opacity:0;"
         offset="1"
         id="stop140" />
    </linearGradient>
    <linearGradient
       xlink:href="#linearGradient153"
       id="linearGradient1405"
       gradientUnits="userSpaceOnUse"
       gradientTransform="matrix(1.0650795,-0.06167214,0.0944585,1.6443046,-165.9954,-241.86968)"
       x1="378.93771"
       y1="278.60202"
       x2="380.27319"
       y2="243.91606" />
    <linearGradient
       xlink:href="#linearGradient153"
       id="linearGradient1407"
       gradientUnits="userSpaceOnUse"
       x1="381.38742"
       y1="277.495"
       x2="380.5517"
       y2="245.68338"
       gradientTransform="matrix(-1.4785291,0.04042534,0.03886407,1.9024316,896.7076,-349.02968)" />
    <linearGradient
       xlink:href="#linearGradient138"
       id="linearGradient1409"
       gradientUnits="userSpaceOnUse"
       gradientTransform="matrix(-0.39218229,-0.02976458,-0.05731006,0.58249559,502.7436,22.75972)"
       x1="379.09573"
       y1="240.92712"
       x2="376.79556"
       y2="281.01636" />
    <linearGradient
       xlink:href="#linearGradient138"
       id="linearGradient1411"
       gradientUnits="userSpaceOnUse"
       x1="389.63535"
       y1="242.28218"
       x2="387.06866"
       y2="281.32513"
       gradientTransform="matrix(0.29141594,-0.03333031,0.05061034,0.48811437,138.5816,50.73832)" />
    <linearGradient
       xlink:href="#linearGradient153"
       id="linearGradient1413"
       gradientUnits="userSpaceOnUse"
       spreadMethod="reflect"
       x1="437.57941"
       y1="528.87177"
       x2="437.57941"
       y2="394.10361"
       gradientTransform="matrix(1.0160687,0,0,1.53779,-125.2984,-232.48268)" />
    <linearGradient
       xlink:href="#linearGradient153"
       id="linearGradient1415"
       gradientUnits="userSpaceOnUse"
       x1="375.17325"
       y1="419.78485"
       x2="377.48541"
       y2="324.03815"
       gradientTransform="matrix(0.9027839,-0.07217411,0.15730007,2.0039596,-202.3394,-230.19068)" />
    <linearGradient
       xlink:href="#linearGradient138"
       id="linearGradient1417"
       gradientUnits="userSpaceOnUse"
       x1="320.75104"
       y1="498.17776"
       x2="321.32224"
       y2="614.50439"
       gradientTransform="matrix(1.3994837,0,0,1.1399824,-140.7104,-217.80968)" />
    <linearGradient
       xlink:href="#linearGradient138"
       id="linearGradient1419"
       gradientUnits="userSpaceOnUse"
       x1="322.48257"
       y1="435.26761"
       x2="323.2514"
       y2="488.48251"
       gradientTransform="matrix(1.2781848,0,0,0.99078805,-100.1294,-164.33068)" />
    <linearGradient
       xlink:href="#linearGradient138"
       id="linearGradient1421"
       gradientUnits="userSpaceOnUse"
       x1="411.2215"
       y1="242.94365"
       x2="411.2215"
       y2="331.44858"
       gradientTransform="matrix(0.71463375,0,0,2.1864338,-125.2984,-231.75768)" />
    <linearGradient
       xlink:href="#linearGradient138"
       id="linearGradient1423"
       gradientUnits="userSpaceOnUse"
       x1="867.34546"
       y1="234.73897"
       x2="867.33453"
       y2="314.83911"
       gradientTransform="matrix(0.71583375,0,0,2.1827675,-125.2984,-231.75768)" />
    <linearGradient
       xlink:href="#linearGradient162"
       id="linearGradient1425"
       gradientUnits="userSpaceOnUse"
       x1="236.25362"
       y1="657.11133"
       x2="212.5099"
       y2="737.41229"
       gradientTransform="matrix(1.2643925,0,0,1.2357712,-125.2984,-231.75768)" />
    <linearGradient
       id="linearGradient162">
      <stop
         style="stop-color:#ffa63f;stop-opacity:1;"
         offset="0"
         id="stop163" />
      <stop
         style="stop-color:#ffff00;stop-opacity:1;"
         offset="1"
         id="stop164" />
    </linearGradient>
    <linearGradient
       xlink:href="#linearGradient153"
       id="linearGradient1427"
       gradientUnits="userSpaceOnUse"
       x1="381.56607"
       y1="655.73102"
       x2="279.64313"
       y2="386.66583"
       gradientTransform="matrix(0.63738789,0.28617598,-0.22489266,0.57927107,389.8156,76.21132)" />
    <linearGradient
       xlink:href="#linearGradient162"
       id="linearGradient1429"
       gradientUnits="userSpaceOnUse"
       x1="218.11714"
       y1="630.30475"
       x2="203.12654"
       y2="737.8537"
       gradientTransform="matrix(-1.1800109,0.4273134,0.47064661,1.1534176,417.5906,-278.07368)" />
    <linearGradient
       xlink:href="#linearGradient138"
       id="linearGradient1431"
       gradientUnits="userSpaceOnUse"
       gradientTransform="matrix(-0.95239592,0.34640009,0.42082546,0.94872982,403.5756,-128.59468)"
       x1="117.88966"
       y1="587.23602"
       x2="182.24524"
       y2="704.73077" />
    <linearGradient
       xlink:href="#linearGradient138"
       id="linearGradient1433"
       gradientUnits="userSpaceOnUse"
       x1="223.10072"
       y1="570.41809"
       x2="230.53499"
       y2="710.97723"
       gradientTransform="matrix(1.0038119,-0.05226007,-0.01740863,1.0462687,-66.5614,-92.71798)" />
    <linearGradient
       xlink:href="#linearGradient138"
       id="linearGradient1435"
       gradientUnits="userSpaceOnUse"
       x1="316.93988"
       y1="474.01779"
       x2="371.60889"
       y2="582.63507"
       gradientTransform="matrix(0.37423628,0.15925268,-0.12093484,0.32235493,413.7696,254.03832)" />
    <linearGradient
       xlink:href="#linearGradient162"
       id="linearGradient1437"
       gradientUnits="userSpaceOnUse"
       x1="284.68652"
       y1="410.46326"
       x2="285.45923"
       y2="485.69934"
       gradientTransform="matrix(1.523355,0,0,1.0256962,-125.2984,-231.75768)" />
    <linearGradient
       xlink:href="#linearGradient138"
       id="linearGradient1439"
       gradientUnits="userSpaceOnUse"
       x1="288.82358"
       y1="398.85422"
       x2="288.37628"
       y2="482.55939"
       gradientTransform="matrix(0.76723842,0,0,0.48747518,81.6136,-12.43538)" />
  </defs>
  <sodipodi:namedview
     id="base"
     pagecolor="#ffffff"
     bordercolor="#666666"
     borderopacity="1.0"
     inkscape:pageopacity="0.0"
     inkscape:pageshadow="2"
     inkscape:zoom="0.98994949"
     inkscape:cx="-81.204164"
     inkscape:cy="253.05543"
     inkscape:document-units="px"
     inkscape:current-layer="layer1"
     showgrid="false"
     fit-margin-top="0"
     fit-margin-left="0"
     fit-margin-right="0"
     fit-margin-bottom="0"
     inkscape:window-width="1920"
     inkscape:window-height="1102"
     inkscape:window-x="0"
     inkscape:window-y="25"
     inkscape:window-maximized="1" />
  <metadata
     id="metadata5812">
    <rdf:RDF>
      <cc:Work
         rdf:about="">
        <dc:format>image/svg+xml</dc:format>
        <dc:type
           rdf:resource="http://purl.org/dc/dcmitype/StillImage" />
        <dc:title></dc:title>
      </cc:Work>
    </rdf:RDF>
  </metadata>
  <g
     inkscape:label="Layer 1"
     inkscape:groupmode="layer"
     id="layer1"
     transform="translate(-101.23103,-290.31521)">
    <path
       style="fill:#46637d;fill-opacity:1"
       d="m 423.87291,687.8859 c -11.76728,-1.72285 -19.72139,-4.10239 -29.03841,-8.68713 -16.04398,-7.89502 -28.25575,-19.13913 -35.12806,-32.34459 l -2.08437,-4.00515 -1.34384,2.84241 c -1.8758,3.96758 -2.3053,4.23885 -4.87608,3.08048 -3.2753,-1.47587 -7.39539,-5.9097 -9.73366,-10.47492 -2.5103,-4.90101 -4.17759,-10.11709 -5.94801,-18.60818 -1.54999,-7.43382 -2.01131,-8.87011 -2.76787,-8.61757 -0.29955,0.1 -1.48097,1.97977 -2.62541,4.17728 -2.50507,4.81016 -3.34003,5.14263 -6.26625,2.4951 -4.5349,-4.103 -7.07098,-10.35928 -8.61334,-21.24822 -1.39326,-9.83626 -1.44857,-10.0928 -2.17614,-10.0928 -0.36337,0 -1.39744,1.6922 -2.29789,3.76046 -0.90046,2.06826 -1.94072,3.76046 -2.3117,3.76046 -1.03063,0 -5.53622,-9.74049 -6.72587,-14.54047 -1.51111,-6.09699 -1.84919,-17.37903 -0.75876,-25.32045 0.45437,-3.3092 0.95844,-6.45532 1.12014,-6.99135 0.1872,-0.62061 -1.16793,0.24653 -3.73079,2.38727 -15.7212,13.13181 -43.27504,22.99053 -64.44468,23.05822 -9.39106,0.03 -14.13027,-1.50691 -15.61422,-5.06371 -1.16478,-2.79178 0.0767,-5.48203 5.36961,-11.63644 8.27108,-9.61716 13.54562,-18.47386 17.76634,-29.83212 1.5668,-4.21637 6.37795,-22.18681 7.41657,-27.70209 l 0.30687,-1.62953 -4.36828,-0.01 c -12.88261,-0.0256 -27.61354,-3.28677 -38.44537,-8.51105 -24.3355,-11.73721 -40.34847,-35.18826 -46.76526,-68.48782 -6.34756,-32.94054 -2.10744,-60.46348 12.73858,-82.68684 16.35,-24.47471 44.98146,-41.02066 79.10128,-45.7122 7.6954,-1.05813 22.53568,-1.03613 29.4615,0.0437 11.07407,1.72654 17.95195,4.41842 26.67964,10.44197 3.00156,2.07157 6.6431,4.36349 8.09232,5.09313 3.97866,2.00318 10.90248,4.1638 15.3889,4.80224 6.25524,0.89012 7.25961,1.31664 7.25961,3.08286 0,5.83617 -7.76181,9.8122 -22.43321,11.49153 -4.952,0.56683 -9.4959,0.51879 -30.13634,-0.31856 -6.53427,-0.26506 -8.70987,-0.15276 -13.77109,0.71089 -15.20228,2.59415 -28.78187,9.68039 -40.03931,20.89375 -10.22188,10.18184 -16.77875,21.16672 -20.1795,33.80719 -1.11078,4.1287 -1.29425,5.85242 -1.31149,12.32117 -0.0186,6.93994 0.0867,7.83081 1.3633,11.5321 6.04759,17.5354 23.83632,23.68181 42.14605,14.5624 8.58177,-4.27426 16.39825,-11.37158 24.05354,-21.84041 15.55599,-21.2733 24.32809,-30.11994 38.05011,-38.37338 24.47684,-14.72219 51.88619,-12.41596 74.23025,6.24575 2.80197,2.34018 3.26087,2.56198 4.07285,1.96846 0.50332,-0.36787 2.34915,-1.7198 4.10185,-3.0043 11.9786,-8.77858 26.8728,-12.61193 40.48609,-10.41996 8.24914,1.32825 19.35947,6.23041 27.78675,12.26021 8.69369,6.22041 14.71478,12.44088 30.11873,31.11607 10.67907,12.94691 17.35506,19.03915 25.20445,23.00061 4.75565,2.40011 8.25057,3.41513 11.97308,3.47734 14.00732,0.23411 25.08185,-19.69859 25.07391,-45.12969 -0.004,-14.6729 -3.9446,-27.04363 -10.97757,-34.46694 -7.45794,-7.87184 -16.49964,-12.52669 -28.35322,-14.59682 -2.31401,-0.40412 -8.77352,-0.9675 -14.35446,-1.25197 -12.81591,-0.65325 -18.35557,-1.33585 -22.22293,-2.7383 -5.67903,-2.05945 -10.68756,-5.68787 -12.47457,-9.03719 -0.92696,-1.73737 -0.93379,-1.87986 -0.11893,-2.48131 0.54715,-0.40382 3.48825,-0.75669 8.01061,-0.96113 13.88626,-0.6277 24.84153,-2.9657 43.94468,-9.37836 14.10294,-4.73416 18.35751,-5.48557 25.84343,-4.56426 11.91348,1.46623 22.37196,6.89718 32.92559,17.09783 18.72266,18.09643 30.39494,44.65343 31.19103,70.96651 0.49616,16.39891 -1.89482,24.96559 -13.3714,47.90859 -9.10391,18.19977 -17.23317,27.55106 -28.94648,33.29789 -6.47932,3.17891 -13.02717,4.95643 -24.23621,6.57931 -3.51089,0.50832 -6.38344,1.1136 -6.38344,1.34506 0,1.31728 6.41814,9.82443 10.50431,13.92332 5.44746,5.46439 9.36327,7.80814 15.78045,9.44509 4.0345,1.02914 6.25829,2.58791 6.25829,4.38676 0,2.80701 -5.12383,6.90864 -11.57659,9.26706 -6.28896,2.29855 -12.08681,3.11388 -19.96514,2.80766 -15.60258,-0.60648 -29.16123,-6.88752 -41.30464,-19.13438 -3.02899,-3.05481 -6.07053,-6.3947 -6.75893,-7.42199 -0.68841,-1.02727 -1.38728,-1.86932 -1.55304,-1.8712 -0.16577,-0.001 -0.43876,1.97082 -0.60666,4.38379 -0.1679,2.41296 -1.21177,8.10273 -2.31974,12.64395 l -2.01447,8.25674 1.61979,1.68241 c 5.82743,6.05265 14.29628,8.71959 22.37954,7.04758 4.00328,-0.82808 6.01129,-0.28928 9.02083,2.42052 4.38858,3.9515 6.68117,9.94327 6.68117,17.46157 0,8.86071 -2.50978,14.17611 -10.16361,21.5253 -8.35874,8.02605 -10.44764,10.33329 -11.78044,13.01181 -2.27033,4.5626 -1.47237,7.2434 3.45315,11.60101 4.10058,3.6278 4.89339,5.58243 3.61934,8.92338 -0.46087,1.20851 -1.63308,3.12759 -2.6049,4.26462 -2.12871,2.49055 -9.44711,7.48551 -13.32719,9.09606 l -2.80662,1.16499 1.43681,1.98635 c 3.29497,4.55525 4.37687,11.18226 2.73144,16.73114 -1.56416,5.2748 -6.8232,10.71664 -11.14048,11.52777 -1.25246,0.2353 -2.82446,0.0109 -5.13588,-0.73528 -3.90269,-1.2588 -6.5928,-1.35594 -9.46321,-0.34171 -3.17444,1.12164 -5.40353,3.10433 -6.87391,6.11406 -1.25569,2.57034 -1.33165,3.12758 -1.25805,9.22915 0.1353,11.21998 -1.99569,17.70074 -7.65621,23.28362 -5.55249,5.47649 -13.01282,8.19808 -23.31846,8.50684 -3.44205,0.10311 -6.93418,0.0891 -7.76026,-0.0321 z m 9.15481,-18.62773 c -4.53621,-8.93597 -4.92308,-15.04343 -1.42691,-22.52552 1.70605,-3.65101 5.76938,-8.01596 8.99738,-9.66515 5.24928,-2.68192 15.44603,-4.02794 30.58731,-4.03771 14.42955,-0.01 18.72366,-1.58915 20.0638,-7.38169 0.58121,-2.5122 -0.52478,-6.32603 -2.54125,-8.7631 -0.88097,-1.06473 -2.96883,-2.56279 -4.89157,-3.50977 -3.28309,-1.61697 -3.49335,-1.65171 -9.87025,-1.63047 -6.5094,0.0217 -6.52297,0.0241 -14.02563,2.597 -9.55946,3.27811 -12.89645,3.85473 -20.23214,3.49605 -6.99505,-0.34205 -10.23699,-1.1736 -16.81688,-4.31348 -11.87053,-5.66456 -22.97336,-17.08101 -26.78568,-27.5423 -1.27196,-3.49035 -1.69633,-5.73968 -1.55245,-8.2285 0.0967,-1.67316 0.97148,-0.8594 2.96439,2.75767 7.68743,13.95242 20.31685,25.32867 31.91226,28.74574 3.48768,1.0278 9.21168,1.13027 13.48799,0.24146 1.65217,-0.3434 7.3867,-1.84607 12.74334,-3.33926 5.35665,-1.4932 11.665,-3.08921 14.01854,-3.54667 4.64456,-0.90279 14.02774,-1.15098 20.05003,-0.53033 6.66118,0.68648 10.82026,-1.76454 10.7165,-6.31544 -0.0611,-2.67875 -1.44653,-5.34997 -4.70149,-9.06472 -2.90272,-3.31275 -3.5117,-4.56015 -3.5117,-7.19325 0,-4.10178 3.36364,-8.02335 15.47393,-18.04062 7.08121,-5.85737 9.43232,-11.03619 8.93884,-19.68969 -0.29938,-5.24957 -1.71586,-8.80564 -4.51713,-11.34014 l -2.01382,-1.822 -3.30845,0.40121 c -1.81965,0.22068 -5.2235,0.41024 -7.56409,0.42127 -3.67755,0.0173 -4.65465,-0.17355 -7.19293,-1.40518 -7.85813,-3.81296 -15.5118,-14.25771 -20.08105,-27.40404 -2.52861,-7.27516 -5.76241,-13.177 -12.72273,-23.2196 -8.85012,-12.76927 -9.443,-14.13531 -7.82164,-18.02148 0.41025,-0.98329 0.89466,-3.72599 1.0765,-6.0949 0.18181,-2.36891 0.48895,-4.40512 0.6825,-4.52493 0.19356,-0.11975 0.89195,0.61537 1.55199,1.63373 1.89569,2.9248 2.77245,3.14381 8.10437,2.02444 6.66235,-1.39869 12.60869,-1.09285 16.62683,0.85515 1.65218,0.80097 3.20619,1.55345 3.45333,1.67216 1.16608,0.56007 -0.27659,-6.79874 -2.8904,-14.74343 -1.54876,-4.70742 -2.81592,-9.17065 -2.81592,-9.91828 0,-3.10094 3.18992,-1.77861 7.03749,2.91726 4.54961,5.55267 6.10999,9.23258 9.78701,23.08088 4.2821,16.1273 7.54514,24.17853 12.44305,30.7021 4.22067,5.62159 6.61521,6.42207 10.14908,3.39278 1.12594,-0.96519 2.25028,-1.75489 2.4985,-1.75489 0.24822,0 2.69682,2.19988 5.44132,4.88862 7.65537,7.49975 12.93035,10.14556 20.98395,10.52509 3.49012,0.16446 4.7317,0.0419 5.50729,-0.5437 0.9769,-0.73758 0.96469,-0.7695 -0.50067,-1.30817 -5.15925,-1.89659 -10.03575,-6.49696 -15.3028,-14.43626 -4.00241,-6.03301 -11.033,-20.0796 -14.99629,-29.96139 -5.08809,-12.68627 -9.71502,-20.32451 -16.8781,-27.86271 -11.74526,-12.36031 -23.78132,-18.10719 -37.9354,-18.11302 -7.63801,-0.003 -11.05348,0.91679 -19.00266,5.11838 -7.70125,4.07052 -11.36606,5.44683 -15.54302,5.83712 -4.12007,0.38498 -7.32328,-0.54126 -19.14385,-5.53554 -19.45061,-8.21804 -28.65079,-10.50706 -42.43762,-10.55852 -9.31097,-0.0346 -10.86146,0.37323 -27.61281,7.2656 -6.65077,2.73647 -14.19825,5.55194 -16.7722,6.25663 -17.91413,4.90442 -26.24682,9.35509 -35.98179,19.21872 -15.02311,15.22164 -22.9778,35.71068 -26.27559,67.67865 -1.1884,11.51993 -3.53248,17.82098 -11.87503,31.92072 -1.79484,3.03346 -3.75668,6.49159 -4.35969,7.68478 -2.95876,5.85465 0.8521,6.04964 12.26116,0.6274 9.99143,-4.74851 14.70528,-8.71265 21.19353,-17.82277 5.73107,-8.04697 6.75278,-8.5689 9.28191,-4.74153 2.38222,3.60502 2.79157,2.99869 6.53771,-9.68365 2.50912,-8.49443 5.01103,-14.07726 6.42615,-14.33956 0.50238,-0.0932 1.3311,0.20925 1.8416,0.67194 0.56402,0.51118 1.31703,0.71763 1.91923,0.52624 1.66697,-0.52986 4.93689,-4.51253 6.88415,-8.3847 4.264,-8.47903 5.57069,-13.92993 6.22962,-25.98697 0.54769,-10.02202 1.97102,-16.27336 5.19426,-22.81347 5.24037,-10.63299 15.61154,-17.75995 27.15405,-18.65999 4.43346,-0.3457 6.18818,0.0398 6.18818,1.35984 0,1.20783 -1.46519,2.20531 -5.05748,3.44305 -4.47092,1.54046 -6.59028,2.82965 -9.1406,5.56017 -4.52589,4.84562 -6.44225,10.84531 -7.61479,23.84017 -3.1231,34.61257 -3.72474,37.61739 -10.31578,51.52131 l -3.14789,6.64054 0.0434,5.76605 c 0.048,6.38764 0.89149,9.77721 2.433,9.77721 0.57039,0 1.66242,-1.26979 3.01847,-3.50977 2.57788,-4.25828 5.84127,-7.77163 7.21871,-7.77163 1.42262,0 1.80389,1.98741 1.10743,5.77274 -1.23694,6.72289 -0.29862,18.05354 2.70363,32.64781 2.03975,9.91563 4.6101,18.2371 5.63305,18.2371 0.24753,0 1.26815,-1.63579 2.26801,-3.6351 3.24576,-6.49011 8.36868,-12.57403 9.82754,-11.67107 0.28748,0.17792 0.52268,1.06871 0.52268,1.97951 0,0.9108 0.79102,6.14334 1.75784,11.62785 6.39712,36.28989 16.11881,58.79716 31.7624,73.53504 9.07691,8.55145 21.01368,14.58206 33.81884,17.0858 6.92902,1.35478 8.97232,1.57986 8.65413,0.95308 z m 6.43605,-105.29301 c -0.13612,-0.48258 -0.39553,-1.83109 -0.57645,-2.9967 -0.41349,-2.66385 -2.12075,-5.2447 -3.87915,-5.864 -1.14422,-0.403 -1.69723,-0.22609 -3.62321,1.15907 -1.25009,0.89905 -2.98,1.83776 -3.84426,2.08598 -5.05942,1.45314 -12.25434,-4.64257 -11.1928,-9.48281 1.05456,-4.80835 10.35628,-7.73497 16.17623,-5.08956 4.86376,2.21076 11.62561,11.7834 11.62561,16.45818 0,3.01473 -3.99155,6.19183 -4.68597,3.72984 z m -29.81221,-3.48397 c -4.65128,-5.64738 -5.94164,-16.86809 -2.73017,-23.74091 3.86951,-8.28103 13.75551,-13.50303 24.3234,-12.84814 10.36119,0.64206 22.05698,6.82922 33.20582,17.5661 3.8413,3.69936 4.23696,4.25634 4.2344,5.96089 -0.005,3.58896 -3.36379,5.05838 -6.31875,2.76468 -0.79439,-0.61665 -4.03527,-3.46165 -7.20196,-6.32226 -14.67348,-13.25522 -24.28939,-16.78425 -33.82324,-12.41314 -8.2745,3.79374 -12.01702,13.56654 -10.20145,26.63902 0.29383,2.11567 0.43245,3.94863 0.30802,4.07325 -0.12439,0.12452 -0.93265,-0.63117 -1.79607,-1.67949 z m -29.3851,-76.81262 c -4.60264,-2.81075 -7.34233,-7.47534 -7.63173,-12.99371 -0.24369,-4.64702 0.76566,-7.45684 3.87435,-10.78512 2.65706,-2.84478 5.77696,-4.5613 10.18007,-5.60095 3.46314,-0.81769 11.58439,-0.98004 14.54883,-0.29085 1.66061,0.38608 1.98392,0.30635 2.58935,-0.6387 0.3805,-0.59392 0.96404,-2.49002 1.29676,-4.21358 0.36055,-1.86776 0.86007,-3.13371 1.23651,-3.13371 0.72854,0 0.947,0.77776 1.75268,6.23998 0.41001,2.77976 0.95103,4.4609 1.79017,5.56268 1.92085,2.52205 1.41766,5.80923 -1.03202,6.74196 -0.90056,0.34289 -2.08339,0.0481 -5.10136,-1.27137 -4.52945,-1.98031 -7.20987,-2.20474 -8.68523,-0.72722 -2.05108,2.05407 -0.59422,6.01675 2.21203,6.01675 1.95488,0 2.86539,-0.5549 3.5376,-2.15596 l 0.63167,-1.50449 0.62102,1.8845 c 1.17687,3.57114 -0.35769,7.86976 -3.61691,10.1317 -1.74827,1.21334 -2.53625,1.42145 -5.38194,1.42145 -2.72912,0 -3.66923,-0.22735 -5.18314,-1.25348 -1.98259,-1.34381 -4.33557,-5.37936 -4.33557,-7.43586 0,-2.31246 1.16728,-5.11632 2.85411,-6.85573 1.57921,-1.62845 1.6065,-1.71098 0.41592,-1.25767 -4.17454,1.5895 -6.89412,4.24715 -7.80225,7.62464 -0.97478,3.62534 0.40051,8.47894 3.52035,12.42384 0.8319,1.05189 1.51253,2.16209 1.51253,2.46712 0,0.86637 -2.09335,0.64831 -3.8038,-0.39622 z m 102.42802,21.77516 c 0.2583,-0.68038 1.15391,-5.93248 1.99025,-11.67135 2.72138,-18.6736 1.85416,-26.88213 -3.28854,-31.12737 -1.51826,-1.25332 -4.48753,-2.71207 -3.49294,-1.71602 0.16951,0.16974 -0.37317,0.59555 -1.20594,0.94621 -3.77646,1.59021 -2.48736,7.00259 1.57394,6.60839 1.20698,-0.11716 1.9399,-0.60105 2.75773,-1.82072 l 1.11386,-1.66117 0.34053,1.81783 c 1.2028,6.42081 -2.91339,11.7831 -9.04488,11.7831 -5.25558,0 -9.26226,-4.05939 -9.26226,-9.38408 0,-4.43308 3.36092,-8.45295 7.57599,-9.06134 l 2.18692,-0.31567 -2.25298,-0.3595 c -1.23913,-0.19771 -4.05536,-0.37587 -6.25829,-0.39588 -4.54641,-0.0413 -7.02198,0.87217 -8.21781,3.03233 -1.33619,2.41371 0.20269,5.01827 7.10617,12.02725 7.05788,7.16574 8.24639,9.19208 11.14386,18.99968 2.88781,9.77492 4.57112,13.53534 6.05896,13.53534 0.38819,0 0.91714,-0.55667 1.17543,-1.23703 z M 218.59013,470.20426 c -1.06316,-2.53 -3.22106,-9.37805 -3.7699,-11.96377 -0.97583,-4.59729 -0.91282,-10.9989 0.11839,-12.03319 1.31032,-1.31416 3.08445,-0.27221 7.90266,4.64117 10.02584,10.22395 17.67155,13.98221 29.63387,14.56659 l 5.83671,0.28514 2.85096,-4.42579 c 14.50679,-22.52031 33.20071,-38.82676 52.56435,-45.85119 5.74491,-2.08404 8.10449,-3.27935 8.70991,-4.41225 0.69246,-1.29577 0.18492,-1.83841 -3.71757,-3.97468 -1.91393,-1.04772 -3.54889,-2.26375 -3.63323,-2.70231 -0.42576,-2.21407 11.8975,-5.06636 28.93094,-6.69625 9.18625,-0.879 11.52172,-1.22332 11.50159,-1.69576 -0.007,-0.17613 -1.8571,-1.22277 -4.11021,-2.32582 -6.48914,-3.17692 -6.74255,-4.88897 -0.97723,-6.60232 3.83328,-1.13919 14.65169,-1.11831 21.12229,0.0408 10.40093,1.8631 21.8378,6.68368 33.78081,14.23844 16.03384,10.1425 18.76243,11.5338 24.75347,12.62177 6.62337,1.20282 12.45539,-1.3361 20.77562,-9.04447 6.73481,-6.23952 10.44475,-8.26107 12.82222,-6.98683 0.7574,0.40595 0.99105,1.05197 0.99105,2.74023 0,1.21663 0.28115,2.39127 0.62582,2.61467 0.34422,0.22311 4.09083,0.40564 8.32583,0.40564 8.24219,0 7.65474,-0.1677 8.95365,2.55619 0.21015,0.44074 1.95622,1.306 3.88012,1.9228 4.07135,1.30527 8.86236,3.66405 12.76028,6.28231 3.97205,2.66807 4.23498,2.80693 3.74206,1.97641 -8.00339,-13.48545 -23.8178,-31.67343 -34.53279,-39.71584 -5.18598,-3.89244 -14.04111,-8.45084 -18.77484,-9.66477 -4.64975,-1.19239 -11.88836,-1.09165 -16.02118,0.22296 -3.76431,1.19739 -8.74407,4.02467 -10.42544,5.91911 -1.03874,1.17035 -1.0821,1.39181 -0.4052,2.06969 0.6769,0.6779 1.1228,0.63054 4.16717,-0.44255 2.7991,-0.98663 4.39466,-1.20241 8.91645,-1.20585 8.92676,-0.007 9.59588,1.01859 1.7774,2.72373 -8.57947,1.87112 -14.38269,5.62921 -17.66021,11.4365 -0.8171,1.44779 -1.57563,2.63234 -1.68565,2.63234 -0.11006,0 -1.57701,-1.11124 -3.26002,-2.4694 -15.9942,-12.90715 -32.40315,-21.40606 -47.68827,-24.69988 -4.11111,-0.88592 -6.65698,-1.08946 -13.34153,-1.06668 -7.58075,0.0258 -8.75561,0.15696 -14.26889,1.59242 -7.83061,2.03882 -17.19216,6.63859 -24.02112,11.80268 -9.19499,6.9533 -18.25531,16.70902 -29.1509,31.38831 -10.00308,13.47682 -21.50172,22.45084 -34.21983,26.7066 -11.42316,3.82244 -21.7424,2.89804 -30.33135,-2.71709 -5.07115,-3.31533 -6.38745,-3.93511 -8.35751,-3.93511 -2.14278,0 -2.66623,0.62656 -3.37969,4.04535 -0.3126,1.49792 -0.73903,2.90721 -0.94761,3.13177 -1.0007,1.07726 -5.49908,-5.83022 -7.22342,-11.09187 -1.97236,-6.01854 -2.47203,-10.05768 -2.14775,-17.36168 0.80556,-18.14389 8.24773,-35.6632 22.89562,-53.89761 4.92653,-6.13275 13.24423,-14.12139 18.02902,-17.3157 5.42161,-3.61946 5.9817,-4.19474 5.9817,-6.14378 0,-1.39889 -0.47356,-2.13585 -2.75364,-4.28524 -1.5145,-1.4277 -2.75363,-2.75637 -2.75363,-2.95264 0,-0.59753 1.46258,-0.88026 8.76158,-1.69367 3.85509,-0.42962 12.86701,-0.91425 20.02648,-1.07694 13.90933,-0.31607 20.44435,0.0842 31.25941,1.91455 7.68513,1.30064 18.67774,1.13414 22.79137,-0.34525 l 2.48258,-0.8928 -4.20526,-1.11443 c -2.91552,-0.77263 -8.05318,-3.05529 -16.75145,-7.44263 -14.07041,-7.097 -18.03104,-8.41345 -28.15022,-9.3565 -5.27174,-0.4913 -18.3926,0.064 -19.13743,0.8099 -0.12521,0.12534 0.71254,1.03381 1.86157,2.01879 1.14905,0.98498 2.08918,2.19692 2.08918,2.69319 0,1.96956 -0.75693,2.13426 -16.1982,3.52446 -10.84061,0.97601 -24.50936,4.51977 -33.52663,8.69211 -6.64292,3.07371 -6.63346,3.18108 0.25828,2.935 6.61373,-0.23614 10.80145,0.40683 12.1147,1.8601 0.74988,0.82983 0.74398,0.95941 -0.0776,1.70406 -0.48909,0.44327 -4.152,1.96644 -8.13982,3.38483 -19.24929,6.84667 -28.13017,13.2471 -35.10999,25.30362 -6.25633,10.80684 -11.44673,31.01888 -11.4396,44.54714 0.007,11.97398 3.45064,26.81761 9.61626,41.44215 1.93656,4.59342 4.85844,10.02729 5.39246,10.02846 0.14219,3.2e-4 0.18172,-2.36833 0.0878,-5.26366 -0.27347,-8.43294 1.73958,-16.18323 4.70792,-18.1256 1.75825,-1.15055 2.60806,0.0852 4.18832,6.09057 3.69034,14.02411 9.60295,25.7742 16.52623,32.84247 4.15443,4.24145 8.77053,6.99235 7.78069,4.63681 z m 344.89682,-19.31503 c 3.67336,-1.74705 8.2595,-5.13611 11.2855,-8.33981 0.9362,-0.99117 3.80805,-4.4476 6.3819,-7.68095 4.91221,-6.17089 6.63956,-7.72548 8.00218,-7.20184 0.6873,0.26414 0.77029,0.79248 0.50086,3.18886 -0.17761,1.57975 -0.46733,4.33885 -0.64384,6.13134 l -0.32091,3.25907 1.14705,-1.0028 c 3.20982,-2.80612 10.37329,-16.32802 13.25715,-25.02442 2.97288,-8.96486 3.93324,-15.97144 3.61426,-26.36858 -0.30451,-9.92483 -1.38603,-15.64619 -4.59753,-24.3215 -6.16066,-16.64197 -18.47285,-32.40457 -33.09941,-42.37529 -10.13216,-6.90696 -18.73341,-10.11251 -27.23528,-10.15012 -4.29433,-0.0191 -5.19395,0.15172 -9.26225,1.75773 -9.55306,3.77119 -21.30026,6.10384 -37.54968,7.45632 l -7.50993,0.62505 2.25298,1.0073 c 1.98937,0.88942 3.80532,1.05016 15.52053,1.37382 13.60199,0.37577 17.91416,0.8128 24.62258,2.49544 9.31676,2.33689 19.80828,6.97782 27.83509,12.31288 5.15301,3.42497 12.10284,10.16554 15.11625,14.66112 4.2974,6.4111 8.02608,16.15906 8.02608,20.98275 0,1.9154 -0.12453,2.14101 -1.18117,2.14101 -0.66506,0 -2.17526,-0.87632 -3.45629,-2.00558 -2.79137,-2.46066 -3.45042,-2.54225 -3.03742,-0.37604 0.42354,2.22154 4.14372,13.10811 6.46797,18.92766 1.76807,4.42693 1.90435,5.13498 1.93016,10.02792 0.0209,3.95587 -0.20036,5.85671 -0.88983,7.64626 -1.22585,3.18181 -2.27448,3.12459 -4.09403,-0.22341 -0.77866,-1.43277 -2.57328,-3.80185 -3.98803,-5.26464 -3.94125,-4.07508 -4.78504,-3.70364 -6.56936,2.8919 -0.70337,2.59989 -2.38316,7.05793 -3.73286,9.90675 -4.20546,8.87651 -10.70454,14.1785 -19.19068,15.65588 -6.1821,1.07625 -14.79452,-0.46335 -22.71775,-4.06118 l -3.34967,-1.52101 1.48926,1.56745 c 2.20707,2.32299 7.11401,5.91128 10.24749,7.49369 6.01113,3.03558 8.97541,3.63734 19.52374,3.9634 l 9.7575,0.30163 0.69052,1.44562 c 0.89275,1.86897 0.16941,4.54066 -2.21973,8.19853 -0.94283,1.44353 -1.71425,2.83329 -1.71425,3.08833 0,0.71097 4.6857,-0.68574 8.69085,-2.59054 z"
       id="path2996"
       inkscape:connector-curvature="0" />
    <g
       transform="matrix(0.61472303,0,0,0.61472303,74.163301,378.10798)"
       id="g4251">
      <path
         id="path106"
         d="m 154.23535,558.54232 c -27.985,-40.27875 -33.4425,-171.23 31.85875,-251.7875 32.3575,-38.6475 40.6125,-65.58125 43.16375,-101.74125 1.73625,-41.22375 -29.15625,-164.3025 87.35375,-173.68 118.0075,-9.415 111.67,107.075 110.99125,168.71875 -0.56375,52.05 38.2175,81.55125 64.745,122.11875 49.09875,74.5375 44.94625,202.875 -9.24875,272.34 -68.64625,86.96 -127.44125,49.2475 -166.4875,52.4125 -73.11625,4.0025 -75.53375,42.98875 -162.37625,-88.38125 z"
         style="fill:#000000;stroke:none;stroke-width:1.25"
         inkscape:connector-curvature="0" />
      <path
         id="path113"
         d="m 439.28553,329.78826 c 20.26561,18.65516 73.00993,102.62419 -10.3928,154.86471 -29.40144,18.19192 26.21387,87.87889 52.91791,54.124 47.12477,-60.59692 17.07201,-157.10124 -11.19745,-191.68021 -19.19669,-24.51234 -48.55112,-34.01039 -31.32766,-17.3085 z"
         style="fill:url(#linearGradient1401);stroke:none;stroke-width:0.99464899"
         inkscape:connector-curvature="0" />
      <path
         id="path111"
         d="m 433.55422,318.33735 c 33.40841,26.9961 94.23805,122.03786 5.51578,183.77219 -29.13904,19.24788 25.82253,79.93997 56.68442,48.89529 107.30113,-107.91127 -2.79984,-231.99551 -40.70072,-274.65414 -33.87309,-37.09849 -63.87775,8.76456 -21.49948,41.98666 z"
         style="fill:#000000;stroke:#000000;stroke-width:1.5625006"
         inkscape:connector-curvature="0" />
      <path
         d="m 385.47862,90.159699 a 55.501609,74.465629 79.82218 1 1 -147.83137,8.33181 55.501609,74.465629 79.82218 0 1 147.83137,-8.33181 z"
         id="path114"
         style="fill:url(#linearGradient1403);stroke:none;stroke-width:1.26498997"
         inkscape:connector-curvature="0" />
      <path
         d="m 287.71976,163.7741 a 36.485586,23.63373 86.731112 0 1 -47.18842,2.73239 36.485586,23.63373 86.731112 1 1 47.18842,-2.73239 z"
         id="path115"
         style="fill:url(#linearGradient1405);stroke:none;stroke-width:1.17873001"
         inkscape:connector-curvature="0" />
      <path
         d="m 311.37019,165.31465 a 42.154029,32.763435 89.433792 1 0 65.50634,-1.79105 42.154029,32.763435 89.433792 0 0 -65.50634,1.79105 z"
         id="path116"
         style="fill:url(#linearGradient1407);stroke:none;stroke-width:0.93138498"
         inkscape:connector-curvature="0" />
      <path
         d="m 326.35673,170.57675 a 14.884874,23.142052 2.00318 1 0 29.77908,0.0637 14.884874,23.142052 2.00318 0 0 -29.77908,-0.0637 z"
         id="path117"
         style="fill:#000000;stroke:none;stroke-width:1.86495996"
         inkscape:connector-curvature="0" />
      <path
         d="m 274.23111,170.71142 a 19.243569,10.825565 85.064337 0 1 -21.50167,2.6153 19.243569,10.825565 85.064337 1 1 21.50167,-2.6153 z"
         id="path118"
         style="fill:#000000;stroke:none;stroke-width:2.39814997"
         inkscape:connector-curvature="0" />
      <path
         d="m 329.77908,163.27037 a 8.7088649,12.968723 6.6703631 1 0 17.37567,1.31872 8.7088649,12.968723 6.6703631 0 0 -17.37567,-1.31872 z"
         id="path121"
         style="fill:url(#linearGradient1409);stroke:none;stroke-width:3.1916101"
         inkscape:connector-curvature="0" />
      <path
         d="m 269.20611,165.10351 a 10.87128,6.4971253 84.416722 0 1 -12.9112,1.4767 10.87128,6.4971253 84.416722 0 1 12.9112,-1.4767 z"
         id="path122"
         style="fill:url(#linearGradient1411);stroke:none;stroke-width:4.12025976"
         inkscape:connector-curvature="0" />
      <path
         id="path128"
         d="m 198.0791,386.79857 c 16.045,-36.37875 50.1425,-100.2825 50.86875,-149.6975 0,-39.3025 117.72375,-48.68875 127.17125,-9.4475 9.4475,39.24125 33.42625,98.10375 48.6875,126.445 15.26,28.34 59.76125,118.36875 12.355,196.9325 -42.69625,69.555 -172.15625,124.5825 -241.2625,-9.44625 -23.25375,-46.50875 -19.10625,-104.14375 2.18,-154.78625 z"
         style="fill:url(#linearGradient1413);stroke:none;stroke-width:1.25"
         inkscape:connector-curvature="0" />
      <path
         id="path112"
         d="m 183.5722,359.80235 c -13.70973,25.94872 -42.23814,94.19315 27.29298,131.53138 74.84844,39.6412 74.48854,121.22637 -15.35126,82.40762 -82.13287,-35.08728 -45.82235,-176.86876 -22.85138,-210.79211 15.06152,-23.75981 37.65051,-52.84247 10.90966,-3.14689 z"
         style="fill:url(#linearGradient1415);stroke:none;stroke-width:1.15804005"
         inkscape:connector-curvature="0" />
      <path
         id="path109"
         d="m 195.34285,330.39232 c -21.83125,35.635 -74.22125,119.76625 -4.11,163.40375 94.46125,57.94375 67.71625,115.88875 -18.49875,63.7175 -121.38625,-72.83 -14.78125,-219.52 33.91375,-275.4225 55.555,-62.75 10.6925,11.35875 -11.305,48.30125 z"
         style="fill:#000000;stroke:#000000;stroke-width:1.5625"
         inkscape:connector-curvature="0" />
      <path
         id="path125"
         d="m 408.0958,400.60708 c 0,39.7128 -38.11478,91.30073 -103.55262,90.83758 -67.48472,0.55749 -96.28825,-51.12478 -96.28825,-90.83758 0,-39.71281 44.76455,-71.94301 99.92108,-71.94301 55.15523,0 99.91979,32.2302 99.91979,71.94301 z"
         style="font-size:12px;fill:url(#linearGradient1417);stroke:none;stroke-width:1.23705006;stroke-dasharray:none"
         inkscape:connector-curvature="0" />
      <path
         id="path127"
         d="m 372.4864,275.61787 c -0.72632,41.15941 -27.51002,50.86877 -61.40503,50.86877 -33.89619,0 -58.49974,-6.07596 -61.40622,-50.86877 0,-28.07915 27.51003,-44.32864 61.40622,-44.32864 33.89501,0 61.40503,16.24949 61.40503,44.32864 z"
         style="font-size:12px;fill:url(#linearGradient1419);stroke:none;stroke-width:1.38846004;stroke-dasharray:none"
         inkscape:connector-curvature="0" />
      <path
         id="path129"
         d="m 167.55785,338.83607 c 22.145,-33.745 68.76875,-85.455 8.72125,7.26625 -48.68875,76.30375 -18.00375,125.34125 -2.18,138.79875 45.65875,40.7025 43.7075,67.93625 7.99375,46.5075 -77.03125,-45.7825 -61.04375,-122.81 -14.535,-192.5725 z"
         style="fill:url(#linearGradient1421);stroke:none;stroke-width:1.25"
         inkscape:connector-curvature="0" />
      <path
         id="path131"
         d="m 488.0291,352.64232 c -19.14875,-39.62625 -80.1675,-139.8775 2.9075,-23.25375 75.57625,105.37125 22.5275,178.76625 13.08,186.03375 -9.44625,7.26625 -41.42125,21.8 -31.97375,-3.63375 9.44625,-25.43375 56.5425,-73.71625 15.98625,-159.14625 z"
         style="fill:url(#linearGradient1423);stroke:none;stroke-width:1.25"
         inkscape:connector-curvature="0" />
      <path
         id="path132"
         d="m 150.84535,664.39357 c -50.5525,-26.77 -124.065,5.155 -97.3775,-67.5825 5.345,-16.5475 -7.96875,-41.26 0.72625,-57.4075 10.17375,-19.6225 31.975,-15.26125 45.05625,-28.3425 12.8975,-13.61375 21.07375,-37.06125 45.055,-33.4275 23.98,3.63375 39.93125,33.07625 56.68,69.03625 12.35375,25.7975 56.17625,62.08 53.3125,90.9475 -3.37,44.375 -53.78375,52.7375 -103.4525,26.77625 z"
         style="fill:url(#linearGradient1425);stroke:#e68c3f;stroke-width:7.8125"
         inkscape:connector-curvature="0" />
      <path
         id="path177"
         d="m 519.3177,493.685 c -7.76685,14.56468 -39.78514,37.67639 -61.1235,31.65243 -21.77317,-5.90824 -31.57846,-38.86485 -27.31463,-63.80719 3.95824,-28.0889 27.31396,-29.48496 56.60287,-15.62952 31.48864,15.33666 41.01103,28.48142 31.83526,47.78428 z"
         style="font-size:12px;fill:url(#linearGradient1427);stroke:none;stroke-width:2.85509992;stroke-dasharray:none"
         inkscape:connector-curvature="0" />
      <path
         id="path133"
         d="m 501.64469,651.91444 c 37.07867,-44.96447 119.3901,-35.74105 63.87893,-97.39264 -11.74501,-13.21733 -8.23927,-41.87176 -22.50706,-53.97499 -16.97141,-14.84074 -35.69264,-2.6696 -52.89483,-10.43081 -17.23289,-8.31961 -35.24454,-24.49353 -56.28056,-12.98948 -21.03486,11.50363 -23.29814,41.43139 -25.28193,80.6095 -1.7394,28.22067 -27.45535,75.41128 -13.80213,101.34128 20.02282,40.20889 71.53459,34.88527 106.88758,-7.16286 z"
         style="fill:url(#linearGradient1429);stroke:#e68c3f;stroke-width:7.81249762"
         inkscape:connector-curvature="0" />
      <path
         id="path134"
         d="m 485.519,591.80919 c 57.39446,-84.7208 14.61817,-84.10376 0.28978,-90.51162 -14.37011,-6.86566 -29.61147,-20.17173 -46.51035,-10.79772 -16.89793,9.37366 -17.86494,33.89995 -18.32847,66.00967 -0.5883,23.12835 -19.95088,61.5701 -8.30509,83.03449 13.96907,25.01949 47.87108,-11.31919 72.85413,-47.73482 z"
         style="fill:url(#linearGradient1431);stroke:none;stroke-width:1.52532005"
         inkscape:connector-curvature="0" />
      <path
         id="path135"
         d="m 139.09671,604.00879 c -85.903401,-55.60941 -45.718582,-74.489 -32.67804,-83.22366 15.63836,-11.202 15.75979,-33.03407 34.9769,-30.99719 19.2161,2.03695 30.40316,25.69491 43.35935,55.07847 9.56649,21.06544 42.39441,48.90456 40.04731,73.21176 -3.09899,28.48707 -48.49327,9.71108 -85.70552,-14.06938 z"
         style="fill:url(#linearGradient1433);stroke:none;stroke-width:1.52532005"
         inkscape:connector-curvature="0" />
      <path
         id="path136"
         d="m 514.16393,492.89388 c -6.6941,11.67297 -34.29008,30.19601 -52.68126,25.36805 -18.76593,-4.73521 -27.217,-31.14855 -23.54212,-51.13877 3.4115,-22.51207 23.54139,-23.63094 48.78503,-12.52638 27.13955,12.29171 35.34675,22.82668 27.43835,38.2971 z"
         style="font-size:12px;fill:#000000;stroke:none;stroke-width:2.85509992"
         inkscape:connector-curvature="0" />
      <path
         id="path137"
         d="m 495.67359,486.35579 c -4.26544,8.10501 -22.45249,20.96628 -34.92302,17.61403 -12.72075,-3.28785 -18.94415,-21.62768 -16.87926,-35.50768 1.83631,-15.63103 15.35536,-16.4079 32.56358,-8.69755 18.50784,8.53462 24.24366,15.84947 19.2387,26.5912 z"
         style="font-size:12px;fill:url(#linearGradient1435);stroke:none;stroke-width:2.85509992"
         inkscape:connector-curvature="0" />
      <path
         id="path119"
         d="m 262.1441,191.65357 c 8.93375,-8.4625 31.01375,-33.8325 72.45125,-7.19375 7.7025,5.0125 13.9525,5.47125 28.77625,11.81875 29.6575,12.18625 15.4775,41.57375 -15.93,51.385 -13.4475,4.36125 -25.67,20.695 -50.16125,19.29875 -20.9175,-1.22125 -26.39875,-14.8425 -39.2475,-22.3825 -22.83625,-12.88875 -26.20625,-30.3175 -13.875,-39.56625 12.3325,-9.24875 17.15625,-12.57375 17.98625,-13.36 z"
         style="fill:url(#linearGradient1437);stroke:#e68c3f;stroke-width:4.6875"
         inkscape:connector-curvature="0" />
      <path
         id="path120"
         d="m 363.76535,215.29857 c -12.35375,0.72625 -39.24125,27.61375 -67.5825,27.61375 -28.34125,0 -45.055,-26.16125 -49.415,-26.16125"
         style="fill:none;stroke:#e68c3f;stroke-width:3.125"
         inkscape:connector-curvature="0" />
      <path
         id="path123"
         d="m 276.22907,189.33397 c 4.48749,-4.03266 18.64253,-15.09894 37.41441,-3.76938 3.95505,2.24328 8.03944,4.68492 14.1136,8.02005 12.03153,6.99789 6.07227,17.08251 -8.34208,23.46328 -6.54131,2.67752 -17.32523,8.58653 -25.53671,8.17314 -9.12506,-0.8387 -15.02843,-6.79 -21.07622,-10.666 -11.09473,-7.32848 -10.42101,-13.24582 -5.26733,-18.17258 3.89603,-3.38278 8.27741,-6.67384 8.69433,-7.04851 z"
         style="fill:url(#linearGradient1439);stroke:none"
         inkscape:connector-curvature="0" />
    </g>
  </g>
</svg>
