<?xml version="1.0" encoding="UTF-8" standalone="no"?>
<!-- Created with Inkscape (http://www.inkscape.org/) -->

<svg
   xmlns:dc="http://purl.org/dc/elements/1.1/"
   xmlns:cc="http://creativecommons.org/ns#"
   xmlns:rdf="http://www.w3.org/1999/02/22-rdf-syntax-ns#"
   xmlns:svg="http://www.w3.org/2000/svg"
   xmlns="http://www.w3.org/2000/svg"
   xmlns:sodipodi="http://sodipodi.sourceforge.net/DTD/sodipodi-0.dtd"
   xmlns:inkscape="http://www.inkscape.org/namespaces/inkscape"
   width="144.49777mm"
   height="144.49777mm"
   viewBox="0 0 511.99998 511.99998"
   id="svg5807"
   version="1.1"
   inkscape:version="0.91 r13725"
   sodipodi:docname="icon-gnu.svg">
  <defs
     id="defs5809" />
  <sodipodi:namedview
     id="base"
     pagecolor="#ffffff"
     bordercolor="#666666"
     borderopacity="1.0"
     inkscape:pageopacity="0.0"
     inkscape:pageshadow="2"
     inkscape:zoom="0.98994949"
     inkscape:cx="75.874557"
     inkscape:cy="255.07574"
     inkscape:document-units="px"
     inkscape:current-layer="layer1"
     showgrid="false"
     fit-margin-top="0"
     fit-margin-left="0"
     fit-margin-right="0"
     fit-margin-bottom="0"
     inkscape:window-width="1920"
     inkscape:window-height="1102"
     inkscape:window-x="0"
     inkscape:window-y="25"
     inkscape:window-maximized="1" />
  <metadata
     id="metadata5812">
    <rdf:RDF>
      <cc:Work
         rdf:about="">
        <dc:format>image/svg+xml</dc:format>
        <dc:type
           rdf:resource="http://purl.org/dc/dcmitype/StillImage" />
        <dc:title />
      </cc:Work>
    </rdf:RDF>
  </metadata>
  <g
     inkscape:label="Layer 1"
     inkscape:groupmode="layer"
     id="layer1"
     transform="translate(-101.23103,-290.31521)">
    <path
       style="fill:#46637d;fill-opacity:1"
       d="m 400.59989,768.3838 c -13.21702,-1.9351 -22.15111,-4.6078 -32.61599,-9.7574 -18.02064,-8.8677 -31.73691,-21.4971 -39.45591,-36.3295 l -2.34116,-4.4986 -1.50941,3.1926 c -2.1069,4.4564 -2.58932,4.7611 -5.47682,3.46 -3.67883,-1.6577 -8.30651,-6.63778 -10.93287,-11.76543 -2.81957,-5.50483 -4.69227,-11.36354 -6.68082,-20.90075 -1.74094,-8.34968 -2.2591,-9.96293 -3.10888,-9.67926 -0.33644,0.11231 -1.66342,2.22367 -2.94885,4.69192 -2.8137,5.40278 -3.75153,5.77621 -7.03827,2.8025 -5.0936,-4.6085 -7.94214,-11.63556 -9.67452,-23.86605 -1.56491,-11.0481 -1.62704,-11.33625 -2.44424,-11.33625 -0.40815,0 -1.56961,1.90069 -2.581,4.22376 -1.01139,2.32307 -2.17982,4.22376 -2.5965,4.22376 -1.15762,0 -6.2183,-10.94054 -7.55451,-16.33188 -1.69729,-6.84816 -2.07702,-19.52016 -0.85225,-28.43998 0.51036,-3.71691 1.07653,-7.25063 1.25815,-7.8527 0.21027,-0.69707 -1.31183,0.2769 -4.19044,2.68139 -17.65808,14.74967 -48.60659,25.82301 -72.38437,25.89904 -10.54805,0.0337 -15.87115,-1.69257 -17.53793,-5.68758 -1.30828,-3.13573 0.0861,-6.15742 6.03116,-13.07006 9.29009,-10.80202 15.21447,-20.74988 19.95519,-33.5075 1.75983,-4.73584 7.16372,-24.92027 8.3303,-31.11504 l 0.34468,-1.83029 -4.90646,-0.01 c -14.46977,-0.0288 -31.01558,-3.69171 -43.18191,-9.55963 -27.33368,-13.18326 -45.31948,-39.52352 -52.52683,-76.92565 -7.12958,-36.99888 -2.36708,-67.9127 14.30801,-92.87402 18.36434,-27.49003 50.52324,-46.07448 88.8467,-51.34402 8.64348,-1.18849 25.31211,-1.16379 33.0912,0.049 12.43842,1.93926 20.16367,4.9628 29.96662,11.72845 3.37136,2.3268 7.46155,4.90108 9.08931,5.72062 4.46884,2.24996 12.24569,4.67679 17.28484,5.39387 7.02591,0.9998 8.154,1.47886 8.154,3.46269 0,6.5552 -8.71807,11.02108 -25.19701,12.9073 -5.5621,0.63666 -10.66581,0.58271 -33.84919,-0.3578 -7.33931,-0.29773 -9.78294,-0.17159 -15.46771,0.79847 -17.07523,2.91374 -32.32785,10.87302 -44.97224,23.4679 -11.48123,11.43626 -18.84592,23.77449 -22.66565,37.9723 -1.24762,4.63735 -1.4537,6.57344 -1.47307,13.83916 -0.0208,7.79494 0.0975,8.79557 1.53127,12.95287 6.79267,19.6958 26.773,26.59946 47.33851,16.35652 9.63907,-4.80087 18.41855,-12.77258 27.01699,-24.53119 17.47251,-23.89422 27.32535,-33.83077 42.73795,-43.10106 27.49244,-16.53599 58.27867,-13.94563 83.37556,7.01524 3.14717,2.6285 3.66261,2.87763 4.57464,2.21099 0.56531,-0.4132 2.63856,-1.9317 4.6072,-3.37444 13.45438,-9.86013 30.18357,-14.16575 45.47405,-11.70372 9.26545,1.49189 21.74459,6.998 31.21013,13.77069 9.76476,6.98678 16.52766,13.97362 33.82941,34.94962 11.99475,14.54199 19.49323,21.38481 28.30969,25.83434 5.34154,2.6958 9.26704,3.83588 13.44819,3.90575 15.73303,0.26294 28.17197,-22.1255 28.16306,-50.68976 -0.005,-16.48062 -4.43059,-30.37545 -12.33004,-38.71332 -8.37677,-8.84167 -18.53243,-14.07001 -31.84639,-16.39518 -2.5991,-0.45391 -9.85443,-1.0867 -16.12295,-1.40622 -14.39486,-0.73372 -20.61701,-1.50042 -24.96083,-3.07566 -6.37871,-2.31318 -12.00429,-6.38863 -14.01146,-10.15059 -1.04117,-1.95142 -1.04884,-2.11147 -0.13351,-2.78701 0.61456,-0.45357 3.918,-0.84992 8.99752,-1.07954 15.59709,-0.70504 27.90206,-3.33108 49.35876,-10.53379 15.84044,-5.31742 20.61918,-6.16141 29.02738,-5.12659 13.38124,1.64687 25.12822,7.74692 36.9821,19.20431 21.02932,20.32594 34.13964,50.15482 35.03382,79.70973 0.55728,18.41927 -2.12828,28.04139 -15.01879,53.81101 -10.22553,20.44201 -19.35633,30.9454 -32.51274,37.40025 -7.27758,3.57056 -14.63214,5.56707 -27.22216,7.3899 -3.94344,0.57094 -7.16989,1.25079 -7.16989,1.51077 0,1.47957 7.20886,11.03481 11.79847,15.6387 6.11859,6.13762 10.51684,8.77011 17.72463,10.60873 4.53155,1.15595 7.02931,2.90676 7.02931,4.92722 0,3.15285 -5.7551,7.75981 -13.00284,10.40879 -7.06377,2.58173 -13.57592,3.49752 -22.42488,3.15356 -17.52485,-0.6812 -32.75395,-7.73608 -46.39345,-21.49177 -3.40218,-3.43117 -6.81843,-7.18254 -7.59165,-8.33638 -0.77322,-1.15384 -1.5582,-2.09963 -1.74438,-2.10175 -0.18619,-0.002 -0.49281,2.21363 -0.68139,4.92388 -0.18858,2.71025 -1.36107,9.10101 -2.60554,14.20171 l -2.26266,9.27399 1.81936,1.88969 c 6.54538,6.79835 16.0576,9.79385 25.13674,7.91584 4.49649,-0.93009 6.75189,-0.3249 10.13221,2.71874 4.92927,4.43833 7.5043,11.1683 7.5043,19.61287 0,9.95237 -2.81898,15.92263 -11.41578,24.17726 -9.38856,9.01487 -11.73481,11.60636 -13.23182,14.61488 -2.55003,5.12473 -1.65376,8.13581 3.87859,13.03029 4.60578,4.07474 5.49626,6.27019 4.06524,10.02275 -0.51764,1.3574 -1.83426,3.51291 -2.92582,4.79003 -2.39096,2.79739 -10.61102,8.40774 -14.96912,10.21671 l -3.1524,1.30851 1.61382,2.23108 c 3.70092,5.11646 4.91611,12.55994 3.06795,18.79246 -1.75686,5.92466 -7.66382,12.03695 -12.513,12.948 -1.40676,0.2643 -3.17243,0.0115 -5.76862,-0.82586 -4.38352,-1.41389 -7.40506,-1.52299 -10.62911,-0.38382 -3.56553,1.25984 -6.06925,3.4868 -7.72078,6.86733 -1.41039,2.887 -1.49571,3.5129 -1.41304,10.3662 0.15201,12.6023 -2.24156,19.8815 -8.59948,26.1522 -6.23656,6.1512 -14.61603,9.2081 -26.19133,9.5549 -3.86612,0.1159 -7.78848,0.1 -8.71635,-0.036 z m 10.28269,-20.9227 c -5.09506,-10.0369 -5.5296,-16.8968 -1.60269,-25.3007 1.91623,-4.10082 6.48017,-9.00353 10.10586,-10.85592 5.896,-3.01233 17.34902,-4.52419 34.35572,-4.53516 16.20731,-0.0105 21.03046,-1.78494 22.53571,-8.29113 0.65281,-2.82171 -0.58944,-7.10541 -2.85434,-9.84273 -0.9895,-1.1959 -3.33459,-2.87853 -5.49422,-3.94218 -3.68757,-1.81618 -3.92375,-1.8552 -11.08629,-1.83135 -7.31136,0.0244 -7.3266,0.0272 -15.75361,2.91695 -10.73721,3.68199 -14.48532,4.32965 -22.72478,3.92677 -7.85685,-0.38418 -11.49821,-1.31818 -18.88874,-4.8449 -13.333,-6.36244 -25.80373,-19.18542 -30.08573,-30.93556 -1.42867,-3.92037 -1.90533,-6.44682 -1.74372,-9.24226 0.10864,-1.8793 1.09117,-0.96529 3.32962,3.09742 8.63453,15.67137 22.81991,28.4492 35.8439,32.28727 3.91737,1.15442 10.34658,1.26951 15.14973,0.2712 1.85573,-0.3857 8.29675,-2.0735 14.31335,-3.75067 6.01661,-1.67716 13.10215,-3.46979 15.74565,-3.98362 5.21679,-1.01401 15.75598,-1.29278 22.52023,-0.59567 7.48185,0.77105 12.15333,-1.98194 12.03679,-7.09351 -0.0686,-3.00877 -1.62474,-6.00909 -5.28073,-10.18151 -3.26033,-3.72088 -3.94434,-5.12197 -3.94434,-8.07947 0,-4.60713 3.77805,-9.01184 17.38036,-20.26327 7.95362,-6.579 10.5944,-12.39586 10.04012,-22.11548 -0.33626,-5.89634 -1.92727,-9.89052 -5.07366,-12.73727 l -2.26191,-2.04648 -3.71607,0.45064 c -2.04384,0.24786 -5.86705,0.46078 -8.49601,0.47317 -4.13062,0.0195 -5.2281,-0.19492 -8.0791,-1.5783 -8.82626,-4.28272 -17.42289,-16.01429 -22.55507,-30.78026 -2.84015,-8.17147 -6.47236,-14.80044 -14.2902,-26.08031 -9.94047,-14.34246 -10.6064,-15.8768 -8.78528,-20.24175 0.46079,-1.10444 1.00489,-4.18505 1.20912,-6.84581 0.20422,-2.66076 0.54919,-4.94784 0.76659,-5.08241 0.21741,-0.13456 1.00185,0.6912 1.7432,1.83501 2.12924,3.28514 3.11402,3.53113 9.10284,2.27386 7.48317,-1.57101 14.16211,-1.2275 18.67528,0.9605 1.85574,0.89966 3.6012,1.74484 3.8788,1.87818 1.30975,0.62907 -0.31067,-7.63636 -3.24651,-16.55985 -1.73957,-5.28738 -3.16284,-10.30049 -3.16284,-11.14024 0,-3.48297 3.58292,-1.99773 7.90452,3.27667 5.11013,6.23679 6.86276,10.37007 10.99278,25.9245 4.80968,18.11421 8.47472,27.15737 13.97606,34.48466 4.74067,6.31417 7.43022,7.21327 11.39947,3.81077 1.26467,-1.0841 2.52751,-1.97109 2.80631,-1.97109 0.2788,0 3.02908,2.4709 6.11172,5.49089 8.59852,8.42374 14.52339,11.39553 23.5692,11.8218 3.92011,0.18473 5.31466,0.0471 6.1858,-0.61067 1.09725,-0.82846 1.08354,-0.8643 -0.56235,-1.46934 -5.79488,-2.13026 -11.27218,-7.2974 -17.18813,-16.21483 -4.49551,-6.7763 -12.3923,-22.55345 -16.84387,-33.65269 -5.71494,-14.24925 -10.91192,-22.82853 -18.95752,-31.29546 -13.19229,-13.88312 -26.71122,-20.33802 -42.60909,-20.34457 -8.57904,-0.003 -12.4153,1.02975 -21.34384,5.74897 -8.65005,4.57202 -12.76637,6.11789 -17.45795,6.55626 -4.62766,0.43241 -8.22551,-0.60793 -21.5024,-6.21752 -21.84696,-9.23052 -32.18062,-11.80154 -47.66601,-11.85934 -10.4581,-0.039 -12.19962,0.4192 -31.01477,8.16073 -7.47015,3.0736 -15.9475,6.23595 -18.83855,7.02745 -20.12119,5.50865 -29.48048,10.50766 -40.41483,21.5865 -16.87398,17.09697 -25.8087,40.1103 -29.51279,76.01679 -1.3348,12.93921 -3.96769,20.01655 -13.33805,35.85342 -2.01596,3.40717 -4.21952,7.29136 -4.89681,8.63154 -3.32329,6.57596 0.95707,6.79499 13.77175,0.70471 11.2224,-5.33354 16.51701,-9.78606 23.80461,-20.01857 6.43715,-9.03838 7.58474,-9.62461 10.42546,-5.3257 2.67571,4.04917 3.1355,3.36813 7.34318,-10.87669 2.81825,-9.54096 5.62838,-15.81161 7.21786,-16.10622 0.56427,-0.10458 1.49509,0.23504 2.06849,0.75472 0.63351,0.57416 1.47928,0.80606 2.15568,0.59107 1.87233,-0.59513 5.54512,-5.06848 7.73228,-9.4177 4.78934,-9.52367 6.25702,-15.64613 6.99712,-29.18861 0.61518,-11.25676 2.21387,-18.27828 5.83421,-25.62414 5.88599,-11.94299 17.53492,-19.94801 30.49948,-20.95893 4.97967,-0.38829 6.95058,0.0448 6.95058,1.52737 0,1.35664 -1.6457,2.47701 -5.68057,3.86724 -5.02175,1.73026 -7.40222,3.17828 -10.26675,6.24519 -5.08349,5.44261 -7.23594,12.18147 -8.55294,26.77733 -3.50788,38.8769 -4.18363,42.25192 -11.5867,57.86883 l -3.53571,7.45867 0.0487,6.47643 c 0.0539,7.17462 1.00132,10.98178 2.73275,10.98178 0.64066,0 1.86724,-1.42623 3.39035,-3.94218 2.89547,-4.7829 6.56092,-8.7291 8.10806,-8.7291 1.5979,0 2.02614,2.23226 1.24387,6.48395 -1.38932,7.55116 -0.3354,20.27776 3.03673,36.67009 2.29106,11.13724 5.17807,20.48394 6.32705,20.48394 0.27803,0 1.42438,-1.83733 2.54744,-4.08296 3.64563,-7.2897 9.39971,-14.12317 11.03831,-13.10897 0.32289,0.19985 0.58708,1.20038 0.58708,2.2234 0,1.02301 0.88847,6.9002 1.97439,13.06041 7.18527,40.76088 18.10468,66.04108 35.67559,82.5947 10.19521,9.605 23.60261,16.3786 37.98539,19.1908 7.78269,1.5217 10.07772,1.7745 9.72034,1.0705 z m 7.22898,-118.2653 c -0.1529,-0.54204 -0.44425,-2.05669 -0.64746,-3.36589 -0.46442,-2.99206 -2.38203,-5.89087 -4.35707,-6.58647 -1.28519,-0.45264 -1.90634,-0.25393 -4.0696,1.30188 -1.4041,1.00982 -3.34714,2.06416 -4.31787,2.34297 -5.68275,1.63218 -13.7641,-5.21454 -12.57177,-10.65112 1.18447,-5.40073 11.63218,-8.68791 18.16917,-5.71659 5.46299,2.48313 13.0579,13.23513 13.0579,18.48586 0,3.38615 -4.48331,6.95467 -5.2633,4.18936 z m -33.48512,-3.9132 c -5.22432,-6.34315 -6.67366,-18.94627 -3.06652,-26.66584 4.34623,-9.30127 15.4502,-15.16663 27.32008,-14.43106 11.63771,0.72117 24.77445,7.6706 37.29684,19.73028 4.31456,4.15514 4.75896,4.78074 4.75608,6.69528 -0.006,4.03114 -3.77822,5.68159 -7.09723,3.10529 -0.89225,-0.6926 -4.53242,-3.88812 -8.08925,-7.10117 -16.48128,-14.88828 -27.2819,-18.8521 -37.99033,-13.94245 -9.29394,4.26114 -13.49753,15.23795 -11.45829,29.92099 0.33003,2.37633 0.48572,4.43511 0.34596,4.57508 -0.13975,0.13995 -1.04755,-0.70892 -2.01734,-1.8864 z m -33.0054,-86.27609 c -5.16969,-3.15704 -8.24692,-8.39631 -8.57197,-14.59455 -0.27372,-5.21954 0.86,-8.37553 4.35167,-12.11387 2.98442,-3.19525 6.4887,-5.12326 11.43428,-6.29099 3.88981,-0.91844 13.01162,-1.10079 16.34128,-0.32668 1.8652,0.43365 2.22833,0.34408 2.90836,-0.71739 0.42738,-0.6671 1.08281,-2.79681 1.45651,-4.7327 0.40498,-2.09789 0.96604,-3.5198 1.38886,-3.5198 0.8183,0 1.06367,0.87359 1.96861,7.00876 0.46053,3.12224 1.06821,5.0105 2.01073,6.24801 2.1575,2.83277 1.59232,6.52494 -1.15918,7.57258 -1.0115,0.38514 -2.34006,0.054 -5.72984,-1.428 -5.0875,-2.22429 -8.09815,-2.47637 -9.75528,-0.81681 -2.30376,2.30714 -0.66742,6.75802 2.48456,6.75802 2.19573,0 3.21841,-0.62326 3.97344,-2.42158 l 0.70949,-1.68984 0.69754,2.11667 c 1.32185,4.01111 -0.40177,8.83933 -4.06252,11.37995 -1.96367,1.36282 -2.84873,1.59657 -6.04501,1.59657 -3.06535,0 -4.12129,-0.25537 -5.82172,-1.40792 -2.22684,-1.50936 -4.86971,-6.0421 -4.86971,-8.35196 0,-2.59735 1.31108,-5.74666 3.20573,-7.70037 1.77378,-1.82908 1.80444,-1.92177 0.46718,-1.41261 -4.68887,1.78532 -7.7435,4.77041 -8.76352,8.564 -1.09487,4.07199 0.44987,9.52357 3.95408,13.95448 0.93438,1.18148 1.69888,2.42846 1.69888,2.77107 0,0.97311 -2.35127,0.72819 -4.27245,-0.44504 z m 115.04735,24.45791 c 0.29012,-0.7642 1.29608,-6.66337 2.23546,-13.10928 3.05664,-20.97423 2.08258,-30.19406 -3.6937,-34.96233 -1.70532,-1.40773 -5.0404,-3.04619 -3.92328,-1.92743 0.19039,0.19066 -0.41915,0.66892 -1.35452,1.06279 -4.24172,1.78612 -2.79381,7.86532 1.76785,7.42255 1.35569,-0.13158 2.17891,-0.6751 3.0975,-2.04504 l 1.25109,-1.86582 0.38248,2.04179 c 1.35098,7.21187 -3.27232,13.2348 -10.15924,13.2348 -5.90306,0 -10.40338,-4.55952 -10.40338,-10.54022 0,-4.97924 3.775,-9.49437 8.50937,-10.17772 l 2.45635,-0.35455 -2.53055,-0.40379 c -1.3918,-0.22208 -4.55499,-0.42218 -7.02931,-0.44466 -5.10655,-0.0464 -7.88712,0.97963 -9.23028,3.40593 -1.5008,2.71107 0.22767,5.63653 7.98167,13.50902 7.92743,8.04858 9.26236,10.32456 12.5168,21.34047 3.2436,10.97922 5.1343,15.20293 6.80544,15.20293 0.43602,0 1.03013,-0.62525 1.32025,-1.38944 z m -296.6425,-39.58104 c -1.19415,-2.8417 -3.61789,-10.53344 -4.23436,-13.43772 -1.09605,-5.1637 -1.02527,-12.35399 0.13304,-13.5157 1.47175,-1.47607 3.46446,-0.30576 8.87627,5.21297 11.26105,11.48355 19.84872,15.70483 33.28482,16.36122 l 6.55581,0.32027 3.2022,-4.97107 c 16.29407,-25.29485 37.29111,-43.61028 59.04038,-51.50013 6.45269,-2.3408 9.10298,-3.68338 9.78299,-4.95585 0.77777,-1.45541 0.2077,-2.0649 -4.17558,-4.46437 -2.14974,-1.17679 -3.98612,-2.54265 -4.08085,-3.03525 -0.47822,-2.48684 13.3633,-5.69054 32.49529,-7.52122 10.318,-0.9873 12.94122,-1.37405 12.91861,-1.90469 -0.008,-0.19784 -2.0859,-1.37341 -4.61661,-2.61237 -7.28861,-3.56832 -7.57324,-5.4913 -1.09762,-7.41574 4.30554,-1.27953 16.45681,-1.25608 23.72459,0.0458 11.68235,2.09264 24.52827,7.50713 37.94267,15.99266 18.00924,11.39206 21.074,12.95478 27.80314,14.17679 7.43939,1.351 13.98992,-1.50072 23.33523,-10.15877 7.56454,-7.00824 11.73155,-9.27884 14.40193,-7.84761 0.85072,0.45596 1.11315,1.18157 1.11315,3.07782 0,1.36652 0.31579,2.68589 0.70293,2.93681 0.38662,0.25059 4.59483,0.45562 9.35158,0.45562 9.25764,0 8.59781,-0.18838 10.05675,2.87112 0.23605,0.49503 2.19723,1.46688 4.35817,2.15968 4.57295,1.46609 9.95421,4.11547 14.33236,7.05631 4.46142,2.99678 4.75674,3.15274 4.2031,2.2199 -8.98943,-15.14688 -26.7522,-35.57565 -38.7873,-44.6089 -5.8249,-4.37201 -15.77101,-9.492 -21.08793,-10.85548 -5.22262,-1.3393 -13.35303,-1.22616 -17.99503,0.25042 -4.22807,1.3449 -9.82135,4.52052 -11.70988,6.64836 -1.1667,1.31453 -1.2154,1.56328 -0.4551,2.32468 0.76029,0.76141 1.26111,0.70822 4.68056,-0.49707 3.14396,-1.1082 4.93609,-1.35056 10.01497,-1.35442 10.02656,-0.008 10.77811,1.14407 1.99639,3.0593 -9.63649,2.10164 -16.15467,6.32273 -19.83599,12.8455 -0.91776,1.62615 -1.76975,2.95664 -1.89332,2.95664 -0.12356,0 -1.77131,-1.24814 -3.66166,-2.77363 -17.96472,-14.49733 -36.39527,-24.04333 -53.56356,-27.74296 -4.61761,-0.99506 -7.47712,-1.22368 -14.98523,-1.19809 -8.5147,0.029 -9.83432,0.1763 -16.02683,1.78861 -8.79537,2.29001 -19.31028,7.45647 -26.98058,13.25679 -10.32782,7.80996 -20.50439,18.76761 -32.74234,35.25541 -11.23547,15.13719 -24.15077,25.21683 -38.43577,29.9969 -12.83052,4.29337 -24.42111,3.25509 -34.06823,-3.05184 -5.69593,-3.72379 -7.1744,-4.41992 -9.38718,-4.41992 -2.40677,0 -2.99471,0.70374 -3.79608,4.54375 -0.35111,1.68246 -0.83007,3.26538 -1.06436,3.5176 -1.12397,1.20998 -6.17656,-6.54851 -8.11334,-12.45841 -2.21537,-6.76003 -2.7766,-11.29679 -2.41236,-19.50067 0.9048,-20.37925 9.26387,-40.05697 25.71641,-60.53789 5.53348,-6.88833 14.87594,-15.86117 20.25022,-19.44903 6.08956,-4.06539 6.71866,-4.71154 6.71866,-6.9007 0,-1.57124 -0.53191,-2.399 -3.0929,-4.81319 -1.70109,-1.60359 -3.09289,-3.09597 -3.09289,-3.31641 0,-0.67115 1.64278,-0.98872 9.84103,-1.90234 4.33005,-0.48255 14.45226,-1.02688 22.49379,-1.20962 15.62298,-0.35502 22.96312,0.0945 35.11062,2.15042 8.63196,1.4609 20.97886,1.27387 25.59931,-0.38778 l 2.78843,-1.00279 -4.72336,-1.25173 c -3.2747,-0.86782 -9.04534,-3.43171 -18.81525,-8.35958 -15.80391,-7.97137 -20.2525,-9.44999 -31.61837,-10.50924 -5.92123,-0.55182 -20.65861,0.0719 -21.49521,0.90968 -0.1406,0.1408 0.80032,1.16118 2.09092,2.26751 1.29061,1.10634 2.34657,2.46758 2.34657,3.025 0,2.21221 -0.85018,2.3972 -18.19384,3.95869 -12.17619,1.09625 -27.52896,5.0766 -37.65718,9.76298 -7.46134,3.4524 -7.45072,3.573 0.29011,3.2966 7.42855,-0.26524 12.1322,0.45696 13.60725,2.08927 0.84227,0.93206 0.83564,1.07761 -0.0872,1.914 -0.54934,0.49788 -4.66354,2.20871 -9.14266,3.80186 -21.62083,7.69019 -31.59587,14.87916 -39.43561,28.42107 -7.02712,12.13825 -12.85699,34.84045 -12.84898,50.03542 0.007,13.4492 3.87577,30.12159 10.801,46.5479 2.17515,5.15935 5.45701,11.26268 6.05682,11.26399 0.15971,3.5e-4 0.2041,-2.66012 0.0986,-5.91216 -0.30716,-9.47189 1.9539,-18.17702 5.28794,-20.3587 1.97489,-1.2923 2.92939,0.0957 4.70434,6.84093 4.145,15.75192 10.78604,28.94963 18.56228,36.88873 4.66627,4.764 9.85109,7.85383 8.73929,5.20808 z M 557.41463,502.1887 c 4.12594,-1.96228 9.27709,-5.76889 12.6759,-9.36728 1.05154,-1.11329 4.27721,-4.99556 7.16816,-8.62726 5.51741,-6.93116 7.45757,-8.67728 8.98807,-8.08911 0.77197,0.29667 0.86519,0.89011 0.56257,3.58172 -0.19949,1.77437 -0.52491,4.8734 -0.72316,6.88673 l -0.36045,3.66059 1.28837,-1.12634 c 3.60528,-3.15184 11.6513,-18.33966 14.89045,-28.10747 3.33914,-10.06935 4.41782,-17.93915 4.05954,-29.61725 -0.34202,-11.14758 -1.55678,-17.57382 -5.16394,-27.31795 -6.91967,-18.69229 -20.74874,-36.39686 -37.17732,-47.59601 -11.38046,-7.7579 -21.04141,-11.35837 -30.59073,-11.40063 -4.82339,-0.0214 -5.83386,0.17042 -10.40338,1.97429 -10.73,4.2358 -23.92448,6.85585 -42.17586,8.37495 l -8.43517,0.70207 2.53055,1.13139 c 2.23447,0.99901 4.27414,1.17955 17.43269,1.54308 15.27779,0.42207 20.12122,0.91294 27.65613,2.80289 10.4646,2.62479 22.24869,7.83749 31.26443,13.82984 5.78787,3.84694 13.59392,11.41796 16.97859,16.46739 4.82685,7.20096 9.01491,18.14989 9.01491,23.56787 0,2.15139 -0.13979,2.40479 -1.32669,2.40479 -0.747,0 -2.44326,-0.98429 -3.88212,-2.25267 -3.13526,-2.76381 -3.87551,-2.85546 -3.41163,-0.42238 0.47572,2.49524 4.65423,14.72306 7.26484,21.2596 1.9859,4.97233 2.13897,5.76761 2.16795,11.26336 0.0234,4.44325 -0.22504,6.57827 -0.99945,8.58831 -1.37688,3.57381 -2.5547,3.50954 -4.59842,-0.25094 -0.8746,-1.60928 -2.89032,-4.27025 -4.47937,-5.91326 -4.42682,-4.57713 -5.37456,-4.15993 -7.37872,3.2482 -0.79002,2.9202 -2.67676,7.92748 -4.19274,11.12727 -4.72359,9.97011 -12.02337,15.92532 -21.55502,17.58472 -6.94374,1.20885 -16.61724,-0.52044 -25.51662,-4.56152 l -3.76235,-1.70842 1.67273,1.76057 c 2.47898,2.60919 7.99047,6.63957 11.51001,8.41692 6.75171,3.40957 10.08119,4.08547 21.9291,4.45171 l 10.95964,0.33879 0.77559,1.62371 c 1.00274,2.09924 0.19028,5.10009 -2.4932,9.20861 -1.059,1.62138 -1.92546,3.18236 -1.92546,3.46882 0,0.79857 5.263,-0.77021 9.76158,-2.9097 z"
       id="path2996"
       inkscape:connector-curvature="0" />
  </g>
</svg>
