<?xml version="1.0" encoding="UTF-8" standalone="no"?>
<svg
   xmlns:dc="http://purl.org/dc/elements/1.1/"
   xmlns:cc="http://creativecommons.org/ns#"
   xmlns:rdf="http://www.w3.org/1999/02/22-rdf-syntax-ns#"
   xmlns:svg="http://www.w3.org/2000/svg"
   xmlns="http://www.w3.org/2000/svg"
   xmlns:sodipodi="http://sodipodi.sourceforge.net/DTD/sodipodi-0.dtd"
   xmlns:inkscape="http://www.inkscape.org/namespaces/inkscape"
   id="svg"
   version="1.1"
   width="512"
   height="511.99997"
   style="display:block"
   inkscape:version="0.91 r13725"
   sodipodi:docname="icon-cryptocat.svg">
  <metadata
     id="metadata18">
    <rdf:RDF>
      <cc:Work
         rdf:about="">
        <dc:format>image/svg+xml</dc:format>
        <dc:type
           rdf:resource="http://purl.org/dc/dcmitype/StillImage" />
        <dc:title></dc:title>
      </cc:Work>
    </rdf:RDF>
  </metadata>
  <defs
     id="defs16" />
  <sodipodi:namedview
     pagecolor="#ffffff"
     bordercolor="#666666"
     borderopacity="1"
     objecttolerance="10"
     gridtolerance="10"
     guidetolerance="10"
     inkscape:pageopacity="0"
     inkscape:pageshadow="2"
     inkscape:window-width="684"
     inkscape:window-height="480"
     id="namedview14"
     showgrid="false"
     fit-margin-top="0"
     fit-margin-left="0"
     fit-margin-right="0"
     fit-margin-bottom="0"
     inkscape:zoom="0.4609375"
     inkscape:cx="260.35698"
     inkscape:cy="144.67842"
     inkscape:window-x="668"
     inkscape:window-y="379"
     inkscape:window-maximized="0"
     inkscape:current-layer="svg" />
  <g
     id="svgg"
     transform="matrix(1.2792325,0,0,1.27693,0.02302618,0.36166351)">
    <path
       id="path0"
       d="m 132.813,167.688 c -31.685,5.927 -39.491,47.134 -11.733,61.929 8.209,4.375 8.994,4.398 9.021,0.26 0.064,-9.528 13.583,-9.87 15.58,-0.394 0.721,3.423 1.102,3.522 5.544,1.44 12.021,-5.634 19.523,-18.082 18.965,-31.468 l -0.268,-6.416 2.734,-0.294 c 2.169,-0.234 1.926,-0.326 -1.172,-0.443 -10.396,-0.396 -19.112,-9.099 -19.133,-19.106 -0.004,-2.252 -0.314,-3.567 -0.773,-3.284 -0.421,0.26 -2.296,-0.046 -4.166,-0.681 -3.776,-1.282 -11.583,-2.107 -14.599,-1.543 m 59.598,4.578 c 0.006,2.148 0.158,2.934 0.337,1.747 0.18,-1.188 0.175,-2.946 -0.011,-3.907 -0.185,-0.96 -0.332,0.011 -0.326,2.16 m 144.308,-0.928 c 0,0.135 1.142,1.277 2.539,2.539 l 2.539,2.295 -2.295,-2.539 c -2.139,-2.367 -2.783,-2.898 -2.783,-2.295 m -72.843,5.777 c 0.972,0.187 2.378,0.18 3.125,-0.016 0.747,-0.195 -0.048,-0.348 -1.767,-0.339 -1.718,0.008 -2.33,0.168 -1.358,0.355 m 61.905,5.942 c 0,0.134 1.143,1.277 2.539,2.539 l 2.539,2.295 -2.294,-2.539 c -2.139,-2.367 -2.784,-2.899 -2.784,-2.295 m -48.323,24.753 c -22.426,5.3 -33.422,32.72 -20.356,50.757 l 2.431,3.356 1.85,-1.995 c 7.951,-8.574 18.419,2.505 10.732,11.359 -1.586,1.827 -2.08,2.576 -1.097,1.663 1.678,-1.556 2.007,-1.592 5.353,-0.585 11.894,3.579 26.971,-1.675 34.735,-12.105 11.828,-15.888 6.972,-39.658 -9.933,-48.626 -1.91,-1.013 -3.617,-2.375 -3.795,-3.027 -0.177,-0.652 -0.363,-0.297 -0.412,0.789 -0.412,8.976 -13.372,8.236 -13.372,-0.763 0,-1.749 -1.414,-1.939 -6.136,-0.823 m -136.833,44.924 c 1.458,1.504 2.826,2.735 3.041,2.735 0.215,0 -0.802,-1.231 -2.26,-2.735 -1.457,-1.504 -2.826,-2.734 -3.041,-2.734 -0.214,0 0.802,1.23 2.26,2.734 m 28.72,12.662 c 0.972,0.187 2.378,0.18 3.125,-0.015 0.747,-0.196 -0.048,-0.349 -1.767,-0.34 -1.719,0.008 -2.33,0.168 -1.358,0.355 m 43.155,6.87 c 1.458,1.504 2.826,2.734 3.041,2.734 0.215,0 -0.802,-1.23 -2.26,-2.734 -1.457,-1.504 -2.826,-2.735 -3.041,-2.735 -0.214,0 0.802,1.231 2.26,2.735 m -113.685,55.273 -8.581,8.789 8.789,-8.58 c 4.834,-4.72 8.79,-8.675 8.79,-8.789 0,-0.564 -1.028,0.416 -8.998,8.58"
       inkscape:connector-curvature="0"
       style="fill:#ff975d;fill-rule:evenodd;stroke:none" />
    <path
       id="path1"
       d="m 138.965,36.23 c -1.864,0.93 -2.312,2.093 -5.752,14.942 -1.035,3.867 -2.401,8.965 -3.036,11.328 -1.747,6.508 -4.216,15.732 -5.958,22.266 -0.86,3.222 -2.266,8.496 -3.125,11.718 -0.86,3.223 -2.246,8.416 -3.081,11.541 -0.835,3.124 -1.752,6.288 -2.037,7.031 -1.616,4.211 10.745,-0.784 16.106,-6.508 8.082,-8.63 18.811,-3.153 14.182,7.241 -6.034,13.55 -27.978,20.174 -52.514,15.852 -9.162,-1.614 -8.832,-1.692 -7.395,1.748 2.015,4.822 5.917,10.448 11.095,15.994 4.53,4.852 4.894,5.509 4.894,8.823 0,6.122 -9.684,14.366 -18.569,15.807 -4.004,0.65 -3.73,1.277 2.983,6.831 10.119,8.372 10.109,11.336 -0.07,20.619 l -6.316,5.761 2.587,1.572 c 11.442,6.952 22.039,18.091 33.646,35.363 10.695,15.916 30.132,28.408 54.098,34.768 5.156,1.369 10.957,2.924 12.891,3.457 1.933,0.533 13.183,3.562 25,6.732 l 21.484,5.762 14.453,-0.036 c 17.454,-0.045 22.865,-1.264 40.625,-9.153 16.973,-7.54 31.389,-11.448 42.293,-11.466 l 2.839,-0.004 -2.253,-7.188 c -3.945,-12.582 -1.743,-18.594 6.811,-18.594 1.174,0 4.396,-0.393 7.158,-0.874 l 5.024,-0.875 -3.905,-4.008 c -8.68,-8.91 -11.501,-22.225 -5.376,-25.382 0.938,-0.484 4.167,-1.625 7.175,-2.536 8.283,-2.51 19.347,-8.731 17.844,-10.034 -0.361,-0.313 -2.942,-1.369 -5.735,-2.348 -26.363,-9.235 -44.158,-29.598 -38.276,-43.798 3.153,-7.613 14.839,-5.163 14.839,3.11 0,3.781 2.09,7.899 6.061,11.941 3.204,3.261 5.658,4.667 5.658,3.242 0,-0.485 1.791,-7.305 8.652,-32.93 3.246,-12.123 3.781,-14.114 7.687,-28.564 4.415,-16.333 4.593,-17.703 2.544,-19.557 -2.519,-2.28 -1.014,-3.043 -30.602,15.515 -42.219,26.48 -41.099,25.948 -45.977,21.843 -5.888,-4.955 -3.857,-10.125 6.422,-16.344 4.138,-2.503 7.524,-4.655 7.524,-4.78 0,-1.407 -42.037,-15.678 -58.204,-19.76 -13.714,-3.463 -36.553,-7.837 -47.265,-9.053 -2.364,-0.268 -5.479,-0.697 -6.924,-0.954 l -2.628,-0.467 3.995,7.612 c 5.134,9.784 4.953,13.503 -0.801,16.479 -5.326,2.754 -8.634,0.549 -13.851,-9.235 -1.776,-3.33 -4.635,-8.692 -6.354,-11.914 -1.718,-3.223 -4.484,-8.409 -6.145,-11.524 C 161.725,70.127 158.788,64.59 156.86,60.938 142.381,33.512 142.921,34.258 138.965,36.23 m 43.264,118.254 c 17.678,9.868 11.845,35.797 -8.597,38.216 l -3.71,0.44 0.268,6.365 c 0.565,13.444 -7,25.86 -19.203,31.516 l -4.09,1.896 1.485,2.878 c 7.369,14.272 27.716,17.401 39.801,6.119 8.816,-8.231 8.883,-10.043 0.889,-24.17 -8.368,-14.785 -7.037,-16.802 8.22,-12.453 2.993,0.853 8.431,2.339 12.083,3.303 3.652,0.963 8.926,2.374 11.719,3.135 2.793,0.761 8.201,2.212 12.019,3.225 12.633,3.354 12.09,5.788 -3.23,14.493 -13.882,7.888 -13.776,7.776 -13.282,13.925 1.629,20.288 23.15,31.311 39.723,20.344 l 3.047,-2.017 -2.35,-3.244 c -13.612,-18.79 -0.716,-47.559 22.885,-51.055 3.35,-0.496 3.682,-0.725 3.227,-2.219 -4.919,-16.139 -22.327,-19.499 -33.468,-6.459 -7.132,8.348 -17.376,3.568 -12.511,-5.839 13.547,-26.197 54.9,-18.078 59.653,11.713 0.438,2.742 0.896,5.053 1.018,5.134 0.122,0.082 1.816,1.06 3.764,2.175 32.499,18.59 10.274,71.446 -25.417,60.45 -3.077,-0.948 -3.189,-0.912 -7.232,2.349 -20.596,16.613 -51.246,10.802 -63.32,-12.005 -3.574,-6.751 -6.614,-8.073 -11.147,-4.845 -21.864,15.569 -53.701,5.484 -62.901,-19.926 -1.314,-3.628 -2.127,-4.782 -3.658,-5.191 -11.278,-3.016 -21.053,-13.995 -23.309,-26.179 -4.211,-22.733 17.091,-43.512 39.145,-38.187 8.027,1.938 7.879,1.968 9.015,-1.829 3.821,-12.77 17.881,-18.524 29.464,-12.058 M 65.605,275.681 c -2.804,2.804 -3.567,5.693 -2.307,8.736 3.594,8.675 15.869,6.527 15.869,-2.776 0,-7.407 -8.417,-11.105 -13.562,-5.96 m 23.54,3.929 c -5.458,5.099 -1.915,14.161 5.521,14.123 7.817,-0.041 11.286,-8.25 5.803,-13.733 -3.566,-3.565 -7.769,-3.71 -11.324,-0.39 m -39.681,12.539 c -7.427,4.528 -4.587,15.143 4.052,15.143 8.913,0 11.486,-11.373 3.507,-15.5 -2.985,-1.543 -4.566,-1.469 -7.559,0.357 m 27.88,9.177 c -5.624,2.896 -6.804,9.572 -2.769,15.669 2.053,3.103 2.073,3.249 0.91,6.673 -2.732,8.047 3.603,15.289 11.798,13.489 2.942,-0.646 21.007,-18.704 21.742,-21.732 1.953,-8.054 -5.451,-14.541 -13.482,-11.815 -3.424,1.163 -3.57,1.143 -6.673,-0.91 -4.114,-2.723 -8.006,-3.187 -11.526,-1.374 M 51.485,317.27 c -3.32,3.555 -3.175,7.758 0.39,11.324 5.483,5.483 13.692,2.014 13.733,-5.803 0.038,-7.436 -9.024,-10.979 -14.123,-5.521"
       inkscape:connector-curvature="0"
       style="fill:#ffbb72;fill-rule:evenodd;stroke:none" />
    <path
       id="path2"
       d="m 114.986,3.07 c 4.119,3.626 8.195,10.862 8.858,15.728 0.26,1.907 0.636,4.269 0.835,5.249 l 0.363,1.782 2.56,-1.953 c 3.373,-2.572 7.719,-4.345 10.654,-4.345 2.287,0 2.369,-0.122 2.369,-3.515 0,-1.934 -0.133,-3.516 -0.295,-3.516 -0.163,0 -1.558,0.527 -3.1,1.172 -1.543,0.644 -3.273,1.172 -3.846,1.172 -0.832,0 -4.478,-6.038 -4.478,-7.416 0,-0.189 2.725,-1.931 6.055,-3.872 L 141.016,0.028 126.257,0.014 111.499,0 l 3.487,3.07 m 36.577,8.063 0,11.133 2.743,2.189 c 1.509,1.204 3.799,4.28 5.09,6.836 2.905,5.755 2.977,5.751 2.006,-0.12 -1.653,-9.995 3.056,-22.905 10.444,-28.632 L 175.121,0 l -11.779,0 -11.779,0 0,11.133 m 46.155,-9.252 c 12.823,8.713 14.72,33.465 3.548,46.292 -7.358,8.448 -21.838,9.834 -29.577,2.83 -2.547,-2.304 -2.109,-0.616 1.67,6.445 l 3.75,7.005 13.204,1.714 c 15.938,2.069 17.897,2.168 21.401,1.084 5.239,-1.621 12.869,-0.066 17.087,3.483 2.17,1.826 16.512,6.207 16.512,5.043 0,-1.69 13.419,-7.808 17.125,-7.808 l 3.968,0 0,6.926 0,6.925 4.938,1.668 c 6.457,2.181 6.121,2.276 8.229,-2.321 11.113,-24.223 42.075,-16.407 44.424,11.216 0.247,2.9 0.551,5.273 0.675,5.273 0.125,0 3.502,-2.037 7.504,-4.527 l 7.277,-4.528 0.236,-3.616 0.235,-3.616 -3.81,1.448 -3.811,1.448 -2.029,-4.137 -2.03,-4.138 7.261,-4.011 c 6.086,-3.362 7.908,-4.01 11.268,-4.01 l 4.008,0 0,6.601 0,6.6 2.917,-1.218 c 1.604,-0.67 4.763,-1.301 7.02,-1.401 3.821,-0.169 4.327,-0.435 7.339,-3.856 3.808,-4.326 9.477,-7.419 14.744,-8.042 l 3.773,-0.447 -3.43,-5.801 c -1.887,-3.191 -5.062,-7.923 -7.057,-10.516 l -3.628,-4.714 -3.612,3.544 c -18.864,18.506 -46.89,-4.728 -37.998,-31.502 1.594,-4.798 1.461,-4.966 -6.435,-8.105 l -4.883,-1.941 0,23.794 0,23.794 -5.273,-0.231 -5.274,-0.231 -0.208,-20.904 -0.208,-20.903 -2.817,1.177 c -4.093,1.71 -4.767,1.512 -6.516,-1.917 -2.195,-4.302 -2.018,-5.065 1.546,-6.672 1.719,-0.775 3.125,-1.647 3.125,-1.937 0,-1.019 -8.28,-2.491 -16.406,-2.916 l -8.203,-0.43 2.972,2.394 C 306.99,22.105 284.66,68.946 258.203,52.671 241.592,42.452 241.122,11.625 257.422,1.466 L 259.766,0.006 247.656,0.003 235.547,0 l 0,27.148 0,27.149 -5.274,0.231 -5.273,0.231 0,-21.13 C 225,22.008 224.867,12.5 224.705,12.5 c -0.163,0 -1.558,0.527 -3.1,1.172 -4.152,1.734 -4.718,1.521 -6.683,-2.525 -2.081,-4.283 -2.362,-3.871 5.781,-8.459 L 225.391,0.047 210.17,0.024 194.95,0 197.718,1.881 M 77.734,8.234 c -2.578,1.055 -6.001,2.535 -7.608,3.288 l -2.921,1.369 -0.009,20.898 -0.008,20.899 -5.455,0 -5.454,0 -0.21,-17.639 -0.21,-17.638 -5.468,4.078 c -7.38,5.505 -10.547,8.576 -10.547,10.229 0,7.427 -7.593,17.123 -16.123,20.59 -3.736,1.519 -4.695,2.374 -7.06,6.301 l -2.738,4.544 0.102,29.142 0.102,29.143 -5.093,0 -5.093,-0.001 -0.213,-14.648 C 3.532,95.252 3.437,94.4 2.482,97.563 c -1.991,6.588 -2.473,12.34 -2.477,29.58 L 0,144.521 3.481,141.864 c 18.539,-14.151 40.925,4.534 36.421,30.398 -3.439,19.744 -22.035,28.886 -36.421,17.906 L 0,187.51 0,198.833 c 0,6.228 0.264,11.321 0.586,11.318 0.322,-0.003 1.641,-0.704 2.93,-1.557 1.587,-1.052 3.667,-1.554 6.445,-1.558 l 4.102,-0.005 0,27.735 0,27.734 -5.079,0 -5.078,0 0,-20.757 0,-20.758 -1.758,0.25 -1.757,0.249 -0.205,30.742 -0.204,30.741 2.548,-2.151 c 9.063,-7.651 23.096,-6.643 30.666,2.2 1.503,1.756 2.858,3.043 3.013,2.861 0.155,-0.181 1.505,-2.264 3.001,-4.627 9.359,-14.783 28.501,-23.564 44.774,-20.54 l 3.907,0.726 -0.231,-14.09 -0.231,-14.091 1.83,1.537 c 1.007,0.845 0.056,-0.144 -2.113,-2.197 -4.246,-4.02 -11.475,-9.477 -16.334,-12.33 l -3.016,-1.771 1.257,2.43 c 10.804,20.892 -7.919,48.741 -28.006,41.658 -29.98,-10.571 -16.827,-64.206 13.641,-55.626 1.629,0.459 2.102,0.202 2.853,-1.548 0.494,-1.154 2.78,-3.358 5.078,-4.898 2.298,-1.54 5.76,-4.194 7.694,-5.898 l 3.515,-3.097 -3.32,-3.363 -3.32,-3.363 0,4.48 0,4.481 -5.43,0 -5.43,0 -0.413,-11.914 C 55.357,165.731 55.356,163.78 55.906,157.189 l 0.475,-5.702 -2.995,1.293 c -4.51,1.946 -4.798,1.839 -6.853,-2.558 l -1.905,-4.074 7.275,-3.933 c 6.025,-3.258 7.959,-3.934 11.257,-3.934 l 3.982,0 0.218,10.352 0.218,10.351 5,0 4.999,0 0.972,-2.806 c 0.906,-2.618 0.814,-3.039 -1.36,-6.25 -15.89,-23.469 -13.453,-44.53 4.376,-37.819 2.854,1.075 5.357,1.954 5.562,1.954 0.205,0 0.373,-7.35 0.373,-16.332 L 87.5,81.4 83.685,82.85 79.87,84.299 77.795,80.3 c -1.622,-3.126 -1.855,-4.145 -1.067,-4.669 6.858,-4.57 13.993,-7.662 17.676,-7.662 l 4.011,0 0.207,24.351 0.206,24.351 6.551,-24.546 c 3.603,-13.501 7.713,-28.899 9.133,-34.219 l 2.583,-9.672 -2.102,2.009 C 95.042,69.309 67.351,38.398 80.554,11.799 82.069,8.747 83.109,6.265 82.865,6.283 82.621,6.301 80.313,7.179 77.734,8.234 m 19.157,0.919 c -12.896,6.61 -9.53,35.769 4.129,35.769 5.181,0 7.36,-1.65 9.863,-7.469 C 117.4,22.305 108.065,3.427 96.891,9.153 m 85.531,-0.811 c -8.845,2.284 -12.433,20.509 -6.163,31.302 4.604,7.924 14.171,7.5 18.192,-0.806 6.937,-14.33 -0.603,-33.446 -12.029,-30.496 m 82.675,0.73 c -8.985,4.431 -10.807,23.848 -3.076,32.791 5.784,6.691 15.042,3.204 18.007,-6.783 4.638,-15.615 -4.33,-31.236 -14.931,-26.008 m 76.802,11.436 c -4.341,16.197 9.53,32.005 18.737,21.354 1.455,-1.683 2.645,-3.499 2.645,-4.036 0,-0.538 0.389,-1.107 0.864,-1.265 1.31,-0.436 -19.517,-17.811 -21.35,-17.811 -0.234,0 -0.637,0.791 -0.896,1.758 M 57.739,69.103 C 76.22,78.469 76.222,112.724 57.742,122.07 41.243,130.414 24.264,117.029 24.228,95.65 24.193,74.504 41.437,60.843 57.739,69.103 M 41.062,80.084 c -3.782,3.781 -5.454,9.768 -4.918,17.597 1.589,23.174 24.012,21.176 24.012,-2.139 0,-14.398 -11.138,-23.414 -19.094,-15.458 m 253.801,-1.332 c -3.342,2.794 -7.462,11.087 -5.513,11.096 0.486,0.002 5.63,1.934 11.431,4.293 12.639,5.139 11.719,5.067 11.719,0.923 0,-12.648 -10.456,-22.318 -17.637,-16.312 m 82.619,1.453 -2.873,2.862 2.454,2.572 c 4.885,5.122 6.079,12.716 3.476,22.111 l -1.493,5.386 1.688,0.452 c 6.509,1.746 11.857,-1.258 14.149,-7.947 6.206,-18.116 -6.34,-36.456 -17.401,-25.436 m 20.583,39.307 c -3.106,3.432 -7.746,4.856 -15.004,4.605 l -6.796,-0.235 -2.929,10.75 -2.929,10.75 1.854,2.732 c 6.915,10.191 6.382,26.461 -1.231,37.526 l -2.361,3.431 2.041,0.776 c 1.123,0.426 4.042,1.009 6.486,1.293 7.712,0.899 11.428,6.361 8.346,12.27 -0.642,1.23 -1.167,2.324 -1.167,2.43 0,0.106 1.802,0.406 4.005,0.667 2.203,0.261 4.927,1.07 6.055,1.799 1.127,0.729 2.84,1.835 3.807,2.459 l 1.758,1.133 0,-9.074 0,-9.074 -3.516,0 -3.515,0 0,-21.082 0,-21.083 -3.895,1.535 -3.894,1.535 -1.201,-2.322 c -3.188,-6.165 -3.371,-5.75 4.446,-10.1 3.907,-2.174 8.108,-3.952 9.338,-3.952 l 2.237,0 0,-10.156 c 0,-5.586 -0.121,-10.156 -0.27,-10.156 -0.148,0 -0.897,0.694 -1.665,1.543 M 12.737,148.398 c -11.549,5.243 -10.191,32.511 1.786,35.871 15.182,4.258 20.162,-30.104 5.265,-36.328 -3.186,-1.332 -3.099,-1.337 -7.051,0.457 m 350.43,24.148 c -1.138,4.353 -1.758,7.723 -1.378,7.489 1.112,-0.688 3.975,-10.969 3.698,-13.284 -0.169,-1.423 -0.932,0.481 -2.32,5.795 M 42.812,217.757 c -8.763,5.435 -9.001,27.836 -0.362,33.994 8.584,6.119 17.351,-2.496 17.283,-16.985 -0.066,-13.953 -8.378,-22.308 -16.921,-17.009 m 336.396,0.138 c -4.304,2.625 -6.173,7.803 -6.089,16.871 0.09,9.733 0.29,12.398 0.885,11.803 0.257,-0.257 1.268,0.711 2.246,2.152 8.544,12.572 23.111,-0.671 19.92,-18.11 -2.157,-11.787 -9.48,-17.278 -16.962,-12.716 m -22.372,9.61 c -2.041,0.878 -3.711,1.863 -3.711,2.189 0,1.144 6.423,6.383 7.026,5.731 0.723,-0.781 1.512,-9.672 0.851,-9.581 -0.25,0.035 -2.125,0.782 -4.166,1.661 m -258.398,27.149 0,7.846 -2.93,0.017 -2.93,0.017 3.435,1.559 c 5.994,2.719 12.705,8.116 21.958,17.657 11.251,11.601 12.859,14.565 12.866,23.719 0.007,9.989 -1.096,11.756 -18.091,28.961 l -14.331,14.508 0.206,24.498 0.207,24.499 2.344,0.677 c 1.289,0.373 6.562,0.868 11.719,1.101 l 9.375,0.424 -2.344,-1.527 C 98.894,384.908 107.923,344.601 132.031,344.556 155.59,344.512 165.03,383.263 145,397.79 l -3.047,2.21 14.961,0 14.961,0 0,-20.665 0,-20.665 -3.32,1.507 c -1.826,0.829 -3.672,1.501 -4.102,1.494 -0.813,-0.013 -4.801,-7.574 -4.231,-8.02 0.603,-0.472 5.764,-3.444 10.318,-5.941 3.619,-1.984 5.261,-2.433 8.203,-2.244 l 3.679,0.237 0.205,27.149 0.206,27.148 11.904,-0.003 11.904,-0.003 -2.344,-1.46 c -21.472,-13.382 -12.341,-53.959 12.151,-53.995 23.48,-0.035 32.503,37.498 12.783,53.169 l -2.883,2.292 14.951,0 14.951,0 0,-20.312 c 0,-13.443 -0.273,-20.313 -0.806,-20.313 -0.444,0 -2.069,0.527 -3.611,1.172 -3.782,1.58 -3.637,1.641 -5.584,-2.365 -2.322,-4.781 -2.616,-4.313 5.555,-8.84 5.858,-3.245 7.987,-4.029 10.938,-4.029 l 3.664,0 0,27.343 0,27.344 11.516,0 11.515,0 -3.358,-3.259 c -18.365,-17.826 -8.677,-52.21 14.711,-52.21 18.572,0 29.555,24.328 19.912,44.108 -1.038,2.13 -1.786,3.975 -1.661,4.1 0.388,0.388 9.353,-3.449 15.216,-6.512 l 5.587,-2.918 0,-11.967 c 0,-6.582 -0.187,-11.967 -0.416,-11.967 -0.229,0 -1.678,0.527 -3.22,1.172 -3.907,1.632 -3.92,1.627 -6.12,-2.715 l -1.969,-3.886 1.761,-1.109 c 8.513,-5.361 13.419,-7.525 17.065,-7.525 l 3.836,10e-4 0,14.843 c 0,8.164 0.264,14.839 0.586,14.833 1.993,-0.037 10.591,-8.696 10.76,-10.835 0.576,-7.33 11.908,-20.279 16.278,-18.601 1.586,0.608 10.069,-14.471 13.541,-24.069 1.2,-3.317 1.381,-5.99 1.2,-17.738 l -0.213,-13.831 -3.563,1.527 c -1.959,0.84 -3.703,1.527 -3.875,1.527 -1.178,0 -4.275,-8.097 -3.336,-8.721 4.62,-3.071 14.091,-7.685 15.772,-7.685 l 2.069,0 0,-9.471 0,-9.47 -1.758,1.293 c -9.026,6.639 -20.865,6.289 -28.449,-0.843 -2.334,-2.195 -2.594,-2.262 -4.622,-1.2 -3.071,1.609 -11.676,4.522 -16.925,5.73 -5.035,1.158 -4.922,0.647 -1.869,8.492 l 1.672,4.297 6.348,0.413 c 14.122,0.921 22.466,11.503 22.466,28.493 0,37.137 -45.219,39.312 -47.008,2.261 -0.461,-9.542 1.185,-15.681 4.332,-16.15 1.177,-0.176 -0.847,-0.177 -4.499,-0.002 -3.653,0.175 -7.432,0.479 -8.399,0.674 l -1.758,0.356 0,20.298 0,20.297 -5.468,0 -5.469,0 0,-19.193 0,-19.193 -1.758,0.52 c -0.967,0.287 -4.395,1.632 -7.617,2.989 l -5.86,2.469 -0.412,6.243 c -2.048,30.999 -37.589,38.068 -46.12,9.173 l -0.981,-3.32 -4.5,0 c -2.474,0 -5.143,-0.209 -5.931,-0.465 -1.006,-0.326 -1.133,-0.25 -0.429,0.257 0.744,0.536 0.945,3.22 0.781,10.426 l -0.22,9.704 -5.274,0.231 -5.273,0.231 0,-10.943 0,-10.944 -2.93,-0.764 c -6.783,-1.769 -12.554,-3.202 -12.894,-3.202 -0.201,0 -0.574,1.767 -0.83,3.927 -1.183,9.994 -8.561,19.452 -17.322,22.208 -16.454,5.175 -32.094,-11.435 -29.611,-31.447 0.358,-2.879 0.661,-5.714 0.673,-6.299 0.019,-0.877 -7.631,-3.957 -9.938,-4.002 -0.322,-0.007 -0.585,9.304 -0.585,20.691 l 0,20.703 -5.469,0 -5.469,0 0,-21.066 0,-21.066 -3.58,1.535 c -1.97,0.844 -3.722,1.535 -3.893,1.535 -0.172,0 -1.22,-1.791 -2.329,-3.979 -2.165,-4.271 -1.848,-5.23 2.176,-6.597 1.031,-0.35 -0.003,-1.373 -4.297,-4.25 -8.218,-5.504 -17.705,-14.661 -24.405,-23.557 l -5.859,-7.778 0,7.846 m -87.475,33.335 c -4.164,3.504 -5.745,7.589 -6.007,15.528 -0.8,24.151 22.351,26.812 23.77,2.733 0.885,-15.012 -9.246,-25.428 -17.763,-18.261 m 338.11,0.292 c -1.562,1.78 -2.779,2.37 -5.057,2.45 -1.65,0.059 -2.246,0.254 -1.324,0.435 1.611,0.315 1.628,0.423 0.447,2.791 -1.849,3.707 -2.179,13.484 -0.634,18.799 3.789,13.033 17.257,13.545 21.63,0.823 5.273,-15.344 -6.478,-35.08 -15.062,-25.298 m -175.652,10.524 c -3.4,24.906 19.467,34.783 23.34,10.082 0.883,-5.628 0.645,-6.27 -2.551,-6.869 -1.406,-0.264 -6.586,-1.628 -11.512,-3.03 l -8.954,-2.55 -0.323,2.367 m 104.466,7.422 c -2.065,0.807 -7.338,2.24 -11.719,3.184 -9.56,2.061 -8.805,1.456 -6.977,5.589 4.365,9.868 15.17,10.511 19.563,1.164 1.196,-2.543 3.574,-11.687 2.975,-11.44 -0.048,0.02 -1.778,0.697 -3.842,1.503 M 32.5,326.275 c -2.985,3.588 -8.578,6.343 -14.411,7.099 l -4.717,0.61 3.576,5.86 c 2.872,4.705 6.25,9.516 10.92,15.556 0.137,0.176 1.921,-1.416 3.964,-3.538 4.662,-4.844 8.628,-6.763 14.84,-7.183 l 4.876,-0.329 -5.266,-5.646 c -2.897,-3.106 -6.497,-7.801 -8.001,-10.433 -3.191,-5.588 -2.883,-5.481 -5.781,-1.996 m 24.531,23.334 c 2.334,2.364 4.42,4.297 4.634,4.297 0.215,0 -1.519,-1.933 -3.852,-4.297 -2.334,-2.363 -4.42,-4.296 -4.635,-4.296 -0.214,0 1.519,1.933 3.853,4.296 m -12.5,5.63 c -2.067,0.756 -4.795,3.659 -6.424,6.836 l -1.584,3.091 3.027,2.636 c 8.103,7.055 18.513,14.291 19.352,13.452 0.498,-0.498 0.864,-3.74 0.864,-7.66 0,-13.11 -6.887,-21.406 -15.235,-18.355 m 82.383,1.002 c -7.408,4.748 -9.123,23.01 -2.924,31.147 5.699,7.48 15.128,5.233 18.533,-4.418 5.771,-16.358 -4.458,-33.875 -15.609,-26.729 m 84.381,-0.144 c -11.757,7.396 -8.199,35.345 4.534,35.622 15.65,0.34 16.831,-35.183 1.223,-36.773 -2.436,-0.248 -4.044,0.074 -5.757,1.151 m 85.126,-0.694 c -6.426,2.764 -9.828,15.141 -7.04,25.613 3.781,14.199 17.389,14.759 21.759,0.895 4.727,-14.995 -4.183,-31.041 -14.719,-26.508 M 68.75,358.26 c 0,0.075 0.572,1.676 1.272,3.556 1.716,4.613 1.794,17.813 0.132,22.348 -1.51,4.124 -1.6,4.043 8.85,7.987 l 8.105,3.059 0.211,-17.642 c 0.238,-19.981 0.477,-18.916 -3.808,-16.984 -2.835,1.278 -3.329,1.313 -4.109,0.286 -0.67,-0.88 -10.653,-3.327 -10.653,-2.61"
       inkscape:connector-curvature="0"
       style="fill:#2c8fb2;fill-rule:evenodd;stroke:none" />
    <path
       id="path3"
       d="m 235.507,27.344 c 0,14.824 0.106,20.888 0.234,13.476 0.128,-7.412 0.128,-19.541 0,-26.953 -0.128,-7.412 -0.234,-1.347 -0.234,13.477 m 73.429,5.859 c -10e-4,11.602 0.108,16.457 0.241,10.789 0.134,-5.668 0.134,-15.16 10e-4,-21.094 -0.133,-5.934 -0.242,-1.296 -0.242,10.305 m -252.35,3.516 c 0,10.097 0.111,14.228 0.247,9.179 0.136,-5.048 0.136,-13.31 0,-18.359 -0.136,-5.049 -0.247,-0.918 -0.247,9.18 M 88.463,26.563 c 0,1.503 0.16,2.119 0.357,1.367 0.196,-0.752 0.196,-1.983 0,-2.735 -0.197,-0.752 -0.357,-0.136 -0.357,1.368 m 163.1,20.556 c 0,0.135 1.142,1.277 2.539,2.54 l 2.539,2.294 -2.295,-2.539 c -2.139,-2.367 -2.783,-2.898 -2.783,-2.295 M 46.689,66.959 c 0.972,0.187 2.378,0.18 3.125,-0.016 0.747,-0.196 -0.048,-0.348 -1.767,-0.34 -1.719,0.009 -2.33,0.169 -1.358,0.356 m 167.959,-0.001 c 0.967,0.186 2.549,0.186 3.516,0 0.967,-0.187 0.176,-0.339 -1.758,-0.339 -1.933,0 -2.724,0.152 -1.758,0.339 m 84.375,0 c 0.967,0.186 2.549,0.186 3.516,0 0.967,-0.187 0.176,-0.339 -1.758,-0.339 -1.933,0 -2.724,0.152 -1.758,0.339 m 83.603,0.001 c 0.972,0.187 2.378,0.18 3.125,-0.016 0.747,-0.196 -0.048,-0.348 -1.767,-0.34 -1.718,0.009 -2.33,0.169 -1.358,0.356 M 46.289,77.101 c 0.752,0.197 1.982,0.197 2.734,0 0.752,-0.196 0.137,-0.357 -1.367,-0.357 -1.504,0 -2.119,0.161 -1.367,0.357 m 252.344,0 c 0.752,0.197 1.982,0.197 2.734,0 0.752,-0.196 0.137,-0.357 -1.367,-0.357 -1.504,0 -2.119,0.161 -1.367,0.357 m 84.375,0 c 0.752,0.197 1.982,0.197 2.734,0 0.752,-0.196 0.137,-0.357 -1.367,-0.357 -1.504,0 -2.119,0.161 -1.367,0.357 M 15.82,137.257 c 0.752,0.197 1.983,0.197 2.735,0 0.752,-0.196 0.136,-0.357 -1.367,-0.357 -1.504,0 -2.12,0.161 -1.368,0.357 M 56.5,156.25 c 0,2.793 0.142,3.936 0.315,2.539 0.173,-1.396 0.173,-3.682 0,-5.078 -0.173,-1.397 -0.315,-0.254 -0.315,2.539 m 320.319,9.766 c 0.003,3.007 0.145,4.142 0.314,2.521 0.169,-1.621 0.166,-4.082 -0.007,-5.468 -0.172,-1.387 -0.311,-0.061 -0.307,2.947 M 56.25,182.812 c 0,6.159 0.158,11.041 0.35,10.848 0.543,-0.543 0.662,-21.034 0.125,-21.57 -0.261,-0.262 -0.475,4.564 -0.475,10.722 m 315.822,51.954 c 0.009,1.718 0.169,2.33 0.356,1.358 0.186,-0.972 0.179,-2.378 -0.016,-3.125 -0.196,-0.747 -0.349,0.048 -0.34,1.767 m -5.666,45.166 c 0,0.134 1.143,1.277 2.539,2.539 l 2.539,2.295 -2.294,-2.539 c -2.139,-2.367 -2.784,-2.899 -2.784,-2.295 m -57.474,32.959 c 0,10.742 0.11,15.245 0.245,10.006 0.135,-5.239 0.135,-14.028 10e-4,-19.531 -0.135,-5.504 -0.245,-1.218 -0.246,9.525 m 67.887,-8.594 c 0.003,3.008 0.145,4.142 0.314,2.522 0.169,-1.621 0.166,-4.082 -0.007,-5.469 -0.172,-1.387 -0.311,-0.061 -0.307,2.947 M 235.46,321.484 c 0.001,5.586 0.126,7.769 0.276,4.851 0.151,-2.919 0.15,-7.489 -0.002,-10.157 -0.152,-2.667 -0.276,-0.28 -0.274,5.306 m -220.021,1.725 c 0.972,0.187 2.378,0.18 3.125,-0.016 0.747,-0.196 -0.048,-0.348 -1.767,-0.34 -1.719,0.009 -2.33,0.169 -1.358,0.356 m 168.35,-0.014 c 0.752,0.196 1.982,0.196 2.734,0 0.752,-0.197 0.137,-0.357 -1.367,-0.357 -1.504,0 -2.119,0.16 -1.367,0.357 m 84.375,0 c 0.752,0.196 1.982,0.196 2.734,0 0.752,-0.197 0.137,-0.357 -1.367,-0.357 -1.504,0 -2.119,0.16 -1.367,0.357 m 83.994,0.014 c 0.971,0.187 2.378,0.18 3.125,-0.016 0.746,-0.196 -0.049,-0.348 -1.767,-0.34 -1.719,0.009 -2.33,0.169 -1.358,0.356 m -337.51,10.155 c 0.967,0.186 2.549,0.186 3.516,0 0.967,-0.186 0.176,-0.339 -1.758,-0.339 -1.933,0 -2.724,0.153 -1.758,0.339 m 168.75,0 c 0.967,0.186 2.549,0.186 3.516,0 0.967,-0.186 0.176,-0.339 -1.758,-0.339 -1.933,0 -2.724,0.153 -1.758,0.339 m 84.375,0 c 0.967,0.186 2.549,0.186 3.516,0 0.967,-0.186 0.176,-0.339 -1.758,-0.339 -1.933,0 -2.724,0.153 -1.758,0.339 m 83.594,0 c 0.967,0.186 2.549,0.186 3.516,0 0.967,-0.186 0.176,-0.339 -1.758,-0.339 -1.934,0 -2.725,0.153 -1.758,0.339 m -168.984,39.683 c 0,15.039 0.105,21.081 0.233,13.426 0.128,-7.655 0.128,-19.959 0,-27.344 -0.129,-7.384 -0.233,-1.121 -0.233,13.918 m 130.898,-24.365 c 0,0.134 1.143,1.277 2.539,2.539 l 2.539,2.295 -2.294,-2.539 c -2.139,-2.367 -2.784,-2.899 -2.784,-2.295 m -193.537,24.756 c 0,1.933 0.152,2.724 0.339,1.757 0.186,-0.966 0.186,-2.549 0,-3.515 -0.187,-0.967 -0.339,-0.176 -0.339,1.758 m -11.75,0 c 0,1.503 0.161,2.119 0.357,1.367 0.197,-0.752 0.197,-1.983 0,-2.735 -0.196,-0.752 -0.357,-0.136 -0.357,1.368 m 120.312,0 c 0,1.503 0.161,2.119 0.358,1.367 0.196,-0.752 0.196,-1.983 0,-2.735 -0.197,-0.752 -0.358,-0.136 -0.358,1.368"
       inkscape:connector-curvature="0"
       style="fill:#409dbe;fill-rule:evenodd;stroke:none" />
    <path
       id="path4"
       d="m 150.627,10.939 c -0.13,6.016 0.027,10.938 0.35,10.937 0.322,0 0.586,-4.923 0.586,-10.938 0,-14.149 -0.63,-14.148 -0.936,10e-4 M 59.18,54.471 c 1.396,0.174 3.681,0.174 5.078,0 1.396,-0.173 0.254,-0.315 -2.539,-0.315 -2.793,0 -3.936,0.142 -2.539,0.315 M 227.131,54.47 c 1.387,0.173 3.848,0.176 5.469,0.006 1.621,-0.169 0.486,-0.31 -2.522,-0.313 -3.008,-0.004 -4.334,0.135 -2.947,0.307 m 84.375,0 c 1.387,0.173 3.848,0.176 5.469,0.006 1.621,-0.169 0.486,-0.31 -2.522,-0.313 -3.008,-0.004 -4.334,0.135 -2.947,0.307 M 87.832,97.656 c 0,9.239 0.113,13.018 0.251,8.399 0.138,-4.619 0.138,-12.178 0,-16.797 -0.138,-4.619 -0.251,-0.84 -0.251,8.398 M 340.057,84.375 c 0,1.934 0.152,2.725 0.338,1.758 0.186,-0.967 0.186,-2.549 0,-3.516 -0.186,-0.967 -0.338,-0.176 -0.338,1.758 M 8.019,207.592 c 1.187,0.179 2.945,0.175 3.906,-0.011 0.961,-0.185 -0.011,-0.332 -2.159,-0.326 -2.149,0.006 -2.935,0.157 -1.747,0.337 m 79.804,39.674 c 0.001,7.734 0.118,10.792 0.26,6.796 0.142,-3.996 0.141,-10.324 -0.002,-14.062 -0.143,-3.738 -0.259,-0.469 -0.258,7.266 m 63.299,63.672 c 0,11.386 0.11,16.044 0.243,10.351 0.134,-5.693 0.134,-15.01 0,-20.703 -0.133,-5.693 -0.243,-1.035 -0.243,10.352 m 24.855,34.934 c 1.181,0.179 3.115,0.179 4.296,0 1.182,-0.179 0.215,-0.325 -2.148,-0.325 -2.363,0 -3.33,0.146 -2.148,0.325 m 84.375,0 c 1.181,0.179 3.115,0.179 4.296,0 1.182,-0.179 0.215,-0.325 -2.148,-0.325 -2.363,0 -3.33,0.146 -2.148,0.325 m 84.385,10e-4 c 1.188,0.18 2.946,0.175 3.907,-0.011 0.96,-0.185 -0.011,-0.332 -2.16,-0.326 -2.148,0.006 -2.934,0.158 -1.747,0.337 m -256.9,31.08 c 0,10.313 0.112,14.423 0.247,9.135 0.135,-5.288 0.135,-13.726 -0.001,-18.75 -0.136,-5.024 -0.247,-0.697 -0.246,9.615 m 252.321,-6.64 c 0,6.66 0.12,9.384 0.266,6.054 0.147,-3.33 0.147,-8.779 0,-12.109 -0.146,-3.33 -0.266,-0.606 -0.266,6.055 m -147.789,3.125 c 0,1.503 0.161,2.119 0.357,1.367 0.197,-0.752 0.197,-1.983 0,-2.735 -0.196,-0.752 -0.357,-0.136 -0.357,1.368"
       inkscape:connector-curvature="0"
       style="fill:#4aa3c3;fill-rule:evenodd;stroke:none" />
    <path
       id="path5"
       d="m 66.747,33.984 c 0,11.172 0.11,15.634 0.243,9.915 0.134,-5.719 0.134,-14.859 0,-20.312 -0.134,-5.453 -0.244,-0.775 -0.243,10.397 M 292.4,26.563 c 0,1.933 0.153,2.724 0.339,1.757 0.186,-0.966 0.186,-2.549 0,-3.515 -0.186,-0.967 -0.339,-0.176 -0.339,1.758 m -46.89,0.39 c 0.008,1.719 0.168,2.33 0.355,1.358 0.187,-0.972 0.18,-2.378 -0.016,-3.125 -0.195,-0.747 -0.348,0.048 -0.339,1.767 M 98.004,91.797 c -0.001,13.32 0.106,18.879 0.236,12.353 0.131,-6.526 0.131,-17.424 0.001,-24.218 -0.13,-6.795 -0.237,-1.455 -0.237,11.865 M 6.85,123.222 c 1.404,0.174 3.513,0.171 4.687,-0.008 1.174,-0.178 0.026,-0.32 -2.553,-0.316 -2.578,0.005 -3.538,0.151 -2.134,0.324 m 59.855,25.606 c 0.001,5.156 0.127,7.164 0.28,4.462 0.153,-2.703 0.152,-6.921 -0.002,-9.375 -0.155,-2.454 -0.28,-0.243 -0.278,4.913 m 326.604,23.438 c 10e-4,11.172 0.11,15.633 0.244,9.914 0.134,-5.718 0.133,-14.859 -10e-4,-20.312 -0.134,-5.453 -0.243,-0.774 -0.243,10.398 M 4.103,166.016 c 0.009,1.718 0.169,2.33 0.356,1.358 0.187,-0.972 0.18,-2.378 -0.016,-3.125 -0.196,-0.747 -0.348,0.048 -0.34,1.767 m 24.985,0.39 c 0,1.504 0.16,2.119 0.357,1.367 0.196,-0.752 0.196,-1.982 0,-2.734 -0.197,-0.752 -0.357,-0.137 -0.357,1.367 m 37.531,22.657 c 0,1.933 0.152,2.724 0.339,1.757 0.186,-0.966 0.186,-2.549 0,-3.515 -0.187,-0.967 -0.339,-0.176 -0.339,1.758 m -7.439,4.471 c 1.396,0.173 3.681,0.173 5.078,0 1.396,-0.173 0.254,-0.315 -2.539,-0.315 -2.793,0 -3.936,0.142 -2.539,0.315 m 335.937,-0.014 c 0.967,0.186 2.549,0.186 3.516,0 0.967,-0.186 0.176,-0.338 -1.758,-0.338 -1.934,0 -2.725,0.152 -1.758,0.338 M 97.945,253.906 c 0,4.512 0.129,6.358 0.287,4.102 0.158,-2.256 0.158,-5.947 0,-8.203 -0.158,-2.256 -0.287,-0.41 -0.287,4.101 m 298.344,23.195 c 0.752,0.197 1.982,0.197 2.734,0 0.752,-0.196 0.137,-0.357 -1.367,-0.357 -1.504,0 -2.119,0.161 -1.367,0.357 m -3.008,24.852 c 10e-4,6.445 0.122,8.978 0.269,5.628 0.147,-3.349 0.146,-8.623 -0.002,-11.718 -0.148,-3.096 -0.268,-0.355 -0.267,6.09 M 4.088,303.906 c 0,1.504 0.16,2.119 0.357,1.367 0.196,-0.752 0.196,-1.982 0,-2.734 -0.197,-0.752 -0.357,-0.137 -0.357,1.367 m 288.297,0.391 c 0.008,1.719 0.168,2.33 0.355,1.358 0.187,-0.972 0.18,-2.378 -0.016,-3.125 -0.195,-0.747 -0.348,0.048 -0.339,1.767 m -263.297,0.391 c 0,1.503 0.16,2.119 0.357,1.367 0.196,-0.752 0.196,-1.983 0,-2.735 -0.197,-0.752 -0.357,-0.136 -0.357,1.368 m 68.916,68.359 c -0.001,13.32 0.106,18.879 0.236,12.353 0.131,-6.526 0.131,-17.424 0.001,-24.218 -0.13,-6.795 -0.237,-1.455 -0.237,11.865"
       inkscape:connector-curvature="0"
       style="fill:#50a8c7;fill-rule:evenodd;stroke:none" />
    <path
       id="path6"
       d="m 140.936,15.234 c 0.068,3.332 0.31,3.918 1.642,3.983 1.106,0.055 1.175,-0.017 0.236,-0.244 -0.951,-0.23 -1.415,-1.356 -1.642,-3.983 l -0.316,-3.662 0.08,3.906 M 329.93,26.953 c 0.004,2.578 0.15,3.539 0.324,2.135 0.174,-1.405 0.17,-3.514 -0.008,-4.688 -0.179,-1.174 -0.321,-0.025 -0.316,2.553 m -73.499,-0.39 c 0,1.503 0.161,2.119 0.358,1.367 0.196,-0.752 0.196,-1.983 0,-2.735 -0.197,-0.752 -0.358,-0.136 -0.358,1.368 M 99.414,55.226 c 0.752,0.197 1.982,0.197 2.734,0 0.752,-0.196 0.137,-0.357 -1.367,-0.357 -1.504,0 -2.119,0.161 -1.367,0.357 m 84.375,0 c 0.752,0.197 1.982,0.197 2.734,0 0.752,-0.196 0.137,-0.357 -1.367,-0.357 -1.504,0 -2.119,0.161 -1.367,0.357 m 84.375,0 c 0.752,0.197 1.982,0.197 2.734,0 0.752,-0.196 0.137,-0.357 -1.367,-0.357 -1.504,0 -2.119,0.161 -1.367,0.357 m 83.594,0 c 0.752,0.197 1.982,0.197 2.734,0 0.752,-0.196 0.137,-0.357 -1.367,-0.357 -1.504,0 -2.119,0.161 -1.367,0.357 M 13.09,85.742 c 0.109,9.775 0.297,22.168 0.416,27.539 0.119,5.371 0.293,-2.627 0.387,-17.773 0.093,-15.147 -0.094,-27.54 -0.416,-27.54 -0.323,0 -0.497,7.998 -0.387,17.774 M 350.277,74.609 c -0.002,3.868 0.13,5.548 0.294,3.735 0.164,-1.813 0.166,-4.977 0.004,-7.031 -0.161,-2.054 -0.295,-0.571 -0.298,3.296 M 60.156,138.717 c 2.903,0.632 6.886,0.743 6.54,0.182 -0.21,-0.34 -2.031,-0.577 -4.047,-0.527 -2.015,0.05 -3.137,0.205 -2.493,0.345 m -46.523,96.049 c 0,15.039 0.105,21.08 0.233,13.426 0.128,-7.655 0.128,-19.96 0,-27.344 -0.129,-7.384 -0.233,-1.121 -0.233,13.918 m 347.517,-1.172 c 0,1.933 0.153,2.724 0.339,1.758 0.186,-0.967 0.186,-2.549 0,-3.516 -0.186,-0.967 -0.339,-0.176 -0.339,1.758 m -220.183,76.953 c 0,11.601 0.108,16.456 0.242,10.789 0.133,-5.668 0.133,-15.16 0,-21.094 -0.133,-5.934 -0.242,-1.297 -0.242,10.305 m 188.955,-5.859 c 0,2.363 0.146,3.33 0.325,2.148 0.179,-1.182 0.179,-3.115 0,-4.297 -0.179,-1.182 -0.325,-0.215 -0.325,2.149 M 130.664,345.07 c 0.752,0.196 1.982,0.196 2.734,0 0.752,-0.197 0.137,-0.357 -1.367,-0.357 -1.504,0 -2.119,0.16 -1.367,0.357 m 84.375,0 c 0.752,0.196 1.982,0.196 2.734,0 0.752,-0.197 0.137,-0.357 -1.367,-0.357 -1.504,0 -2.119,0.16 -1.367,0.357 m 84.375,0 c 0.752,0.196 1.982,0.196 2.734,0 0.752,-0.197 0.137,-0.357 -1.367,-0.357 -1.504,0 -2.119,0.16 -1.367,0.357 m 50.913,15.868 c 0,8.378 0.115,11.806 0.255,7.617 0.141,-4.19 0.141,-11.045 0,-15.235 -0.14,-4.189 -0.255,-0.761 -0.255,7.618 m -178.11,18.359 c 0,11.601 0.108,16.456 0.242,10.789 0.133,-5.668 0.133,-15.16 0,-21.094 -0.133,-5.934 -0.242,-1.297 -0.242,10.305 m 67.058,-5.859 c 0,1.933 0.153,2.724 0.339,1.757 0.186,-0.966 0.186,-2.549 0,-3.515 -0.186,-0.967 -0.339,-0.176 -0.339,1.758 m 37.469,0 c 0,1.503 0.161,2.119 0.357,1.367 0.197,-0.752 0.197,-1.983 0,-2.735 -0.196,-0.752 -0.357,-0.136 -0.357,1.368 m 6.069,19.775 c 0,0.135 1.142,1.277 2.539,2.539 l 2.539,2.295 -2.295,-2.539 c -2.139,-2.367 -2.783,-2.898 -2.783,-2.295"
       inkscape:connector-curvature="0"
       style="fill:#5aaecd;fill-rule:evenodd;stroke:none" />
    <path
       id="path7"
       d="m 136.133,3.576 c -3.545,1.951 -6.445,3.693 -6.445,3.871 0,0.178 0.75,1.868 1.666,3.755 l 1.667,3.431 3.986,-1.457 c 2.193,-0.802 4.079,-1.457 4.193,-1.457 0.113,0 0.206,1.523 0.206,3.384 0,3.333 0.05,3.396 3.321,4.193 1.826,0.445 3.935,1.069 4.687,1.387 1.263,0.534 1.367,-0.229 1.367,-10.053 l 0,-10.63 -4.101,0.014 c -3.384,0.012 -5.23,0.636 -10.547,3.562 m 36.743,-1.302 c -24.45,17.712 -4.925,63.559 21.467,50.408 17.154,-8.548 18.655,-40.551 2.383,-50.823 -4.821,-3.044 -19.426,-2.789 -23.85,0.415 m 47.691,1.116 c -7.184,4.166 -6.891,3.714 -5.073,7.823 l 1.561,3.531 3.973,-1.51 3.972,-1.509 0,21.091 0,21.09 5.078,0 5.078,0 0,-26.953 0,-26.953 -4.492,0.07 c -3.781,0.058 -5.38,0.584 -10.097,3.32 m 36.35,-0.826 c -20.171,15.384 -11.582,51.733 12.224,51.733 24.528,0 32.637,-41.511 10.39,-53.19 -4.604,-2.416 -18.729,-1.507 -22.614,1.457 M 100,2.021 C 97.207,2.634 94.208,3.272 93.336,3.438 79.937,5.992 73.776,21.715 79.58,38.545 c 7.118,20.636 33.966,22.477 39.105,2.682 0.923,-3.554 2.607,-8.477 3.743,-10.941 3.494,-7.576 0.023,-19.864 -7.473,-26.463 C 111.014,0.354 108.802,0.088 100,2.021 m 201.426,3.189 -3.653,2.02 1.66,3.416 c 1.826,3.759 2.429,3.965 6.547,2.245 1.542,-0.645 2.937,-1.172 3.1,-1.172 0.162,0 0.295,9.509 0.295,21.131 l 0,21.131 4.883,-0.233 4.883,-0.232 0,-23.041 0,-23.041 -4.951,-1.765 C 306.688,2.996 305.506,2.953 301.426,5.21 M 103.66,7.862 c 15.212,5.748 11.711,40.08 -3.874,37.99 C 86.006,44.003 83.965,13.907 97.227,8.13 c 2.945,-1.282 3.668,-1.313 6.433,-0.268 m 85.133,0.451 c 13.662,6.483 10.641,37.749 -3.651,37.776 -14.682,0.027 -17.477,-30.416 -3.501,-38.146 2.187,-1.21 4.024,-1.115 7.152,0.37 m 86.058,1.075 c 11.627,8.597 7.597,36.706 -5.264,36.706 -15.277,0 -17.962,-32.529 -3.181,-38.535 2.003,-0.814 6.058,0.064 8.445,1.829 M 65.225,14.077 c -0.27,0.438 -2.225,1.675 -4.343,2.748 l -3.851,1.951 0,17.565 0,17.565 4.688,0 4.687,0 0,-20.312 c 0,-19.574 -0.102,-21.262 -1.181,-19.517 m 266.632,1.361 c -1.813,4.26 -1.707,18.032 0.177,23.064 6.04,16.134 23.348,21.573 35.081,11.024 4.823,-4.336 4.886,-5.183 0.706,-9.442 l -3.273,-3.335 -1.622,2.891 c -8.63,15.385 -26.885,-0.621 -21.625,-18.961 0.655,-2.284 0.531,-2.438 -3.929,-4.869 l -4.605,-2.512 -0.91,2.14 M 34.17,37.858 c -2.476,2.674 -6.096,6.939 -8.045,9.479 -1.95,2.539 -4.058,5.239 -4.685,6 -1.054,1.278 -0.976,1.344 1.014,0.867 7.371,-1.768 14.659,-10.072 16.241,-18.505 0.671,-3.58 0.881,-3.68 -4.525,2.159 m 8.734,30.015 c -11.67,2.456 -20.434,18.575 -17.929,32.975 5.89,33.849 46.119,28.915 46.119,-5.656 0,-17.983 -12.946,-30.528 -28.19,-27.319 m 168.424,-0.001 c -2.155,0.543 -1.997,0.64 1.953,1.202 2.364,0.336 7.014,1.233 10.334,1.993 6.428,1.471 7.097,0.98 2.123,-1.558 -3.372,-1.72 -10.752,-2.559 -14.41,-1.637 m 83.063,0.365 c -6.305,1.767 -12.63,7.903 -14.741,14.299 -1.062,3.217 -1.407,2.801 3.956,4.779 l 4.309,1.589 2.135,-4.544 c 6.939,-14.769 22.305,-7.795 22.735,10.318 0.137,5.769 3.751,7.976 8.323,5.081 l 2.539,-1.608 -0.478,-6.193 C 321.853,74.881 308.87,64.18 294.391,68.237 m 85.231,-0.323 c -3.732,0.73 -7.743,3.293 -11.282,7.21 l -2.905,3.215 2.822,0.971 c 1.553,0.533 3.692,1.54 4.755,2.236 1.825,1.196 1.981,1.177 2.792,-0.338 2.339,-4.371 9.947,-5.997 14.128,-3.02 l 2.282,1.625 -1.592,-4.04 c -3.602,-9.137 -3.786,-9.269 -11,-7.859 M 84.375,71.893 c -3.652,2.112 -6.949,3.954 -7.325,4.093 -0.509,0.187 1.836,6.013 2.975,7.394 0.081,0.097 1.971,-0.517 4.201,-1.364 l 4.055,-1.541 0,16.701 0,16.701 3.471,0.874 c 6.435,1.62 5.904,3.684 5.904,-22.954 l 0,-23.828 -3.32,0.042 c -2.508,0.031 -4.946,0.982 -9.961,3.882 m 168.021,-0.029 -6.589,3.785 5.807,1.694 c 3.195,0.931 7.365,2.191 9.267,2.8 5.683,1.818 5.616,1.885 5.362,-5.338 l -0.227,-6.446 -3.516,-0.14 c -2.919,-0.117 -4.634,0.502 -10.104,3.645 m 84.323,0.029 c -3.653,2.112 -6.914,3.942 -7.247,4.066 -0.462,0.173 1.947,6.31 2.924,7.45 0.097,0.113 1.45,-0.327 3.006,-0.977 4.503,-1.881 5.223,-1.613 5.223,1.946 l 0,3.127 4.688,-2.93 4.687,-2.93 0,-6.838 0,-6.838 -3.32,0.042 c -2.508,0.031 -4.946,0.982 -9.961,3.882 M 10.487,73.242 C 4.567,85.75 3.496,91.195 3.728,107.617 l 0.212,15.039 4.671,0 4.67,0 0,-26.953 c 0,-14.824 -0.15,-26.953 -0.334,-26.953 -0.183,0 -1.29,2.021 -2.46,4.492 m 44.616,6.737 c 10.304,10.753 5.424,34.865 -7.056,34.865 -10.646,0 -16.734,-18.44 -10.262,-31.083 4.154,-8.116 11.607,-9.744 17.318,-3.782 m 341.56,20.554 c -1.241,10.402 -9.359,17.188 -16.191,13.531 -1.496,-0.8 -3.939,6.649 -2.79,8.508 2.338,3.782 20.083,-0.519 21.94,-5.318 0.481,-1.242 -0.884,-14.853 -1.85,-18.441 -0.583,-2.168 -0.66,-2.049 -1.109,1.72 M 9.425,138.993 c -1.907,0.773 -4.807,2.531 -6.446,3.907 L 0,145.401 l 0,20.513 0,20.512 2.148,2.014 c 12.7,11.9 31.749,4.986 36.472,-13.238 5.96,-23 -10.728,-43.698 -29.195,-36.209 m 42.393,3.801 -6.385,3.637 1.128,2.701 c 1.914,4.582 2.423,4.897 5.665,3.51 1.569,-0.672 3.292,-1.403 3.829,-1.625 0.719,-0.297 0.976,0.861 0.976,4.388 l 0,4.791 2.401,-1.241 c 1.523,-0.788 3.236,-1.058 4.688,-0.739 l 2.286,0.502 0,-9.828 0,-9.827 -4.101,0.047 c -3.397,0.04 -5.199,0.673 -10.487,3.684 m 336.854,-0.092 c -3.438,1.986 -6.363,3.704 -6.5,3.817 -0.215,0.176 2.768,6.533 3.406,7.257 0.126,0.144 1.814,-0.44 3.75,-1.297 4.699,-2.078 4.422,-3.327 4.422,19.917 l 0,20.573 3.125,0 3.125,0 0,-26.953 0,-26.953 -2.539,0.014 c -1.578,0.008 -4.906,1.381 -8.789,3.625 m -18.359,3.599 c 0,0.305 -0.918,3.987 -2.04,8.181 -1.121,4.195 -2.17,9.676 -2.33,12.18 -0.365,5.725 -1.628,10.477 -3.472,13.066 -2.896,4.068 -2.812,6.081 0.309,7.385 5.331,2.228 7.391,0.695 11.553,-8.597 2.615,-5.839 2.568,-19.283 -0.09,-25.391 -1.867,-4.29 -3.93,-7.873 -3.93,-6.824 m -346.882,3.395 c 10.308,9.313 6.692,33.617 -5.241,35.217 -9.993,1.341 -17.153,-13.25 -13.137,-26.773 3.198,-10.767 11.556,-14.607 18.378,-8.444 m 55.574,6.66 c -0.854,2.259 -0.835,2.284 1.303,1.725 2.016,-0.527 2.174,-1.265 0.559,-2.606 -0.963,-0.799 -1.284,-0.647 -1.862,0.881 m -21.949,26.652 -0.025,9.961 4.688,0 4.687,0 0,-4.25 c 0,-3.788 -0.318,-4.616 -2.932,-7.637 -1.612,-1.863 -3.711,-4.433 -4.663,-5.711 l -1.73,-2.324 -0.025,9.961 m -15.275,24.649 c -29.006,10.03 -17.852,63.183 11.519,54.896 17.747,-5.007 25.169,-38.681 10.063,-45.655 -4.338,-2.003 -7.113,-5.176 -7.113,-8.134 0,-2.275 -9.081,-2.97 -14.469,-1.107 m 336.735,5.184 c -3.438,3.564 -8.36,7.845 -10.938,9.513 -5.93,3.836 -5.833,3.68 -5.847,9.425 l -0.012,4.825 5.273,2.597 5.274,2.596 0.028,-7.422 c 0.093,-23.913 22.898,-25.817 24.382,-2.036 1.144,18.335 -11.877,29.044 -20.789,17.097 l -1.619,-2.17 -0.024,2.067 c -0.017,1.384 -0.973,2.9 -2.892,4.585 l -2.866,2.516 1.89,1.523 c 6.879,5.54 15.185,6.757 22.59,3.31 7.569,-3.523 7.034,-1.506 7.034,-26.516 l 0,-22.038 -3.049,-2.113 c -2.818,-1.954 -9.34,-4.425 -11.333,-4.294 -0.469,0.03 -3.665,2.971 -7.102,6.535 M 2.93,209.547 C 0.034,211.225 0,211.301 0,216.169 c 0,5.249 0.066,5.362 2.395,4.116 1.477,-0.79 1.511,-0.323 1.511,20.703 l 0,21.512 4.688,0 4.687,0 0,-27.344 0,-27.343 -3.711,0.017 c -2.363,0.012 -4.775,0.635 -6.64,1.717 m 51.815,8.867 c 8.457,8.103 7.119,30.409 -2.076,34.598 -8.589,3.914 -16.62,-3.657 -17.356,-16.362 -0.916,-15.831 10.631,-26.667 19.432,-18.236 m 33.536,29.262 0,13.3 2.004,0.762 c 1.102,0.419 3.212,0.762 4.688,0.762 l 2.683,0 0,-8.635 0,-8.636 -4.385,-5.427 c -2.411,-2.985 -4.521,-5.427 -4.687,-5.427 -0.167,0 -0.303,5.985 -0.303,13.301 M 11.68,276.845 c -3.881,1.047 -8.295,3.522 -10.371,5.816 -1.467,1.621 -0.834,11.073 1.397,20.855 l 1.069,4.687 0.066,-4.121 c 0.306,-19.271 18.982,-26.159 24.15,-8.907 5.914,19.738 -8.414,37.343 -19.552,24.025 -2.025,-2.422 -1.709,-1.031 1.423,6.26 3.24,7.54 4.085,8.062 10.854,6.703 4.799,-0.964 9.356,-3.585 12.283,-7.063 l 2.01,-2.389 -1.489,-4.785 c -2.104,-6.76 -2.039,-18.325 0.143,-25.389 3.279,-10.615 -8.81,-19.244 -21.983,-15.692 m 338.492,-0.405 c -0.801,0.508 -0.763,1.09 0.19,2.918 0.655,1.255 1.193,3.074 1.196,4.04 0.004,1.444 0.437,1.758 2.423,1.758 7.67,0 13.275,11.756 11.547,24.219 -2.095,15.101 -15.872,19.264 -22.355,6.755 -2.627,-5.068 -3.068,-17.817 -0.766,-22.13 l 1.326,-2.483 -4.185,-0.523 c -8.153,-1.019 -9.381,1.039 -8.868,14.865 1.374,37.086 45.314,35.484 45.458,-1.657 0.042,-10.885 -3.253,-18.719 -10.017,-23.815 -4.673,-3.521 -13.269,-5.648 -15.949,-3.947 m 38.891,4.462 c -3.223,1.88 -6.168,3.533 -6.545,3.674 -0.515,0.192 1.869,6.088 3.003,7.425 0.095,0.112 1.678,-0.328 3.518,-0.977 1.84,-0.649 3.652,-1.18 4.028,-1.18 0.376,0 0.708,5.713 0.738,12.695 0.055,12.704 0.975,14.169 2.71,4.319 0.21,-1.192 0.885,-4.365 1.501,-7.052 0.616,-2.686 1.364,-8.839 1.663,-13.673 l 0.543,-8.789 -2.65,0.069 c -1.62,0.043 -4.929,1.399 -8.509,3.489 m -256.819,2.569 c -1.191,0.61 -2.274,1.202 -2.407,1.313 -0.286,0.241 1.777,5.002 2.809,6.485 0.593,0.85 1.245,0.815 3.664,-0.195 5.396,-2.255 5.096,-3.422 5.096,19.864 l 0,21.093 4.688,0 4.687,0 -0.054,-20.898 -0.054,-20.899 -8.132,-3.937 c -7.676,-3.716 -8.253,-3.875 -10.297,-2.826 m 184.553,8.476 c -0.859,0.197 -2.881,0.698 -4.492,1.111 l -2.93,0.752 0,19.148 0,19.148 4.883,-0.233 4.883,-0.232 0.208,-20.118 c 0.115,-11.064 -0.061,-20.076 -0.39,-20.026 -0.33,0.05 -1.303,0.252 -2.162,0.45 m -154.381,5.21 c -2.945,10.84 2.496,26.758 10.976,32.111 14.118,8.912 33.305,-1.793 33.884,-18.903 l 0.146,-4.329 -4.783,-1.366 -4.782,-1.366 -0.416,4.587 c -2.09,23.055 -23.554,20.369 -24.759,-3.099 l -0.416,-8.099 -4.486,-1.385 -4.485,-1.385 -0.879,3.234 m 124.559,5.858 c -4.712,2.016 -4.834,2.144 -5.318,5.579 -2.285,16.216 -17.091,20.324 -23.23,6.445 l -1.469,-3.32 -5.041,0 c -5.862,0 -5.966,0.21 -3.2,6.465 8.513,19.247 32.072,19.319 40.86,0.124 1.649,-3.601 3.704,-17.764 2.531,-17.441 -0.171,0.047 -2.481,1.014 -5.133,2.148 M 225,321.047 l 0,11.059 4.883,-0.233 4.883,-0.232 0.218,-9.858 0.217,-9.857 -3.938,-0.522 c -2.166,-0.288 -4.461,-0.724 -5.101,-0.969 -0.995,-0.382 -1.162,1.144 -1.162,10.612 m -184.572,25.38 c -3.836,1.369 -8.163,4.714 -9.995,7.726 l -1.466,2.41 3.681,3.945 3.68,3.945 1.269,-2.734 c 7.721,-16.642 26.557,-3.225 22.667,16.146 -0.489,2.435 -0.801,4.486 -0.694,4.559 0.108,0.074 2.174,1.247 4.592,2.607 l 4.397,2.474 1.267,-5.046 c 2.863,-11.397 0.632,-23.323 -4.899,-26.189 -1.55,-0.803 -4.916,-3.597 -7.481,-6.209 l -4.663,-4.748 -4.712,0.034 c -2.591,0.019 -6.031,0.505 -7.643,1.08 m 82.416,0.891 c -17.064,8.504 -18.984,38.896 -3.18,50.344 7.314,5.299 23.709,2.995 29.013,-4.078 17.323,-23.101 -2.189,-58.048 -25.833,-46.266 m 85.831,-1.102 c -14.513,4.172 -20.552,31.608 -10.126,46.001 7.524,10.387 25.391,11.418 33.697,1.943 9.149,-10.435 9.082,-31.499 -0.133,-41.995 -5.242,-5.97 -14.867,-8.413 -23.438,-5.949 m 84.204,0.127 c -16.901,6.321 -21.336,34.241 -7.685,48.384 4.905,5.082 6.035,5.34 14.574,3.326 2.666,-0.629 5.83,-1.317 7.032,-1.53 12.321,-2.183 16.253,-7.753 16.238,-23.006 -0.019,-20.473 -14.115,-33.174 -30.159,-27.174 m -124.91,3.399 c -3.653,1.991 -6.784,3.739 -6.958,3.884 -0.401,0.333 2.345,6.485 3.104,6.953 0.309,0.191 2.05,-0.177 3.869,-0.819 1.818,-0.641 3.614,-1.166 3.989,-1.166 0.376,0 0.683,9.316 0.683,20.703 l 0,20.703 4.688,0 4.687,0 0,-26.953 0,-26.953 -3.711,0.014 c -2.921,0.012 -5.124,0.785 -10.351,3.634 m 84.375,-0.111 c -3.223,1.906 -6.195,3.584 -6.606,3.729 -0.851,0.299 1.71,7.578 2.666,7.578 0.34,0 2.113,-0.528 3.94,-1.172 1.827,-0.645 3.453,-1.172 3.614,-1.172 0.16,0 0.292,9.316 0.292,20.703 l 0,20.703 5.078,0 5.078,0 0,-26.953 0,-26.953 -4.101,0.035 c -3.417,0.029 -5.081,0.614 -9.961,3.502 m 83.425,0.448 -6.808,3.897 1.691,3.481 c 1.901,3.913 1.929,3.925 5.797,2.309 1.542,-0.645 3.113,-1.172 3.49,-1.172 0.377,0 0.686,5.294 0.686,11.765 0,9.221 0.211,11.63 0.977,11.144 0.537,-0.341 1.152,-0.637 1.367,-0.657 0.215,-0.021 1.871,-1.081 3.681,-2.356 l 3.291,-2.318 0.029,-15.039 0.03,-15.039 -3.711,0.043 c -2.975,0.036 -5.061,0.817 -10.52,3.942 m 37.626,-1.78 c -4.951,3.143 -10.816,11.624 -10.878,15.731 -0.024,1.577 6.223,-4.661 11.363,-11.35 5.706,-7.423 5.614,-8.253 -0.485,-4.381 m -278.522,4.143 c -2.557,2.721 -10.712,6.931 -13.428,6.932 -0.966,10e-4 -1.757,0.353 -1.757,0.782 0,1.08 1.138,0.98 4.417,-0.39 1.542,-0.645 3.113,-1.172 3.49,-1.172 0.378,0 0.686,8.224 0.686,18.276 0,20.249 -0.397,18.799 5.402,19.716 1.541,0.244 3.065,0.605 3.387,0.803 0.323,0.198 0.586,-10.384 0.586,-23.515 0,-13.131 -0.11,-23.874 -0.244,-23.874 -0.135,0 -1.277,1.099 -2.539,2.442 m 42.309,3.186 c 4.689,3.213 7.318,9.54 7.337,17.659 0.061,25.135 -23.652,26.307 -24.831,1.227 -0.701,-14.927 8.607,-24.975 17.494,-18.886 m 83.129,-0.551 c 8.992,4.65 11.509,23.308 4.401,32.627 -4.329,5.676 -9.624,6.561 -14.534,2.429 -13.401,-11.277 -4.361,-42.551 10.133,-35.056 m 84.901,0.346 c 5.663,3.453 9.004,14 7.298,23.039 -3.718,19.706 -22.282,18.512 -24.588,-1.581 -1.755,-15.281 7.857,-27.21 17.29,-21.458"
       inkscape:connector-curvature="0"
       style="fill:#68b7d4;fill-rule:evenodd;stroke:none" />
    <path
       id="path8"
       d="m 134.548,20.679 c -6.427,2.007 -11.81,7.751 -13.354,14.248 -0.387,1.63 -1.828,7.007 -3.202,11.948 -1.374,4.941 -3.172,11.533 -3.995,14.648 -1.537,5.817 -3.647,13.712 -5.69,21.29 -2.202,8.165 -4.407,16.428 -5.994,22.46 -2.746,10.438 -3.053,11.134 -4.913,11.122 -2.632,-0.018 -11.288,-2.2 -17.239,-4.345 -17.421,-6.28 -17.241,19.563 0.292,41.743 4.006,5.069 3.802,5.176 -9.993,5.257 -20.361,0.118 -20.907,6.64 -2.173,25.954 l 6.294,6.489 -3.111,2.71 c -1.711,1.491 -5.058,4.071 -7.439,5.734 -10.127,7.075 -9.215,12.123 3.304,18.287 13.438,6.616 23.379,15.718 33.022,30.235 15.486,23.311 36.475,37.844 66.049,45.733 5.801,1.548 12.305,3.286 14.453,3.863 2.149,0.578 7.422,1.992 11.719,3.144 4.297,1.151 9.57,2.583 11.719,3.181 35.607,9.913 58.835,8.997 85.533,-3.373 2.371,-1.098 6.225,-2.855 8.565,-3.903 12.449,-5.579 24.807,-7.773 38.913,-6.906 l 8.793,0.54 2.34,-2.34 c 2.613,-2.613 3.135,-6.447 1.245,-9.146 -1.383,-1.974 -4.85,-10.462 -5.521,-13.515 -0.468,-2.131 -0.306,-2.354 2.078,-2.862 10.325,-2.198 24.879,-8.446 26.431,-11.346 2.597,-4.853 0.451,-8.808 -6.513,-12 -5.431,-2.489 -13.817,-8.41 -13.817,-9.756 0,-0.362 1.839,-1.423 4.087,-2.357 14.875,-6.182 29.507,-20.276 29.506,-28.424 0,-4.61 -1.833,-5.961 -10.417,-7.677 -8.87,-1.773 -16.143,-4.308 -16.15,-5.629 -0.003,-0.506 0.863,-4.084 1.924,-7.952 1.062,-3.867 4.088,-15.117 6.726,-25 7.124,-26.693 7.497,-28.074 10.443,-38.671 4.817,-17.326 4.375,-22.206 -2.63,-28.987 -11.092,-10.738 -14.996,-9.695 -52.452,14.018 l -5.135,3.25 -5.021,-2.436 C 302.242,94.581 274.258,84.323 261.097,80.8 231.091,72.767 218.582,70.242 191.918,66.836 183.82,65.801 177.094,64.842 176.972,64.704 176.609,64.294 166.118,44.712 162.009,36.774 154.427,22.126 145.907,17.132 134.548,20.679 m 11.101,17.993 c 0.953,1.719 3.957,7.344 6.675,12.5 2.718,5.156 6.072,11.484 7.454,14.062 5.136,9.584 8.901,16.676 14.1,26.563 7.899,15.019 11.942,17.816 17.588,12.169 3.301,-3.301 3.004,-5.956 -1.622,-14.513 -2.149,-3.973 -3.906,-7.401 -3.906,-7.618 0,-1.356 36.947,4.685 51.953,8.495 21.869,5.553 39.432,11.159 57.031,18.203 8.492,3.4 8.497,3.154 -0.191,8.493 -11.402,7.007 -12.997,15.615 -3.289,17.748 2.829,0.621 0.944,1.688 38.636,-21.874 32.258,-20.166 30.924,-19.443 33.622,-18.214 2.646,1.206 3.091,3.601 1.672,8.996 -0.654,2.487 -1.92,7.246 -2.812,10.576 -2.003,7.476 -4.274,15.991 -6.251,23.437 -5.965,22.473 -10.958,40.652 -11.243,40.937 -0.622,0.622 -9.268,-7.805 -10.089,-9.834 -0.445,-1.101 -1.099,-3.71 -1.454,-5.798 -2.186,-12.891 -16.937,-10.191 -15.216,2.785 1.959,14.766 16.959,28.342 40.482,36.638 2.9,1.023 5.274,2.109 5.274,2.413 -10e-4,1.844 -13.269,9.139 -19.546,10.747 -9.397,2.406 -11.173,4.899 -9.01,12.646 1.902,6.811 3.097,8.907 8.028,14.076 l 4.254,4.46 -2.996,0.856 c -1.648,0.471 -5.281,1.065 -8.074,1.32 -10.917,0.996 -12.809,6.532 -7.124,20.836 1.788,4.499 1.317,5.223 -3.395,5.223 -9.877,0 -25.777,4.247 -38.7,10.337 -25.631,12.078 -45.467,13.751 -72.656,6.128 -6.527,-1.831 -13.474,-3.708 -34.766,-9.398 -22.17,-5.924 -22.773,-6.128 -32.422,-10.941 -14.752,-7.359 -24.293,-16.302 -37.331,-34.991 -6.25,-8.958 -16.798,-19.533 -24.63,-24.693 l -6.102,-4.02 6.185,-5.859 c 10.197,-9.659 10.547,-13.34 1.838,-19.31 -2.016,-1.383 -4.812,-3.697 -6.214,-5.144 l -2.55,-2.63 4.52,-1.004 c 11.555,-2.567 20.584,-11.32 18.185,-17.63 -0.458,-1.205 -2.908,-4.41 -5.445,-7.121 -4.377,-4.68 -10.125,-13.468 -11.3,-17.279 -0.656,-2.128 -0.6,-2.131 8.073,-0.506 23.639,4.43 45.844,-1.787 52.496,-14.697 4.759,-9.235 -7.573,-16.555 -12.848,-7.626 -2.054,3.476 -5.834,5.961 -11.161,7.334 -6.621,1.707 -6.459,1.794 -5.321,-2.864 1.14,-4.667 1.523,-6.102 11.316,-42.383 3.943,-14.609 7.505,-27.963 7.915,-29.676 1.643,-6.857 7.171,-8.113 10.367,-2.355 m 20.367,114.487 c -10.768,3.529 -16.574,16.749 -11.83,26.935 9.767,20.975 40.513,12.004 37.641,-10.981 -1.433,-11.472 -14.618,-19.622 -25.811,-15.954 m 89.814,25.769 c -14.307,4.537 -24.161,18.798 -15.93,23.054 3.536,1.829 4.437,1.443 9.953,-4.259 13.068,-13.512 31.804,-7.973 34.132,10.09 1.289,10.008 12.89,10.871 12.89,0.958 0,-20.337 -21.57,-36.02 -41.045,-29.843 m -70.943,25.626 c -1.769,1.954 -2.02,1.277 4.957,13.415 8.101,14.095 7.987,15.932 -1.521,24.49 -15.221,13.7 -38.955,5.908 -43.381,-14.243 -2.015,-9.173 -15.016,-6.469 -14.32,2.979 1.535,20.832 26.37,37.449 48.675,32.568 4.322,-0.946 6.336,-1.804 15.885,-6.763 4.051,-2.104 8.02,-0.893 9.684,2.955 10.445,24.161 42.232,31.305 63.717,14.322 6.218,-4.915 7.731,-8.921 5.07,-13.426 -2.851,-4.826 -8.202,-4.456 -14.093,0.974 -15.927,14.681 -41.208,4.405 -43.576,-17.712 -0.715,-6.674 -0.268,-7.222 11.159,-13.713 17.962,-10.203 18.547,-11.556 6.366,-14.72 -3.176,-0.825 -15.032,-3.988 -26.346,-7.028 -24.046,-6.46 -20.696,-5.844 -22.276,-4.098 M 65.681,262.18 c -28.121,7.56 -41.541,40.144 -27.16,65.945 3.228,5.791 21.996,24.879 27.301,27.766 5.706,3.106 13.927,3.555 20.506,1.122 7.01,-2.593 40.862,-36.352 42.969,-42.852 3.96,-12.213 1.183,-18.984 -13.994,-34.122 C 97.475,262.256 83.761,257.32 65.681,262.18 m 11.304,13.086 c 3.125,3.125 3.991,5.998 2.728,9.047 -2.679,6.468 -10.573,8.25 -14.933,3.37 -7.591,-8.495 4.167,-20.455 12.205,-12.417 m 23.42,3.653 c 7.838,7.365 -0.217,19.386 -9.703,14.48 -8.563,-4.428 -4.672,-17.594 4.883,-16.521 1.653,0.186 3.822,1.104 4.82,2.041 m -40.847,13.986 c 4.88,4.36 3.098,12.254 -3.37,14.933 -3.049,1.263 -5.922,0.397 -9.047,-2.728 -8.038,-8.038 3.922,-19.796 12.417,-12.205 m 26.77,7.877 c 1.719,0.84 3.709,1.954 4.423,2.474 1.022,0.744 1.97,0.724 4.446,-0.093 8.203,-2.707 16.256,3.873 14.538,11.879 -0.776,3.611 -18.342,21.384 -22.311,22.573 -8.685,2.602 -14.903,-5.641 -12.05,-15.975 0.463,-1.675 0.237,-2.592 -0.96,-3.906 -8.012,-8.796 1.352,-22.119 11.914,-16.952 M 62.177,315.35 c 6.156,4.034 5.181,13.652 -1.611,15.894 -9.849,3.25 -16.682,-10.349 -7.894,-15.708 2.972,-1.813 6.905,-1.889 9.505,-0.186"
       inkscape:connector-curvature="0"
       style="fill:#154563;fill-rule:evenodd;stroke:none" />
    <path
       id="path9"
       d="m 155.072,25.784 c 3.704,4.328 3.755,4.376 2.908,2.732 -0.443,-0.86 -1.804,-2.441 -3.025,-3.513 l -2.221,-1.95 2.338,2.731 m 43.561,41.942 c 0.752,0.197 1.982,0.197 2.734,0 0.752,-0.196 0.137,-0.357 -1.367,-0.357 -1.504,0 -2.119,0.161 -1.367,0.357 M 105.3,132.608 c 2.27,0.158 5.786,0.157 7.812,-0.004 2.027,-0.16 0.169,-0.289 -4.128,-0.287 -4.296,0.002 -5.955,0.133 -3.684,0.291 M 68.693,186.09 c 4.489,4.692 4.896,5.377 3.942,6.641 -1.02,1.35 -1.001,1.351 0.437,0.032 1.466,-1.344 1.369,-1.506 -3.941,-6.641 l -5.444,-5.263 5.006,5.231 m 117.202,0.433 -2.692,2.93 2.93,-2.692 c 2.727,-2.506 3.289,-3.167 2.692,-3.167 -0.13,0 -1.449,1.318 -2.93,2.929 m 99.261,-1.904 c 0,0.135 1.143,1.277 2.539,2.54 l 2.539,2.294 -2.294,-2.539 c -2.139,-2.367 -2.784,-2.898 -2.784,-2.295 m -21.679,5.763 c 0.752,0.197 1.982,0.197 2.734,0 0.752,-0.196 0.137,-0.357 -1.367,-0.357 -1.504,0 -2.119,0.161 -1.367,0.357 m 122.642,8.837 c 0,1.504 0.161,2.119 0.357,1.367 0.197,-0.752 0.197,-1.982 0,-2.734 -0.196,-0.752 -0.357,-0.137 -0.357,1.367 m -303.306,29.15 c 0,0.135 1.142,1.277 2.539,2.54 l 2.539,2.294 -2.295,-2.539 c -2.139,-2.367 -2.783,-2.898 -2.783,-2.295 m 47.056,2.1 c 0,1.504 0.161,2.119 0.357,1.367 0.197,-0.752 0.197,-1.982 0,-2.734 -0.196,-0.752 -0.357,-0.137 -0.357,1.367 m 222.475,-1.048 c 0,0.427 0.967,1.628 2.148,2.669 l 2.149,1.894 -1.953,-2.343 c -1.075,-1.289 -2.042,-2.491 -2.149,-2.67 -0.107,-0.179 -0.195,0.024 -0.195,0.45 m -10.938,11.448 c 0,0.135 1.143,1.277 2.539,2.54 l 2.539,2.294 -2.294,-2.539 c -2.139,-2.367 -2.784,-2.898 -2.784,-2.295 m -218.75,11.719 c 0,0.135 1.143,1.277 2.539,2.539 l 2.539,2.295 -2.294,-2.539 c -2.139,-2.367 -2.784,-2.898 -2.784,-2.295 m -48.242,8.137 c 1.611,0.169 4.248,0.169 5.859,0 1.612,-0.168 0.293,-0.306 -2.929,-0.306 -3.223,0 -4.541,0.138 -2.93,0.306 m 39.258,4.9 c 2.985,3.008 5.603,5.469 5.817,5.469 0.215,0 -2.051,-2.461 -5.036,-5.469 -2.985,-3.008 -5.603,-5.469 -5.817,-5.469 -0.215,0 2.051,2.461 5.036,5.469 m 2.344,14.844 c 5.142,5.156 9.526,9.375 9.741,9.375 0.215,0 -3.817,-4.219 -8.96,-9.375 -5.143,-5.156 -9.526,-9.375 -9.741,-9.375 -0.215,0 3.817,4.219 8.96,9.375 m 210.742,-5.712 c 0.752,0.197 1.982,0.197 2.734,0 0.752,-0.196 0.137,-0.357 -1.367,-0.357 -1.504,0 -2.119,0.161 -1.367,0.357 m -86.719,9.396 c 1.182,0.179 3.115,0.179 4.297,0 1.182,-0.179 0.215,-0.325 -2.148,-0.325 -2.364,0 -3.331,0.146 -2.149,0.325 m 85.938,6.25 c 1.181,0.179 3.115,0.179 4.296,0 1.182,-0.179 0.215,-0.325 -2.148,-0.325 -2.363,0 -3.33,0.146 -2.148,0.325 m -90.226,5.462 c 0.972,0.187 2.378,0.18 3.125,-0.016 0.747,-0.195 -0.048,-0.348 -1.767,-0.339 -1.718,0.008 -2.33,0.168 -1.358,0.355 m 14.063,0 c 0.972,0.187 2.378,0.18 3.125,-0.016 0.747,-0.195 -0.048,-0.348 -1.767,-0.339 -1.719,0.008 -2.33,0.168 -1.358,0.355 m -119.111,9.604 c 0,2.363 0.146,3.33 0.325,2.148 0.179,-1.181 0.179,-3.115 0,-4.297 -0.179,-1.181 -0.325,-0.215 -0.325,2.149 m -98.459,0 c 0,1.933 0.152,2.724 0.339,1.758 0.186,-0.967 0.186,-2.549 0,-3.516 -0.187,-0.967 -0.339,-0.176 -0.339,1.758 m 224.983,5.226 c 0.752,0.196 1.982,0.196 2.734,0 0.752,-0.197 0.137,-0.357 -1.367,-0.357 -1.504,0 -2.119,0.16 -1.367,0.357 m -19.521,0.803 c 1.188,0.18 2.945,0.175 3.906,-0.011 0.961,-0.185 -0.01,-0.332 -2.159,-0.326 -2.148,0.006 -2.934,0.158 -1.747,0.337 m 9.364,-0.022 c 0.752,0.197 1.983,0.197 2.735,0 0.752,-0.196 0.136,-0.357 -1.367,-0.357 -1.504,0 -2.12,0.161 -1.368,0.357 m -137.312,25.438 -15.617,15.82 15.82,-15.617 c 14.699,-14.511 16.173,-16.023 15.618,-16.023 -0.112,0 -7.231,7.119 -15.821,15.82 m -62.102,3.32 c 2.768,2.793 5.209,5.079 5.424,5.079 0.215,0 -1.874,-2.286 -4.642,-5.079 -2.769,-2.793 -5.209,-5.078 -5.424,-5.078 -0.215,0 1.874,2.285 4.642,5.078 m 27.55,18.92 c 1.188,0.18 2.945,0.175 3.906,-0.01 0.961,-0.186 -0.01,-0.333 -2.159,-0.327 -2.148,0.006 -2.934,0.158 -1.747,0.337"
       inkscape:connector-curvature="0"
       style="fill:#1d6080;fill-rule:evenodd;stroke:none" />
  </g>
</svg>
