<?xml version="1.0" encoding="UTF-8" standalone="no"?>
<!-- Created with Inkscape (http://www.inkscape.org/) -->

<svg
   xmlns:dc="http://purl.org/dc/elements/1.1/"
   xmlns:cc="http://creativecommons.org/ns#"
   xmlns:rdf="http://www.w3.org/1999/02/22-rdf-syntax-ns#"
   xmlns:svg="http://www.w3.org/2000/svg"
   xmlns="http://www.w3.org/2000/svg"
   xmlns:sodipodi="http://sodipodi.sourceforge.net/DTD/sodipodi-0.dtd"
   xmlns:inkscape="http://www.inkscape.org/namespaces/inkscape"
   width="512"
   height="512"
   viewBox="0 0 512.00001 511.99996"
   id="svg4149"
   version="1.1"
   inkscape:version="0.91 r13725"
   sodipodi:docname="icon-protonmail.svg">
  <defs
     id="defs4151" />
  <sodipodi:namedview
     id="base"
     pagecolor="#ffffff"
     bordercolor="#666666"
     borderopacity="1.0"
     inkscape:pageopacity="0.0"
     inkscape:pageshadow="2"
     inkscape:zoom="0.41246888"
     inkscape:cx="-236.04461"
     inkscape:cy="195.88909"
     inkscape:document-units="px"
     inkscape:current-layer="layer1"
     showgrid="false"
     fit-margin-top="0"
     fit-margin-left="0"
     fit-margin-right="0"
     fit-margin-bottom="0"
     units="px"
     inkscape:window-width="1920"
     inkscape:window-height="1102"
     inkscape:window-x="0"
     inkscape:window-y="25"
     inkscape:window-maximized="1" />
  <metadata
     id="metadata4154">
    <rdf:RDF>
      <cc:Work
         rdf:about="">
        <dc:format>image/svg+xml</dc:format>
        <dc:type
           rdf:resource="http://purl.org/dc/dcmitype/StillImage" />
        <dc:title></dc:title>
      </cc:Work>
    </rdf:RDF>
  </metadata>
  <g
     inkscape:label="Layer 1"
     inkscape:groupmode="layer"
     id="layer1"
     transform="translate(-2181.448,-1236.2012)">
    <g
       transform="matrix(0.76339597,0,0,0.76339597,2257.9353,1236.9736)"
       style="fill:#333366"
       id="g26">
      <path
         inkscape:connector-curvature="0"
         d="m 238.688,0.021 c 0,0 -197.877,-6.5 -238.688,213 l 0,149.5 c 0,0 1.688,16 46.688,48.5 45,32.5 161.5,124 192,124 30.5,0 147,-91.5 192,-124 45,-32.5 46.688,-48.5 46.688,-48.5 l 0,-149.5 c -40.811,-219.5 -238.688,-213 -238.688,-213 z m 135.5,294.5 -135.5,0 -135.5,0 0,-81.5 c 27.5,-109 135.5,-110.5 135.5,-110.5 0,0 108,1.5 135.5,110.5 l 0,81.5 z"
         id="path28" />
      <path
         inkscape:connector-curvature="0"
         d="m 238.688,568.688 c 0,0 -30.667,-3.001 -54.667,-19.667 C 160.021,532.355 0,418.021 0,418.021 l 0,226.334 c 0,0 1.355,26.333 30.355,26.333 29,0 208.333,0 208.333,0 0,0 179.333,0 208.333,0 29,0 30.355,-26.333 30.355,-26.333 l 0,-226.334 c 0,0 -160.022,114.334 -184.022,131 -24,16.666 -54.666,19.667 -54.666,19.667 z"
         id="path30" />
    </g>
  </g>
</svg>
