<?xml version="1.0" encoding="UTF-8" standalone="no"?>
<svg
   xmlns:dc="http://purl.org/dc/elements/1.1/"
   xmlns:cc="http://creativecommons.org/ns#"
   xmlns:rdf="http://www.w3.org/1999/02/22-rdf-syntax-ns#"
   xmlns:svg="http://www.w3.org/2000/svg"
   xmlns="http://www.w3.org/2000/svg"
   xmlns:sodipodi="http://sodipodi.sourceforge.net/DTD/sodipodi-0.dtd"
   xmlns:inkscape="http://www.inkscape.org/namespaces/inkscape"
   id="svg"
   version="1.1"
   width="392.30844"
   height="392.30844"
   style="display:block"
   sodipodi:docname="icon-efa.svg"
   inkscape:version="0.92.1 r15371">
  <metadata
     id="metadata9">
    <rdf:RDF>
      <cc:Work
         rdf:about="">
        <dc:format>image/svg+xml</dc:format>
        <dc:type
           rdf:resource="http://purl.org/dc/dcmitype/StillImage" />
        <dc:title></dc:title>
      </cc:Work>
    </rdf:RDF>
  </metadata>
  <defs
     id="defs7" />
  <sodipodi:namedview
     pagecolor="#ffffff"
     bordercolor="#666666"
     borderopacity="1"
     objecttolerance="10"
     gridtolerance="10"
     guidetolerance="10"
     inkscape:pageopacity="0"
     inkscape:pageshadow="2"
     inkscape:window-width="1920"
     inkscape:window-height="1107"
     id="namedview5"
     showgrid="false"
     fit-margin-top="0"
     fit-margin-left="0"
     fit-margin-right="0"
     fit-margin-bottom="0"
     inkscape:zoom="1.668772"
     inkscape:cx="16.075687"
     inkscape:cy="192.66388"
     inkscape:window-x="0"
     inkscape:window-y="25"
     inkscape:window-maximized="1"
     inkscape:current-layer="svg" />
  <path
     id="path0-3"
     d="m 184.12715,0.7804881 c -1.375,0.223 -3.4,0.836 -4.5,1.362 -1.1,0.526 -3.575,1.52 -5.5,2.208 -3.408,1.219 -25.413,13.5879999 -39.5,22.2029999 -3.85,2.354 -7.338,4.089 -7.75,3.856 -0.412,-0.234 -0.75,0.052 -0.75,0.634 0,0.582 -0.468,1.059 -1.04,1.059 -0.573,0 -2.33,0.953 -3.905,2.118 -1.576,1.165 -3.31,1.842 -3.855,1.506 -0.545,-0.337 -1.249,0.061 -1.564,0.883 -0.316,0.823 -2.276,2.283 -4.355,3.244 -2.08,0.962 -4.006,2.013 -4.281,2.335 -0.866,1.015 -14.481,8.381 -14.888,8.054 -0.214,-0.171 -0.664,0.103 -1,0.609 -0.893,1.343 -25.387,15.531 -26.862,15.56 -0.687,0.013 -1.25,0.311 -1.25,0.662 0,0.35 -4.353,3.088 -9.672,6.083 -16.066,9.045 -25.172,18.911 -30.96,33.540002 l -2.732,6.906 -0.977,73.5 c -1.206,90.728 -0.888,94.271 9.945,110.59 3.367,5.073 14.838,16.634 15.675,15.798 0.24,-0.24 1.005,0.25 1.701,1.088 0.696,0.838 1.885,1.524 2.642,1.524 0.758,0 1.378,0.525 1.378,1.167 0,0.641 0.279,0.887 0.62,0.546 0.342,-0.341 2.929,0.85 5.75,2.648 2.822,1.797 15.255,9.064 27.63,16.148 12.375,7.084 22.65,13.242 22.833,13.685 0.184,0.443 0.859,0.807 1.5,0.809 0.642,0.001 3.867,1.639 7.167,3.639 3.3,2 7.35,4.416 9,5.369 19.307,11.15 23.047,13.416 23.333,14.143 0.184,0.465 0.775,0.846 1.314,0.846 0.539,0 5.867,2.737 11.841,6.082 20.818,11.659 35.851,13.901 53.012,7.907 4.675,-1.633 8.95,-3.086 9.5,-3.229 0.55,-0.143 1.225,-0.53 1.5,-0.859 0.934,-1.119 16.691,-9.901 17.765,-9.901 0.588,0 1.218,-0.373 1.402,-0.829 0.458,-1.139 13.036,-8.455 14.583,-8.482 0.688,-0.012 1.25,-0.335 1.25,-0.716 0,-0.382 2.756,-2.22 6.124,-4.084 3.368,-1.864 7.633,-4.289 9.476,-5.389 1.844,-1.1 5.726,-3.29 8.626,-4.867 2.901,-1.576 5.89,-3.376 6.643,-4 1.512,-1.251 12.645,-7.623 18.131,-10.376 1.925,-0.967 3.725,-2.011 4,-2.322 0.275,-0.311 7.925,-4.776 17,-9.921 27.969,-15.859 37.601,-26.283 42.162,-45.629 1.688,-7.161 2.409,-149.208 0.809,-159.385 -3.291,-20.933002 -13.362,-34.173002 -35.347,-46.468002 -3.68,-2.058 -7.249,-4.257 -7.931,-4.887 -0.682,-0.63 -1.68,-1.226 -2.217,-1.325 -1.113,-0.206 -31.161,-17.361 -36.476,-20.825 -3.655,-2.382 -5.055,-3.192 -24.262,-14.027 -6.469,-3.649 -12.416,-7.289 -13.214,-8.087 -0.799,-0.799 -1.71,-1.407 -2.025,-1.351 -0.934,0.165 -13.97,-7.29 -14.332,-8.197 -0.184,-0.458 -0.814,-0.833 -1.402,-0.833 -0.588,0 -4.488,-1.971 -8.667,-4.3799999 -12.691,-7.316 -28.733,-10.272 -43.098,-7.942"
     style="display:block;fill:#ffffff;fill-opacity:1;fill-rule:evenodd;stroke:none"
     inkscape:connector-curvature="0"
     sodipodi:nodetypes="cscccssccccccccscccsccsssccsccsccsccscsccssccccsccccscccsccscc" />
  <g
     id="svgg"
     style="fill:#095770;fill-opacity:1"
     transform="translate(-3.8728483,-3.8975154)">
    <path
       id="path0"
       d="m 188,4.678 c -1.375,0.223 -3.4,0.836 -4.5,1.362 -1.1,0.526 -3.575,1.52 -5.5,2.208 -3.408,1.219 -25.413,13.588 -39.5,22.203 -3.85,2.354 -7.338,4.089 -7.75,3.856 -0.412,-0.234 -0.75,0.052 -0.75,0.634 0,0.582 -0.468,1.059 -1.04,1.059 -0.573,0 -2.33,0.953 -3.905,2.118 -1.576,1.165 -3.31,1.842 -3.855,1.506 -0.545,-0.337 -1.249,0.061 -1.564,0.883 -0.316,0.823 -2.276,2.283 -4.355,3.244 -2.08,0.962 -4.006,2.013 -4.281,2.335 -0.866,1.015 -14.481,8.381 -14.888,8.054 -0.214,-0.171 -0.664,0.103 -1,0.609 C 94.219,56.092 69.725,70.28 68.25,70.309 67.563,70.322 67,70.62 67,70.971 c 0,0.35 -4.353,3.088 -9.672,6.083 -16.066,9.045 -25.172,18.911 -30.96,33.54 L 23.636,117.5 22.659,191 c -1.206,90.728 -0.888,94.271 9.945,110.59 3.367,5.073 14.838,16.634 15.675,15.798 0.24,-0.24 1.005,0.25 1.701,1.088 0.696,0.838 1.885,1.524 2.642,1.524 0.758,0 1.378,0.525 1.378,1.167 0,0.641 0.279,0.887 0.62,0.546 0.342,-0.341 2.929,0.85 5.75,2.648 2.822,1.797 15.255,9.064 27.63,16.148 12.375,7.084 22.65,13.242 22.833,13.685 0.184,0.443 0.859,0.807 1.5,0.809 0.642,0.001 3.867,1.639 7.167,3.639 3.3,2 7.35,4.416 9,5.369 19.307,11.15 23.047,13.416 23.333,14.143 0.184,0.465 0.775,0.846 1.314,0.846 0.539,0 5.867,2.737 11.841,6.082 20.818,11.659 35.851,13.901 53.012,7.907 4.675,-1.633 8.95,-3.086 9.5,-3.229 0.55,-0.143 1.225,-0.53 1.5,-0.859 0.934,-1.119 16.691,-9.901 17.765,-9.901 0.588,0 1.218,-0.373 1.402,-0.829 0.458,-1.139 13.036,-8.455 14.583,-8.482 0.688,-0.012 1.25,-0.335 1.25,-0.716 0,-0.382 2.756,-2.22 6.124,-4.084 3.368,-1.864 7.633,-4.289 9.476,-5.389 1.844,-1.1 5.726,-3.29 8.626,-4.867 2.901,-1.576 5.89,-3.376 6.643,-4 1.512,-1.251 12.645,-7.623 18.131,-10.376 1.925,-0.967 3.725,-2.011 4,-2.322 0.275,-0.311 7.925,-4.776 17,-9.921 27.969,-15.859 37.601,-26.283 42.162,-45.629 1.688,-7.161 2.409,-149.208 0.809,-159.385 -3.291,-20.933 -13.362,-34.173 -35.347,-46.468 -3.68,-2.058 -7.249,-4.257 -7.931,-4.887 -0.682,-0.63 -1.68,-1.226 -2.217,-1.325 C 330.363,70.114 300.315,52.959 295,49.495 c -3.655,-2.382 -5.055,-3.192 -24.262,-14.027 -6.469,-3.649 -12.416,-7.289 -13.214,-8.087 -0.799,-0.799 -1.71,-1.407 -2.025,-1.351 -0.934,0.165 -13.97,-7.29 -14.332,-8.197 C 240.983,17.375 240.353,17 239.765,17 239.177,17 235.277,15.029 231.098,12.62 218.407,5.304 202.365,2.348 188,4.678 m 20.628,7.332 c 7.96,1.292 12.31,3.28 31.206,14.265 24.697,14.357 81.296,47.191 96.551,56.011 15.625,9.034 22.433,15.085 27.27,24.242 6.2,11.738 6.345,12.997 6.345,55.154 V 200 h -37.871 -37.871 l -0.712,-8.165 c -4.544,-52.094 -51.664,-90.88 -103.276,-85.011 -45.804,5.208 -79.096,39.562 -83.758,86.426 L 105.841,200 H 67.867 29.893 l 0.33,-39.25 c 0.463,-55.22 2.894,-61.013 32.713,-77.949 6.91,-3.925 13.689,-7.897 15.064,-8.827 2.922,-1.976 96.891,-55.866 101.869,-58.42 7.453,-3.824 18.583,-5.196 28.759,-3.544 m -25.17,29.239 c -0.273,0.711 -0.375,11.858 -0.227,24.772 L 183.5,89.5 h 6.5 6.5 L 197,81 197.5,72.5 209,72 220.5,71.5 v -5 -5 L 209,61 197.5,60.5 197.193,56.25 196.885,52 h 12.435 c 14.217,0 14.98,-0.378 14.491,-7.176 L 223.5,40.5 203.727,40.229 c -15.436,-0.212 -19.882,0.012 -20.269,1.02 m 101.04,28.527 c -2.626,3.166 -7.666,8.848 -16.417,18.51 l -2.524,2.785 2.222,0.581 c 2.922,0.765 3.056,0.335 -3.427,11.05 -7.587,12.54 -6.727,12.238 5.828,-2.049 8.617,-9.805 10.308,-12.215 8.75,-12.473 -2.8,-0.463 -2.518,-1.38 3.652,-11.863 6.049,-10.279 6.613,-12.202 1.916,-6.541 M 114,67.239 c 0,0.376 2.471,4.801 5.49,9.834 5.356,8.926 5.897,10.927 2.951,10.927 -2.341,0 -1.925,0.586 9.254,13.034 12.538,13.96 13.342,14.267 5.864,2.236 C 131.716,93.868 131.043,92 133.5,92 c 2.811,0 1.504,-2.17 -7.132,-11.837 C 115.269,67.739 114,66.413 114,67.239 m 204.9,47.465 c -2.044,4.738 -9.048,21.293 -15.552,36.758 -4.267,10.149 -4.492,9.538 3.516,9.538 h 6.864 l 1.719,-4.5 1.718,-4.5 h 9.974 9.973 l 1.991,4.5 1.991,4.5 h 6.953 c 3.824,0 6.953,-0.268 6.953,-0.596 0,-0.328 -2.211,-5.84 -4.913,-12.25 -2.702,-6.41 -7.362,-17.504 -10.355,-24.654 l -5.443,-13 -6.66,-0.296 -6.661,-0.296 -2.068,4.796 M 57.232,135.729 57.5,160.5 h 20 20 v -5.388 -5.388 l -12.887,-0.112 c -14.116,-0.123 -15.555,-0.721 -14.249,-5.926 l 0.658,-2.623 11.739,-0.281 L 94.5,140.5 v -5 -5 l -11.693,-0.281 c -12.567,-0.303 -13.962,-1.004 -12.316,-6.19 0.575,-1.811 1.698,-1.994 13.783,-2.25 L 97.431,121.5 v -5 l -10e-4,-5 -20.233,-0.271 -20.232,-0.271 0.267,24.771 M 218.36,112.503 c 72.37,14.948 95.739,108.938 38.814,156.109 -58.546,48.513 -145.62,7.486 -145.62,-68.612 0,-57.242 51.002,-99.024 106.806,-87.497 m -35.463,6.946 c -30.508,6.334 -53.877,29.146 -63.054,61.551 -1.692,5.976 -1.692,32.024 0,38 26.683,94.225 161.625,78.361 161.625,-19 0,-53.065 -46.791,-91.302 -98.571,-80.551 m 147.498,14.786 c 2.493,6.014 1.748,7.765 -3.305,7.765 -5.26,0 -5.695,-1.082 -3.051,-7.595 2.594,-6.392 3.763,-6.424 6.356,-0.17 m -98.317,18.039 c 4.16,2.803 7.922,8.221 7.922,11.409 0,1.868 0.954,2.797 4.384,4.267 13.556,5.811 13.696,24.023 0.232,30.137 -7.925,3.599 -14.983,1.807 -21.119,-5.361 l -3.437,-4.016 -5.561,4.291 c -3.058,2.359 -5.749,4.595 -5.979,4.967 -0.231,0.373 8.304,7.62 18.966,16.105 21.98,17.492 21.447,16.852 17.599,21.158 l -2.863,3.204 -3.629,-1.955 -3.63,-1.955 -3.939,4.488 c -2.166,2.468 -3.958,4.825 -3.981,5.237 -0.089,1.558 -2.534,0.653 -5.238,-1.937 -3.331,-3.191 -3.474,-4.398 -0.805,-6.813 2.073,-1.876 2.696,-4.5 1.068,-4.5 -0.512,0 -1.893,1.35 -3.068,3 -2.165,3.04 -5.009,4.038 -4.989,1.75 0.005,-0.687 1.801,-3.5 3.989,-6.25 2.188,-2.75 3.984,-5.288 3.989,-5.641 0.009,-0.545 -15.812,-13.734 -21.156,-17.636 -1.572,-1.148 -13.119,6.89 -24.237,16.874 -0.516,0.463 0.882,3.179 3.25,6.315 2.284,3.026 4.154,5.971 4.154,6.545 0,2.104 -2.923,0.96 -5,-1.957 -1.175,-1.65 -2.556,-3 -3.068,-3 -1.747,0 -0.938,2.385 1.766,5.207 l 2.699,2.816 -3.449,2.948 c -4.605,3.937 -5.122,3.83 -9.546,-1.971 -4.449,-5.834 -3.726,-5.56 -7.434,-2.818 l -2.952,2.182 -2.508,-2.356 c -4.614,-4.335 -3.789,-5.476 15.56,-21.523 9.938,-8.242 18.488,-15.135 19,-15.318 2.056,-0.736 0.685,-2.924 -4.042,-6.454 -6.08,-4.539 -5.209,-4.597 -10.293,0.683 -7.64,7.935 -16.964,8.608 -23.851,1.722 -8.148,-8.148 -5.049,-21.811 6.058,-26.712 3.258,-1.437 3.945,-2.286 4.46,-5.509 1.837,-11.482 19.647,-17.09 28.138,-8.86 7.345,7.119 6.531,17.28 -1.934,24.145 -1.141,0.924 -1.856,1.895 -1.589,2.155 0.267,0.261 3.383,2.723 6.926,5.471 l 6.44,4.996 6.754,-5.152 c 7.773,-5.929 7.879,-6.201 3.886,-9.97 -13.469,-12.713 6.546,-34.861 22.057,-24.408 M 215.4,159.4 c -6.991,6.991 -2.271,16.6 8.155,16.6 h 4.11 l -0.462,5.561 c -0.676,8.155 2.836,11.819 10.719,11.183 15.23,-1.228 12.61,-20.744 -2.785,-20.744 -2.849,0 -2.905,-0.097 -2.107,-3.633 2.365,-10.487 -9.881,-16.716 -17.63,-8.967 m -44.634,0.518 c -2.915,2.604 -3.266,3.491 -3.266,8.25 v 5.332 l -4,0.555 c -13.875,1.924 -14.778,19.945 -1,19.945 6.844,0 11.282,-5.709 10.114,-13.011 -0.626,-3.918 -0.583,-3.989 2.406,-3.989 10.937,0 16.94,-10.194 10.057,-17.077 -4.078,-4.078 -9.751,-4.08 -14.311,-0.005 m -86.041,95.497 c 6.159,1.64 11.18,4.57 17.025,9.937 5.37,4.931 5.329,5.493 -0.808,11.01 -14.917,13.412 -30.987,13.481 -45.692,0.196 -6.338,-5.727 -6.369,-6.074 -1,-11.196 10.051,-9.588 19.832,-12.781 30.475,-9.947 M 344,269.833 c 0,17.608 0.622,16.609 -8.117,13.052 -4.248,-1.728 -10.67,-3.303 -16.209,-3.974 -11.384,-1.38 -10.674,-0.83 -10.674,-8.27 0,-7.336 0.968,-8.635 6.45,-8.658 5.614,-0.024 16.571,-2.461 21.737,-4.833 7.087,-3.255 6.813,-3.765 6.813,12.683 M 71.707,262.016 c -2.998,2.358 -5.234,8.219 -3.987,10.449 0.86,1.537 16.28,-8.336 16.28,-10.424 0,-2.663 -8.916,-2.682 -12.293,-0.025 M 308,270.654 c 0,7.131 -1.282,8.603 -5.52,6.336 -5.236,-2.803 -5.106,-10.548 0.224,-13.345 4.109,-2.157 5.296,-0.586 5.296,7.009 M 79.225,272.25 c -8.089,5.934 -8.732,7.377 -3.708,8.319 6.996,1.313 12.483,-2.991 12.483,-9.792 0,-4.831 -0.236,-4.791 -8.775,1.473 m 237.337,11.243 c 2.574,6.161 2.351,8.007 -0.967,8.007 -2.831,0 -7.685,-9.076 -5.841,-10.921 1.893,-1.893 5.432,-0.377 6.808,2.914 M 144,289.398 c 0,0.347 -2.749,5.024 -10.238,17.414 l -2.002,3.312 2.161,0.566 c 2.875,0.751 2.963,0.607 -7.843,12.844 -5.182,5.868 -10.206,11.636 -11.164,12.817 -4.012,4.948 -2.533,0.317 2.638,-8.259 6.994,-11.602 7.03,-11.706 4.367,-12.403 -2.559,-0.669 -3.095,0.089 11.965,-16.921 7.52,-8.495 10.116,-10.899 10.116,-9.37 m 126,11.787 c 11.938,13.687 11.855,13.556 9.196,14.566 -1.83,0.695 -1.549,1.467 3.907,10.749 6.544,11.133 7.383,13.742 2.733,8.5 -1.707,-1.925 -7.153,-7.914 -12.101,-13.309 -8.007,-8.731 -8.762,-9.871 -6.866,-10.367 3.033,-0.793 2.81,-1.525 -3.821,-12.485 -7.863,-13 -5.836,-12.315 6.952,2.346 m -58.336,15.382 c 1.031,2.685 -1.072,3.544 -12.292,5.021 -11.711,1.541 -15.79,0.401 -12.028,-3.361 2.692,-2.692 23.382,-4.104 24.32,-1.66 m 2.378,6.983 c 2.286,2.755 -0.847,4.221 -11.542,5.401 -5.5,0.607 -10.98,1.317 -12.178,1.577 -3.21,0.698 -5.979,-2.299 -3.976,-4.303 1.24,-1.24 12.286,-3.063 24.782,-4.091 0.895,-0.074 2.206,0.564 2.914,1.416 M 214,331.5 c 2.228,2.684 -0.488,4.219 -8.777,4.962 -12.014,1.077 -12.458,1.25 -10.575,4.123 0.987,1.506 1.423,3.871 1.182,6.402 L 195.447,351 h 5.285 c 4.967,0 5.213,-0.116 4.082,-1.926 -2.083,-3.335 0.063,-9.502 3.442,-9.891 3.009,-0.346 4.682,1.929 3.001,4.08 -2.532,3.24 -3.232,7.737 -1.205,7.737 1.281,0 1.948,0.684 1.948,2 0,1.884 -0.667,2 -11.5,2 -10.833,0 -11.5,-0.116 -11.5,-2 0,-1.122 0.667,-2 1.519,-2 1.64,0 1.149,-4.301 -0.769,-6.737 -0.535,-0.68 -0.702,-2.317 -0.371,-3.636 0.463,-1.844 0.142,-2.519 -1.389,-2.919 -1.883,-0.493 -2.941,-4.589 -1.24,-4.802 25.135,-3.15 25.775,-3.183 27.25,-1.406 m -2,26.318 C 212,362.529 205.865,368 200.584,368 194.52,368 189,363.617 189,358.804 V 356 h 11.5 c 10.45,0 11.5,0.166 11.5,1.818"
       style="fill:#095770;fill-opacity:1;fill-rule:evenodd;stroke:none"
       inkscape:connector-curvature="0" />
  </g>
</svg>
