<?xml version="1.0" encoding="UTF-8" standalone="no"?>
<!-- Created with Inkscape (http://www.inkscape.org/) -->

<svg
   xmlns:dc="http://purl.org/dc/elements/1.1/"
   xmlns:cc="http://creativecommons.org/ns#"
   xmlns:rdf="http://www.w3.org/1999/02/22-rdf-syntax-ns#"
   xmlns:svg="http://www.w3.org/2000/svg"
   xmlns="http://www.w3.org/2000/svg"
   xmlns:sodipodi="http://sodipodi.sourceforge.net/DTD/sodipodi-0.dtd"
   xmlns:inkscape="http://www.inkscape.org/namespaces/inkscape"
   width="512"
   height="512"
   viewBox="0 0 512.00001 512.00001"
   id="svg4160"
   version="1.1"
   inkscape:version="0.91 r13725"
   sodipodi:docname="icon-tutanota.svg">
  <defs
     id="defs4162" />
  <sodipodi:namedview
     id="base"
     pagecolor="#ffffff"
     bordercolor="#666666"
     borderopacity="1.0"
     inkscape:pageopacity="0.0"
     inkscape:pageshadow="2"
     inkscape:zoom="0.35"
     inkscape:cx="-297.67053"
     inkscape:cy="113.59153"
     inkscape:document-units="px"
     inkscape:current-layer="layer1"
     showgrid="false"
     fit-margin-top="0"
     fit-margin-left="0"
     fit-margin-right="0"
     fit-margin-bottom="0"
     units="px"
     inkscape:window-width="1920"
     inkscape:window-height="1102"
     inkscape:window-x="0"
     inkscape:window-y="25"
     inkscape:window-maximized="1" />
  <metadata
     id="metadata4165">
    <rdf:RDF>
      <cc:Work
         rdf:about="">
        <dc:format>image/svg+xml</dc:format>
        <dc:type
           rdf:resource="http://purl.org/dc/dcmitype/StillImage" />
        <dc:title></dc:title>
      </cc:Work>
    </rdf:RDF>
  </metadata>
  <g
     inkscape:label="Layer 1"
     inkscape:groupmode="layer"
     id="layer1"
     transform="translate(-222.67053,-133.95374)">
    <rect
       style="display:block;opacity:1;fill:#f5f5f5;fill-opacity:1;stroke:none;stroke-width:3.7052114;stroke-linecap:round;stroke-linejoin:round;stroke-miterlimit:4;stroke-dasharray:7.41042274, 3.70521137, 1.85260568, 3.70521137;stroke-dashoffset:0;stroke-opacity:1"
       id="rect4140"
       width="511.76569"
       height="340.06909"
       x="222.90485"
       y="305.88464" />
    <path
       style="display:block;fill:#a01e20;fill-rule:evenodd;stroke:none"
       inkscape:connector-curvature="0"
       d="m 257.69656,159.74496 c -15.17432,4.3748 -26.81913,14.83672 -31.33972,28.15805 -1.0499,3.09471 -2.25453,5.7802 -2.67654,5.96819 -1.89647,0.84273 -0.87342,435.22526 1.02305,434.4746 0.98468,-0.39004 4.32236,-1.63048 7.41708,-2.75711 3.09471,-1.12663 7.00786,-2.62922 8.69588,-3.33896 1.68803,-0.71102 4.68043,-1.87473 6.6498,-2.58831 1.96936,-0.71229 4.96177,-1.86322 6.64979,-2.55761 1.68803,-0.69311 4.68043,-1.84404 6.6498,-2.55761 3.19062,-1.15477 5.75079,-2.18037 12.78807,-5.11779 1.12535,-0.4706 5.26868,-2.10364 9.2074,-3.63181 7.47207,-2.8965 8.93119,-3.47963 14.83416,-5.93238 1.96936,-0.81844 6.80325,-2.752 10.74198,-4.2968 8.20354,-3.21875 11.57704,-4.59091 22.507,-9.15369 2.2507,-0.93865 5.01292,-2.08957 6.13827,-2.55762 1.12535,-0.46676 3.88757,-1.61769 6.13827,-2.55761 2.2507,-0.93865 5.01293,-2.08957 6.13828,-2.55762 1.12535,-0.46676 3.88757,-1.61769 6.13827,-2.55761 2.2507,-0.93864 5.01292,-2.08957 6.13827,-2.55761 1.12535,-0.46677 3.65867,-1.55375 5.62931,-2.41567 1.96936,-0.86191 5.88251,-2.5525 8.69333,-3.75713 31.47143,-13.49014 68.1783,-32.05713 88.49343,-44.76336 68.20132,-42.65332 70.35995,-82.4063 6.13827,-113.04524 -10.32125,-4.92468 -15.34568,-7.15492 -28.13375,-12.49394 -2.2507,-0.93864 -5.01292,-2.09213 -6.13827,-2.56401 -1.12535,-0.4706 -6.87998,-2.82744 -12.78807,-5.23799 -5.90809,-2.41055 -12.35327,-5.27891 -14.32264,-6.37357 -1.96936,-1.09594 -5.28786,-2.88755 -7.37488,-3.98221 -14.87124,-7.7956 -12.83154,-19.43146 4.96945,-28.36009 16.77027,-8.41199 31.95738,-10.97728 79.13384,-13.36481 50.51926,-2.55762 67.62202,-6.4324 69.98654,-15.85593 0.68544,-2.72897 -1.90798,-9.72021 -3.60496,-9.72021 -0.49873,0 -0.90667,-0.46037 -0.90667,-1.02304 0,-2.24943 3.27374,-0.79286 7.65493,3.40546 12.01312,11.51054 -0.57546,24.13492 -29.13889,29.21945 -6.9631,1.24045 -21.43919,2.58447 -45.52552,4.22646 -55.48615,3.78399 -56.56929,20.0031 -2.04609,30.65044 2.2507,0.43991 7.54496,1.59979 11.76502,2.5768 4.22007,0.97701 9.51433,2.12793 11.76503,2.55761 2.2507,0.42968 7.54496,1.57805 11.76502,2.5525 4.22006,0.97317 8.82377,1.97831 10.23045,2.2328 7.79689,1.40924 44.44749,10.54632 57.29055,14.28299 6.88509,2.00389 29.40999,9.38644 32.22593,10.56166 1.12535,0.47061 3.65738,1.43099 5.62675,2.13433 3.4873,1.24684 6.99891,2.67527 14.32263,5.82497 31.99831,13.76507 53.07432,30.14275 70.12337,54.49123 7.60762,10.86347 7.65366,10.94147 12.81748,21.47756 5.87228,11.98242 5.70604,11.58727 9.55908,22.82031 1.89264,5.51805 3.72133,10.31358 4.06533,10.6563 0.34272,0.344 0.62406,-75.15548 0.62406,-167.77562 0,-111.16411 -0.34784,-168.61706 -1.02305,-169.03395 -0.56267,-0.34784 -1.02304,-1.38367 -1.02304,-2.30058 0,-10.30974 -17.00046,-26.98922 -31.93181,-31.33076 -7.76363,-2.2571 -434.9516,-2.40544 -442.76127,-0.15346"
       id="path1" />
  </g>
</svg>
