<?xml version="1.0" encoding="UTF-8" standalone="no"?>
<!-- Created with Inkscape (http://www.inkscape.org/) -->

<svg
   xmlns:dc="http://purl.org/dc/elements/1.1/"
   xmlns:cc="http://creativecommons.org/ns#"
   xmlns:rdf="http://www.w3.org/1999/02/22-rdf-syntax-ns#"
   xmlns:svg="http://www.w3.org/2000/svg"
   xmlns="http://www.w3.org/2000/svg"
   xmlns:sodipodi="http://sodipodi.sourceforge.net/DTD/sodipodi-0.dtd"
   xmlns:inkscape="http://www.inkscape.org/namespaces/inkscape"
   width="144.49777mm"
   height="144.49777mm"
   viewBox="0 0 511.99998 511.99998"
   id="svg4157"
   version="1.1"
   inkscape:version="0.91 r13725"
   sodipodi:docname="icon-wikimedia.svg">
  <defs
     id="defs4159" />
  <sodipodi:namedview
     id="base"
     pagecolor="#ffffff"
     bordercolor="#666666"
     borderopacity="1.0"
     inkscape:pageopacity="0.0"
     inkscape:pageshadow="2"
     inkscape:zoom="0.35"
     inkscape:cx="551.42907"
     inkscape:cy="-613.56643"
     inkscape:document-units="px"
     inkscape:current-layer="layer1"
     showgrid="false"
     fit-margin-top="0"
     fit-margin-left="0"
     fit-margin-right="0"
     fit-margin-bottom="0"
     inkscape:window-width="1920"
     inkscape:window-height="1107"
     inkscape:window-x="0"
     inkscape:window-y="25"
     inkscape:window-maximized="1" />
  <metadata
     id="metadata4162">
    <rdf:RDF>
      <cc:Work
         rdf:about="">
        <dc:format>image/svg+xml</dc:format>
        <dc:type
           rdf:resource="http://purl.org/dc/dcmitype/StillImage" />
        <dc:title></dc:title>
      </cc:Work>
    </rdf:RDF>
  </metadata>
  <g
     inkscape:label="Layer 1"
     inkscape:groupmode="layer"
     id="layer1"
     transform="translate(626.42907,593.20422)">
    <ellipse
       style="fill:#990000"
       cx="-370.43002"
       cy="-507.87405"
       id="circle4"
       rx="85.333015"
       ry="85.33017" />
    <path
       inkscape:connector-curvature="0"
       style="fill:#006699"
       d="m -198.14455,-526.53668 -48.35159,48.34807 c 39.11097,34.40323 63.80066,84.81252 63.80066,140.99388 0,103.67808 -84.05113,187.72638 -187.73454,187.72638 -103.68151,0 -187.73264,-84.0483 -187.73264,-187.72638 0,-56.18136 24.68969,-106.59063 63.80066,-140.99386 l -48.35159,-48.34997 c -51.43305,46.82161 -83.71548,114.31209 -83.71548,189.34383 0,141.38074 114.61362,255.990506 255.99905,255.990506 141.38733,0 256.00095,-114.609766 256.00095,-255.990506 0,-75.02985 -32.28432,-142.52034 -83.71548,-189.34195 z"
       id="path6" />
    <path
       inkscape:connector-curvature="0"
       style="fill:#339966"
       d="m -387.49662,-371.32488 -82.64787,-82.64701 c -32.9613,28.17033 -53.88496,70.02004 -53.88496,116.77716 0,79.05558 59.7388,144.13595 136.53283,152.62725 l 0,-186.7574 z m 116.78487,-82.64701 -82.64977,82.6451 0,186.75931 c 76.79592,-8.49319 136.53283,-73.57167 136.53283,-152.62725 0,-46.75712 -20.92366,-88.60493 -53.88306,-116.77716 z"
       id="path8" />
  </g>
</svg>
