<?xml version="1.0" encoding="UTF-8" standalone="no"?>
<!-- Created with Inkscape (http://www.inkscape.org/) -->

<svg
   xmlns:dc="http://purl.org/dc/elements/1.1/"
   xmlns:cc="http://creativecommons.org/ns#"
   xmlns:rdf="http://www.w3.org/1999/02/22-rdf-syntax-ns#"
   xmlns:svg="http://www.w3.org/2000/svg"
   xmlns="http://www.w3.org/2000/svg"
   xmlns:sodipodi="http://sodipodi.sourceforge.net/DTD/sodipodi-0.dtd"
   xmlns:inkscape="http://www.inkscape.org/namespaces/inkscape"
   width="512"
   height="512"
   viewBox="0 0 512.00001 511.99996"
   id="svg4149"
   version="1.1"
   inkscape:version="0.91 r13725"
   sodipodi:docname="icon-wire.svg">
  <defs
     id="defs4151" />
  <sodipodi:namedview
     id="base"
     pagecolor="#ffffff"
     bordercolor="#666666"
     borderopacity="1.0"
     inkscape:pageopacity="0.0"
     inkscape:pageshadow="2"
     inkscape:zoom="0.35"
     inkscape:cx="-128.11414"
     inkscape:cy="-411.07142"
     inkscape:document-units="px"
     inkscape:current-layer="layer1"
     showgrid="false"
     fit-margin-top="0"
     fit-margin-left="0"
     fit-margin-right="0"
     fit-margin-bottom="0"
     units="px"
     inkscape:window-width="1920"
     inkscape:window-height="1102"
     inkscape:window-x="0"
     inkscape:window-y="25"
     inkscape:window-maximized="1" />
  <metadata
     id="metadata4154">
    <rdf:RDF>
      <cc:Work
         rdf:about="">
        <dc:format>image/svg+xml</dc:format>
        <dc:type
           rdf:resource="http://purl.org/dc/dcmitype/StillImage" />
        <dc:title></dc:title>
      </cc:Work>
    </rdf:RDF>
  </metadata>
  <g
     inkscape:label="Layer 1"
     inkscape:groupmode="layer"
     id="layer1"
     transform="translate(-53.114143,390.70916)">
    <path
       class="fill-theme"
       d="m 535.00405,-76.857869 c 0,70.593351 -56.79182,128.023876 -127.37049,128.023876 -28.42895,0 -54.94917,-9.433492 -76.22041,-25.173108 23.78561,-27.683825 37.93952,-63.575141 37.93952,-102.850768 l 0.0551,-203.719371 c -0.004,-33.22278 -27.02677,-60.25322 -60.23853,-60.25322 -33.21911,0 -60.23487,27.03044 -60.23487,60.24955 l -0.0551,203.71937 c 0,39.275627 15.10827,75.174284 38.88655,102.850769 -21.2639,15.746957 -47.79147,25.180449 -76.21673,25.180449 -70.58601,0 -128.317515,-57.434196 -128.317515,-128.031218 l 0,-248.51561 -30.117432,0 0,248.519281 c 0,87.195577 71.562397,158.148649 158.754287,158.148649 36.96313,0 71.24671,-12.84717 98.1964,-34.184478 26.95336,21.337308 60.44042,34.184478 97.40722,34.184478 87.18455,0 157.64209,-70.953072 157.64209,-158.148649 l 0,-248.519281 -30.11743,0 0,248.519281 z M 309.11414,5.474137 c -18.75687,-22.280674 -30.11743,-50.992258 -30.11743,-82.332006 l 0.0514,-203.719371 c 0,-16.6169 13.50788,-30.12478 30.11744,-30.12478 16.60588,0 30.11743,13.50788 30.11743,30.12111 l -0.0551,203.71937 c 0,31.347089 -11.35323,60.051333 -30.11743,82.332007 z"
       id="path4"
       inkscape:connector-curvature="0"
       sodipodi:nodetypes="cscccscccssccsscsscccccccscccc" />
  </g>
</svg>
