<?xml version="1.0" encoding="UTF-8" standalone="no"?>
<!-- Created with Inkscape (http://www.inkscape.org/) -->

<svg
   xmlns:dc="http://purl.org/dc/elements/1.1/"
   xmlns:cc="http://creativecommons.org/ns#"
   xmlns:rdf="http://www.w3.org/1999/02/22-rdf-syntax-ns#"
   xmlns:svg="http://www.w3.org/2000/svg"
   xmlns="http://www.w3.org/2000/svg"
   xmlns:sodipodi="http://sodipodi.sourceforge.net/DTD/sodipodi-0.dtd"
   xmlns:inkscape="http://www.inkscape.org/namespaces/inkscape"
   width="512"
   height="512"
   viewBox="0 0 512.00001 511.99996"
   id="svg4149"
   version="1.1"
   inkscape:version="0.91 r13725"
   sodipodi:docname="icon-kontalk.svg">
  <defs
     id="defs4151" />
  <sodipodi:namedview
     id="base"
     pagecolor="#ffffff"
     bordercolor="#666666"
     borderopacity="1.0"
     inkscape:pageopacity="0.0"
     inkscape:pageshadow="2"
     inkscape:zoom="1.1666382"
     inkscape:cx="193.21099"
     inkscape:cy="358.83381"
     inkscape:document-units="px"
     inkscape:current-layer="layer1"
     showgrid="false"
     fit-margin-top="0"
     fit-margin-left="0"
     fit-margin-right="0"
     fit-margin-bottom="0"
     units="px"
     inkscape:window-width="1920"
     inkscape:window-height="1102"
     inkscape:window-x="0"
     inkscape:window-y="25"
     inkscape:window-maximized="1" />
  <metadata
     id="metadata4154">
    <rdf:RDF>
      <cc:Work
         rdf:about="">
        <dc:format>image/svg+xml</dc:format>
        <dc:type
           rdf:resource="http://purl.org/dc/dcmitype/StillImage" />
        <dc:title></dc:title>
      </cc:Work>
    </rdf:RDF>
  </metadata>
  <g
     inkscape:label="Layer 1"
     inkscape:groupmode="layer"
     id="layer1"
     transform="translate(-14.148054,339.52654)">
    <g
       transform="matrix(1.3368949,0,0,1.3368949,3.3632443,-350.50194)"
       style="display:block"
       id="g4165">
      <rect
         y="142.67453"
         x="31.831791"
         height="154.94028"
         width="128.86122"
         id="rect4161"
         style="opacity:1;fill:#496f4b;fill-opacity:1;stroke:none;stroke-width:3.71799994;stroke-linecap:round;stroke-linejoin:round;stroke-miterlimit:4;stroke-dasharray:7.436, 3.718, 1.859, 3.718;stroke-dashoffset:0;stroke-opacity:1" />
      <rect
         y="14.089429"
         x="75.061653"
         height="369.54025"
         width="137.51335"
         id="rect4159"
         style="opacity:1;fill:#496f4b;fill-opacity:1;stroke:none;stroke-width:3.50320578;stroke-linecap:round;stroke-linejoin:round;stroke-miterlimit:4;stroke-dasharray:7.0064115, 3.50320575, 1.75160288, 3.50320575;stroke-dashoffset:0;stroke-opacity:1" />
      <path
         inkscape:connector-curvature="0"
         id="path4157"
         d="M 218.98737,24.551745 199.8116,23.017683 52.541629,199.81835 l 21.476871,0 z"
         style="fill:#8dd591;fill-opacity:1;fill-rule:evenodd;stroke:#8dd591;stroke-width:1px;stroke-linecap:butt;stroke-linejoin:miter;stroke-opacity:1" />
      <rect
         y="140.37344"
         x="159.92598"
         height="120.42388"
         width="75.169044"
         id="rect4155"
         style="opacity:1;fill:#003032;fill-opacity:1;stroke:none;stroke-width:3.71799994;stroke-linecap:round;stroke-linejoin:round;stroke-miterlimit:4;stroke-dasharray:7.436, 3.718, 1.859, 3.718;stroke-dashoffset:0;stroke-opacity:1" />
      <path
         sodipodi:nodetypes="ccccscccccscsccccccccssccccsccccccccccccccccccscccccccccscccsccscccccccccccccccscccccccccccccc"
         id="path2"
         d="m 124.333,111.177 c -63.212,73.496 -75.773,88.476 -74.367,88.688 1.266,0.192 1.632,0.715 1.454,2.075 -0.176,1.346 1.504,3.82 6.458,9.51 3.683,4.23 37.564,43.55 75.291,87.378 l 68.595,79.688 6.735,0.068 6.735,0.069 -6.232,-0.459 -6.233,-0.46 -71.319,-82.812 C 51.358,201.923 55.148,206.694 58.178,202.688 59.859,200.467 59.647,200 56.962,200 l -2.413,0 6.479,-7.617 c 3.563,-4.19 7.583,-8.848 8.934,-10.352 8.045,-8.959 9.847,-11.028 13.61,-15.625 2.287,-2.793 4.897,-5.809 5.801,-6.702 0.903,-0.894 2.325,-2.476 3.159,-3.516 2.225,-2.774 20.239,-23.699 20.797,-24.157 0.262,-0.215 3.773,-4.258 7.803,-8.984 4.03,-4.727 7.692,-8.979 8.137,-9.449 0.445,-0.47 2.215,-2.54 3.934,-4.599 1.719,-2.059 3.694,-4.311 4.39,-5.004 0.696,-0.694 4.739,-5.328 8.984,-10.298 12.126,-14.196 27.064,-31.492 28.123,-32.562 0.531,-0.536 5.649,-6.5 11.375,-13.254 5.725,-6.754 11.143,-12.996 12.04,-13.87 0.897,-0.874 2.948,-3.523 4.558,-5.886 2.427,-3.564 3.415,-4.378 5.791,-4.772 2.136,-0.354 1.473,-0.492 -2.605,-0.541 l -5.468,-0.067 -76.058,88.432 M 169.713,175 c 0,1.504 0.16,2.119 0.357,1.367 0.196,-0.752 0.196,-1.982 0,-2.734 -0.197,-0.752 -0.357,-0.137 -0.357,1.367 m 58.609,0.391 c 0.009,1.718 0.169,2.33 0.356,1.358 0.186,-0.972 0.179,-2.378 -0.016,-3.125 -0.196,-0.747 -0.349,0.048 -0.34,1.767 m -1.954,7.422 c -1.697,5.585 -5.104,10.88 -9.033,14.038 l -3.144,2.526 -0.263,21.21 c -0.306,24.718 -1.541,28.624 -9.691,30.67 -1.041,0.261 -1.893,0.826 -1.893,1.256 0,2.292 6.763,-1.242 9.669,-5.052 3.042,-3.988 3.572,-8.153 3.593,-28.221 l 0.019,-18.65 4.612,-4.93 c 4.719,-5.046 8.244,-12.147 7.7,-15.516 -0.173,-1.068 -0.713,-0.149 -1.569,2.669 m -56.055,-2.139 c 0,3.962 3.587,10.55 8.33,15.297 l 4.951,4.955 0,18.926 c 0,22.244 0.549,25.22 5.475,29.671 1.718,1.551 3.561,2.848 4.097,2.881 0.536,0.032 1.502,0.21 2.147,0.395 3.53,1.01 6.25,1.21 6.25,0.46 0,-0.454 -0.686,-0.693 -1.524,-0.532 -1.82,0.35 -7.509,-2.232 -10.074,-4.572 -4.241,-3.868 -4.397,-4.779 -4.701,-27.452 l -0.283,-21.094 -3.233,-2.365 c -3.852,-2.819 -7.938,-8.645 -9.215,-13.139 -1.027,-3.617 -2.22,-5.461 -2.22,-3.431 m 208.046,31.045 c 0,2.363 0.147,3.33 0.326,2.148 0.179,-1.181 0.179,-3.115 0,-4.297 -0.179,-1.181 -0.326,-0.215 -0.326,2.149 m -0.834,9.375 c 0,1.504 0.161,2.119 0.357,1.367 0.197,-0.752 0.197,-1.982 0,-2.734 -0.196,-0.752 -0.357,-0.137 -0.357,1.367 m -47.083,101.367 -4.27,4.492 4.492,-4.27 c 4.173,-3.967 4.85,-4.714 4.27,-4.714 -0.122,0 -2.143,2.021 -4.492,4.492 m -3.617,20.508 c 0,3.222 0.138,4.541 0.307,2.929 0.168,-1.611 0.168,-4.248 0,-5.859 -0.169,-1.611 -0.307,-0.293 -0.307,2.93 m 0.781,17.187 c 0,3.223 0.138,4.541 0.307,2.93 0.168,-1.611 0.168,-4.248 0,-5.859 -0.169,-1.612 -0.307,-0.293 -0.307,2.929 m -0.262,9.245 c 0,0.501 -0.791,0.952 -1.758,1.002 -1.447,0.075 -1.501,0.157 -0.308,0.464 1.559,0.401 3.481,-0.962 2.6,-1.844 -0.294,-0.293 -0.534,-0.123 -0.534,0.378"
         inkscape:connector-curvature="0"
         style="fill:#496f4b;fill-rule:evenodd;stroke:none" />
      <path
         id="path3"
         d="m 203.143,27.433 c -1.424,2.198 -3.505,4.947 -4.624,6.109 -1.119,1.162 -6.719,7.627 -12.444,14.366 -5.726,6.739 -10.844,12.691 -11.375,13.227 -1.059,1.07 -15.997,18.366 -28.123,32.562 -4.245,4.97 -8.288,9.604 -8.984,10.298 -0.696,0.693 -2.671,2.945 -4.39,5.004 -1.719,2.059 -3.489,4.129 -3.934,4.599 -0.445,0.47 -4.107,4.722 -8.137,9.449 -4.03,4.726 -7.541,8.769 -7.803,8.984 -0.558,0.458 -18.572,21.383 -20.797,24.157 -0.834,1.04 -2.256,2.622 -3.159,3.516 -0.904,0.893 -3.514,3.909 -5.801,6.702 -3.763,4.597 -5.565,6.666 -13.61,15.625 -9.172,10.214 -15.399,18.108 -14.086,17.855 1.395,-0.269 4.368,-3.519 18.113,-19.808 3.264,-3.867 6.176,-7.207 6.471,-7.422 0.296,-0.215 2.777,-3.027 5.514,-6.25 2.737,-3.222 5.169,-6.035 5.404,-6.25 0.236,-0.215 2.339,-2.676 4.673,-5.468 2.334,-2.793 4.617,-5.43 5.073,-5.86 0.456,-0.43 3.989,-4.473 7.851,-8.984 3.863,-4.512 10.852,-12.598 15.532,-17.969 21.367,-24.522 30.829,-35.479 33.697,-39.021 1.29,-1.593 3.623,-4.275 5.184,-5.961 3.621,-3.911 22.188,-25.319 28.685,-33.076 2.731,-3.259 5.543,-6.498 6.25,-7.198 4.844,-4.789 10.488,-13.181 8.864,-13.181 -0.892,0 -2.456,1.545 -4.044,3.995 m -82.079,172.376 -61.358,0.2 -1.337,2.265 c -2.914,4.932 -7.84,-1.313 73.082,92.648 l 71.321,82.812 6.231,0.238 c 17.44,0.663 46.726,-6.473 67.935,-16.554 11.258,-5.352 7.752,-5.623 29.086,2.254 24.215,8.941 22.122,9.688 21.27,-7.595 -0.334,-6.755 -0.711,-16.125 -0.839,-20.823 l -0.233,-8.542 5.664,-5.963 c 27.625,-29.082 43.798,-68.151 46.673,-112.745 l 0.516,-8.011 -81.53,0.199 -81.529,0.199 -0.391,20.703 c -0.338,17.931 -0.581,21.085 -1.81,23.556 -1.751,3.517 -6.826,8.331 -8.275,7.848 -0.646,-0.216 -0.854,-0.007 -0.525,0.526 0.691,1.117 0.016,1.121 -2.06,0.01 -1.376,-0.736 -1.554,-0.675 -1.145,0.391 0.394,1.025 -0.061,1.258 -2.42,1.238 -2.624,-0.023 -2.769,-0.129 -1.499,-1.092 1.302,-0.988 1.259,-1.058 -0.585,-0.952 -1.096,0.064 -1.993,0.379 -1.993,0.701 0,0.323 -0.373,0.586 -0.828,0.586 -0.455,0 -0.573,-0.411 -0.262,-0.914 0.38,-0.614 0.139,-0.75 -0.735,-0.415 -0.743,0.285 -1.3,0.118 -1.3,-0.388 0,-0.488 -0.205,-0.683 -0.454,-0.433 -0.249,0.249 -1.687,-0.912 -3.194,-2.581 -4.456,-4.931 -4.946,-7.879 -4.946,-29.722 0,-10.648 -0.264,-19.469 -0.586,-19.602 -0.322,-0.133 -28.197,-0.152 -61.944,-0.042 m -43.72,51.363 c 1.457,1.504 2.826,2.734 3.041,2.734 0.214,0 -0.802,-1.23 -2.26,-2.734 -1.458,-1.504 -2.826,-2.734 -3.041,-2.734 -0.215,0 0.802,1.23 2.26,2.734 m 17.969,18.75 c 2.333,2.363 4.419,4.297 4.634,4.297 0.214,0 -1.519,-1.934 -3.853,-4.297 -2.334,-2.363 -4.42,-4.297 -4.634,-4.297 -0.215,0 1.519,1.934 3.853,4.297 m 18.359,19.141 c 2.551,2.578 4.814,4.687 5.029,4.687 0.215,0 -1.697,-2.109 -4.248,-4.687 -2.551,-2.579 -4.814,-4.688 -5.029,-4.688 -0.215,0 1.697,2.109 4.248,4.688 m 19.141,19.921 c 2.333,2.364 4.419,4.297 4.634,4.297 0.214,0 -1.519,-1.933 -3.853,-4.297 -2.334,-2.363 -4.42,-4.296 -4.634,-4.296 -0.215,0 1.519,1.933 3.853,4.296"
         inkscape:connector-curvature="0"
         style="fill:#47a14c;fill-rule:evenodd;stroke:none" />
      <path
         id="path5"
         d="m 213.656,24.817 c -0.438,0.315 -1.183,1.453 -1.655,2.527 -0.812,1.848 -2.035,3.334 -10.438,12.67 -1.934,2.148 -4.05,4.718 -4.702,5.711 -0.651,0.993 -2.058,2.652 -3.125,3.687 -1.066,1.035 -3.521,3.769 -5.455,6.075 -3.399,4.056 -7.737,9.027 -10.156,11.642 -0.645,0.696 -5.383,6.18 -10.53,12.186 -5.146,6.006 -9.743,11.271 -10.214,11.701 -0.471,0.429 -5.924,6.757 -12.118,14.062 -6.194,7.305 -11.645,13.633 -12.113,14.063 -0.468,0.429 -4.163,4.625 -8.211,9.323 -4.049,4.699 -10.942,12.699 -15.319,17.78 -4.377,5.08 -8.42,9.731 -8.984,10.336 -0.565,0.604 -2.642,2.975 -4.616,5.267 -11.101,12.893 -19.245,22.356 -20.625,23.966 -0.862,1.005 -2.565,2.939 -3.786,4.297 -1.22,1.357 -3.626,4.138 -5.346,6.179 l -3.127,3.711 59.45,0 59.45,0 -3.132,-2.829 c -19.703,-17.801 -6.523,-50.687 20.315,-50.687 26.61,0 39.559,30.604 21.067,49.789 l -3.593,3.727 80.716,0 80.716,0 0,-6.21 c 0,-62.538 -43.646,-127.555 -103.813,-154.644 -21.3,-9.59 -55.89,-17.761 -60.656,-14.329 m -95.007,79.72 c -11.331,11.518 -22.482,23.208 -24.78,25.976 -4.421,5.328 16.81,-16.014 35.213,-35.396 17.1,-18.009 12.184,-13.57 -10.433,9.42"
         inkscape:connector-curvature="0"
         style="fill:#8dd591;fill-rule:evenodd;stroke:none" />
      <path
         id="path7"
         d="m 207.003,14.987 c -3.166,3.574 -4.485,5.315 -2.932,3.87 3.227,-3 4.523,-2.707 4.523,1.02 0,3.02 1.056,3.506 7.812,3.596 2.364,0.032 5.967,0.333 8.008,0.668 4.888,0.805 4.913,0.855 -3.972,-7.996 l -7.683,-7.655 -5.756,6.497 m -163.68,16.458 -3.089,3.321 3.321,-3.089 c 3.088,-2.872 3.679,-3.552 3.088,-3.552 -0.128,0 -1.622,1.494 -3.32,3.32 M 168.38,58.008 c -3.481,3.545 -18.251,18.926 -32.822,34.18 -14.57,15.253 -44.184,45.509 -65.808,67.235 -21.623,21.726 -39.073,39.743 -38.777,40.039 0.295,0.296 4.1,0.538 8.454,0.538 5.251,0 8.271,0.329 8.969,0.977 0.844,0.783 0.939,0.777 0.479,-0.035 -0.314,-0.556 -0.147,-1.522 0.372,-2.148 0.519,-0.626 0.638,-1.143 0.263,-1.149 -0.375,-0.007 0.724,-1.263 2.443,-2.791 1.719,-1.529 2.598,-2.553 1.953,-2.276 -0.644,0.277 0.235,-0.753 1.953,-2.289 1.719,-1.536 3.042,-3.129 2.941,-3.54 -0.102,-0.412 1.03,-1.675 2.514,-2.807 1.485,-1.132 2.622,-2.376 2.529,-2.764 -0.094,-0.388 1.235,-1.963 2.954,-3.499 1.719,-1.536 2.598,-2.562 1.953,-2.281 -0.645,0.282 0.41,-0.952 2.344,-2.742 1.933,-1.789 2.988,-3.02 2.344,-2.734 -0.645,0.286 0.41,-0.945 2.343,-2.734 1.934,-1.79 2.989,-3.024 2.344,-2.743 -0.645,0.282 0.234,-0.745 1.953,-2.281 1.719,-1.536 3.048,-3.11 2.954,-3.498 -0.093,-0.388 1.056,-1.641 2.554,-2.784 1.499,-1.143 2.536,-2.383 2.305,-2.757 -0.231,-0.374 0.806,-1.614 2.304,-2.757 1.498,-1.143 2.648,-2.396 2.554,-2.784 -0.094,-0.388 1.235,-1.962 2.954,-3.498 1.719,-1.536 2.598,-2.566 1.953,-2.289 -0.644,0.277 0.235,-0.738 1.953,-2.256 1.719,-1.518 3.125,-3.114 3.125,-3.547 0,-0.434 1.231,-1.878 2.735,-3.21 1.504,-1.332 2.207,-2.197 1.562,-1.922 -0.644,0.276 0.235,-0.755 1.953,-2.291 1.719,-1.536 3.042,-3.13 2.941,-3.541 -0.102,-0.411 1.03,-1.674 2.514,-2.807 1.485,-1.132 2.622,-2.376 2.529,-2.764 -0.094,-0.388 1.235,-1.962 2.954,-3.498 1.719,-1.536 2.598,-2.563 1.953,-2.281 -0.645,0.281 0.41,-0.953 2.344,-2.742 1.933,-1.79 2.988,-3.024 2.344,-2.743 -0.645,0.282 0.234,-0.73 1.953,-2.248 1.718,-1.517 3.125,-3.114 3.125,-3.547 0,-0.434 1.23,-1.878 2.734,-3.21 1.504,-1.332 2.207,-2.198 1.563,-1.924 -0.645,0.274 0.234,-0.782 1.953,-2.347 1.718,-1.564 3.125,-3.184 3.125,-3.601 0,-0.416 1.406,-1.998 3.125,-3.515 1.718,-1.518 2.597,-2.53 1.953,-2.248 -0.645,0.281 0.41,-0.953 2.344,-2.742 1.933,-1.79 2.988,-3.021 2.343,-2.735 -0.644,0.286 0.41,-0.945 2.344,-2.734 1.934,-1.79 2.988,-3.024 2.344,-2.742 -0.645,0.281 0.234,-0.745 1.953,-2.281 1.719,-1.536 3.042,-3.13 2.94,-3.541 -0.101,-0.411 1.038,-1.68 2.532,-2.82 1.493,-1.139 2.542,-2.353 2.329,-2.697 -0.213,-0.344 1.013,-1.735 2.725,-3.09 1.711,-1.355 3.031,-2.77 2.933,-3.144 -0.098,-0.374 1.053,-1.743 2.557,-3.042 1.503,-1.298 2.405,-2.375 2.003,-2.393 -0.402,-0.017 -3.579,2.869 -7.061,6.414 M 21.094,260.054 c 0,66.501 0.065,67.555 4.988,80.661 8.926,23.766 28.516,41.305 54.25,48.572 5.889,1.663 7.117,1.698 68.923,1.937 l 62.926,0.243 6.763,-6.839 c 3.719,-3.761 6.691,-6.905 6.604,-6.985 -0.086,-0.081 -4.586,0.258 -10,0.753 l -9.842,0.901 1.445,3.516 c 1.134,2.758 1.181,3.179 0.217,1.953 -0.675,-0.86 -1.513,-1.489 -1.861,-1.399 -0.347,0.09 -2.868,-2.195 -5.6,-5.078 -2.732,-2.883 -23.976,-24.93 -47.208,-48.992 C 108.643,283.666 71.411,244.773 44.893,216.681 L 29.297,200.16 25.195,200.08 21.094,200 l 0,60.054"
         inkscape:connector-curvature="0"
         style="fill:#00838f;fill-rule:evenodd;stroke:none" />
      <path
         id="path8"
         d="m 184.666,37.689 c -11.977,12.564 -29.497,30.934 -38.935,40.82 -19.82,20.762 -92.13,95.885 -106.934,111.093 l -10.031,10.305 13.449,14.095 c 7.398,7.752 13.706,13.936 14.02,13.742 1.676,-1.036 104.703,105.883 104.703,108.659 0,0.362 -2.177,-1.441 -4.836,-4.006 -4.297,-4.143 30.477,32.111 44.236,46.119 l 5.371,5.468 -4.267,-5.078 c -2.347,-2.793 -37.927,-44.189 -79.066,-91.992 L 47.578,200 l -8.034,0 c -4.418,0 -8.276,-0.242 -8.571,-0.538 -0.296,-0.296 17.154,-18.313 38.777,-40.039 32.886,-33.041 80.443,-82.021 95.422,-98.278 2.073,-2.248 4.03,-3.927 4.35,-3.729 0.32,0.198 1.21,-0.335 1.979,-1.184 0.769,-0.85 1.109,-1.545 0.756,-1.544 -0.353,0 0.735,-1.365 2.418,-3.033 5.552,-5.502 32.836,-36.811 32.079,-36.811 -0.173,0 -10.112,10.28 -22.088,22.845 M 21.275,78.906 c 0,1.504 0.161,2.119 0.357,1.367 0.197,-0.752 0.197,-1.982 0,-2.734 -0.196,-0.752 -0.357,-0.137 -0.357,1.367 m 32.631,145.703 c 1.458,1.504 2.475,2.735 2.26,2.735 -0.215,0 -1.583,-1.231 -3.041,-2.735 -1.458,-1.504 -2.474,-2.734 -2.26,-2.734 0.215,0 1.584,1.23 3.041,2.734 m 10.157,12.5 c 2.768,2.793 5.208,5.079 5.423,5.079 0.215,0 -1.874,-2.286 -4.642,-5.079 -2.768,-2.793 -5.209,-5.078 -5.424,-5.078 -0.215,0 1.874,2.285 4.643,5.078 m 18.75,19.532 c 1.457,1.504 2.826,2.734 3.04,2.734 0.215,0 -0.802,-1.23 -2.259,-2.734 -1.458,-1.504 -2.826,-2.735 -3.041,-2.735 -0.215,0 0.802,1.231 2.26,2.735 m 57.779,59.961 c 1.916,2.041 3.586,3.711 3.711,3.711 0.587,0 -0.033,-0.702 -3.483,-3.939 l -3.711,-3.483 3.483,3.711 m 23.129,22.656 2.295,2.539 -2.539,-2.295 c -1.397,-1.262 -2.539,-2.404 -2.539,-2.539 0,-0.603 0.644,-0.072 2.783,2.295"
         inkscape:connector-curvature="0"
         style="fill:#00acc1;fill-rule:evenodd;stroke:none" />
      <path
         id="path9"
         d="M 83.11,10.202 C 56.789,15.733 34.503,35.404 25.634,60.934 21.537,72.725 21.633,71.025 21.314,137.695 L 21.016,200 l 3.849,0 3.849,0 31.006,-32.024 c 17.054,-17.612 30.819,-32.327 30.589,-32.698 -0.229,-0.372 0.539,-1.518 1.707,-2.547 l 2.125,-1.872 -1.929,2.344 c -1.06,1.289 2.719,-2.221 8.399,-7.801 5.68,-5.58 10.327,-10.32 10.327,-10.534 0,-0.213 -3.868,3.467 -8.594,8.179 -4.727,4.712 -8.594,8.181 -8.594,7.71 0,-0.472 10.283,-11.217 22.852,-23.878 12.568,-12.662 20.392,-20.356 17.387,-17.099 -3.006,3.258 -9.51,10.127 -14.454,15.265 -4.943,5.138 -8.15,8.653 -7.126,7.812 2.609,-2.141 93.249,-96.89 97.314,-101.724 l 2.135,-2.539 -60.812,0.055 C 94.244,8.701 89.765,8.803 83.11,10.202 M 53.898,225.391 c 8.288,9.49 110.65,116.015 111.48,116.015 1,0 -22.35,-25.532 -47.87,-52.343 C 98.642,269.24 47.391,217.941 53.898,225.391"
         inkscape:connector-curvature="0"
         style="fill:#26c6da;fill-rule:evenodd;stroke:none" />
    </g>
  </g>
</svg>
