<?xml version="1.0" encoding="UTF-8" standalone="no"?>
<!-- Generator: Adobe Illustrator 21.0.0, SVG Export Plug-In . SVG Version: 6.00 Build 0)  -->

<svg
   xmlns:dc="http://purl.org/dc/elements/1.1/"
   xmlns:cc="http://creativecommons.org/ns#"
   xmlns:rdf="http://www.w3.org/1999/02/22-rdf-syntax-ns#"
   xmlns:svg="http://www.w3.org/2000/svg"
   xmlns="http://www.w3.org/2000/svg"
   xmlns:sodipodi="http://sodipodi.sourceforge.net/DTD/sodipodi-0.dtd"
   xmlns:inkscape="http://www.inkscape.org/namespaces/inkscape"
   version="1.1"
   id="Layer_1"
   x="0px"
   y="0px"
   viewBox="0 0 512 512"
   xml:space="preserve"
   inkscape:version="0.91 r13725"
   sodipodi:docname="icon-riot.svg"
   width="512"
   height="512"><metadata
     id="metadata37"><rdf:RDF><cc:Work
         rdf:about=""><dc:format>image/svg+xml</dc:format><dc:type
           rdf:resource="http://purl.org/dc/dcmitype/StillImage" /><dc:title></dc:title></cc:Work></rdf:RDF></metadata><defs
     id="defs35" /><sodipodi:namedview
     pagecolor="#ffffff"
     bordercolor="#666666"
     borderopacity="1"
     objecttolerance="10"
     gridtolerance="10"
     guidetolerance="10"
     inkscape:pageopacity="0"
     inkscape:pageshadow="2"
     inkscape:window-width="1920"
     inkscape:window-height="1102"
     id="namedview33"
     showgrid="false"
     fit-margin-top="0"
     fit-margin-left="0"
     fit-margin-right="0"
     fit-margin-bottom="0"
     inkscape:zoom="0.59"
     inkscape:cx="-137.17102"
     inkscape:cy="160.1"
     inkscape:window-x="0"
     inkscape:window-y="25"
     inkscape:window-maximized="1"
     inkscape:current-layer="Layer_1" /><style
     type="text/css"
     id="style3">
	.st0{fill:#7DC8A2;}
	.st1{fill:#AFDBC5;}
	.st2{fill:#764D80;}
</style><g
     id="g5"
     transform="matrix(1.5935263,0,0,1.5935263,-57.30217,-61.82882)"><path
       class="st0"
       d="m 212.8,38.8 -91.2,0 c -0.2,0 -0.4,0 -0.6,0 -25.3,0 -45.9,20.5 -45.9,45.9 l 0,229.5 c 0,25.3 20.5,45.9 45.9,45.9 25.4,0 45.9,-20.5 45.9,-45.9 l 0,-45.9 45.9,0 C 276,268.3 327.5,216.8 327.5,153.6 327.5,90.4 276,38.8 212.8,38.8 Z"
       id="path7"
       inkscape:connector-curvature="0"
       style="fill:#7dc8a2" /><path
       class="st1"
       d="m 121,348.6 c -19,0 -34.4,-15.5 -34.4,-34.4 l 0,-229.5 c 0,-18.9 15.3,-34.3 34.2,-34.4 0.2,0 0.5,0 0.7,0 l 91.3,0 c 56.9,0 103.3,46.3 103.3,103.3 0,57 -46.3,103.3 -103.3,103.3 l -57.3,0 0,57.4 c -0.1,18.9 -15.5,34.3 -34.5,34.3 z"
       id="path9"
       inkscape:connector-curvature="0"
       style="fill:#afdbc5" /><path
       class="st0"
       d="m 121,337.2 c -12.7,0 -23,-10.3 -23,-23 L 98,84.7 c 0,-12.5 10.1,-22.7 22.5,-23 0.2,0 0.5,0 0.7,0 l 91.5,0 c 50.6,0 91.8,41.2 91.8,91.8 0,50.6 -41.2,91.8 -91.8,91.8 l -68.7,0 0,68.8 c 0,12.8 -10.3,23.1 -23,23.1 z"
       id="path11"
       inkscape:connector-curvature="0"
       style="fill:#7dc8a2" /><path
       class="st1"
       d="m 121,325.7 c -6.4,0 -11.6,-5.2 -11.6,-11.6 l 0,-229.4 c 0,-6.2 5,-11.3 11.1,-11.5 l 0.5,0 91.8,0 c 44.3,0 80.4,36.1 80.4,80.4 0,44.3 -36,80.4 -80.4,80.4 l -80.2,0 0,80.3 c 0,6.2 -5.2,11.4 -11.6,11.4 z"
       id="path13"
       inkscape:connector-curvature="0"
       style="fill:#afdbc5" /><path
       class="st0"
       d="m 121.1,222.4 91.7,0 c 38,0 68.9,-30.9 68.9,-68.9 0,-38 -30.9,-68.9 -68.9,-68.9 l -91.8,0 0.1,137.8 z"
       id="path15"
       inkscape:connector-curvature="0"
       style="fill:#7dc8a2" /><path
       class="st1"
       d="m 132.5,211 -0.1,-114.9 80.3,0 c 31.7,0 57.5,25.8 57.5,57.5 0,31.7 -25.7,57.4 -57.4,57.4 l -80.3,0 z"
       id="path17"
       inkscape:connector-curvature="0"
       style="fill:#afdbc5" /><path
       class="st0"
       d="m 144,199.6 -0.1,-92 68.9,0 c 25.4,0 46,20.6 46,46 0,25.4 -20.6,46 -46,46 l -68.8,0 z"
       id="path19"
       inkscape:connector-curvature="0"
       style="fill:#7dc8a2" /><path
       class="st1"
       d="m 155.4,188.1 -0.1,-69.1 57.4,0 c 19.1,0 34.6,15.5 34.6,34.6 0,19.1 -15.5,34.6 -34.6,34.6 l -57.3,0 z"
       id="path21"
       inkscape:connector-curvature="0"
       style="fill:#afdbc5" /><path
       class="st0"
       d="m 166.9,176.7 0,-46.3 45.9,0 c 12.8,0 23.1,10.4 23.1,23.1 0,12.7 -10.4,23.1 -23.1,23.1 l -45.9,0 z"
       id="path23"
       inkscape:connector-curvature="0"
       style="fill:#7dc8a2" /><path
       class="st1"
       d="m 178.3,165.2 0,-23.4 34.5,0 c 6.4,0 11.7,5.2 11.7,11.7 0,6.5 -5.2,11.7 -11.7,11.7 l -34.5,0 z"
       id="path25"
       inkscape:connector-curvature="0"
       style="fill:#afdbc5" /><g
       id="g27"><circle
         transform="matrix(0.8192,-0.5736,0.5736,0.8192,-26.9642,83.8822)"
         class="st2"
         cx="119.5"
         cy="84.699997"
         id="ellipse29"
         r="45.900002"
         style="fill:#764d80" /><path
         class="st2"
         d="m 317.7,287.8 c 14.5,20.8 9.5,49.4 -11.3,63.9 -20.8,14.5 -49.4,9.5 -63.9,-11.3 l -68.7,-98.2 c -14.5,-20.8 -9.5,-49.4 11.3,-63.9 20.8,-14.5 49.4,-9.5 63.9,11.3 l 68.7,98.2 z"
         id="path31"
         inkscape:connector-curvature="0"
         style="fill:#764d80" /></g></g></svg>