<?xml version="1.0" encoding="UTF-8" standalone="no"?>
<svg
   xmlns:dc="http://purl.org/dc/elements/1.1/"
   xmlns:cc="http://creativecommons.org/ns#"
   xmlns:rdf="http://www.w3.org/1999/02/22-rdf-syntax-ns#"
   xmlns:svg="http://www.w3.org/2000/svg"
   xmlns="http://www.w3.org/2000/svg"
   xmlns:sodipodi="http://sodipodi.sourceforge.net/DTD/sodipodi-0.dtd"
   xmlns:inkscape="http://www.inkscape.org/namespaces/inkscape"
   width="512"
   height="512"
   id="svg2"
   version="1.1"
   inkscape:version="0.91 r13725"
   sodipodi:docname="icon-legal.svg">
  <metadata
     id="metadata26">
    <rdf:RDF>
      <cc:Work
         rdf:about="">
        <dc:format>image/svg+xml</dc:format>
        <dc:type
           rdf:resource="http://purl.org/dc/dcmitype/StillImage" />
        <dc:title></dc:title>
      </cc:Work>
    </rdf:RDF>
  </metadata>
  <defs
     id="defs24" />
  <sodipodi:namedview
     pagecolor="#ffffff"
     bordercolor="#666666"
     borderopacity="1"
     objecttolerance="10"
     gridtolerance="10"
     guidetolerance="10"
     inkscape:pageopacity="0"
     inkscape:pageshadow="2"
     inkscape:window-width="1920"
     inkscape:window-height="1102"
     id="namedview22"
     showgrid="false"
     fit-margin-top="0"
     fit-margin-left="0"
     fit-margin-right="0"
     fit-margin-bottom="0"
     inkscape:zoom="0.65186406"
     inkscape:cx="-9.3146234"
     inkscape:cy="53.499996"
     inkscape:window-x="0"
     inkscape:window-y="25"
     inkscape:window-maximized="1"
     inkscape:current-layer="svg2" />
  <g
     id="g4"
     style="fill:#00356b;fill-opacity:1"
     transform="matrix(4.0576049,0,0,4.0576049,-3.6836712,-0.768578)">
    <g
       id="g6"
       style="fill:#00356b;fill-opacity:1">
      <g
         id="g8"
         style="fill:#00356b;fill-opacity:1">
        <polygon
           points="102.38,94.72 105.34,94.72 105.34,41.53 122.17,90.36 124.79,88.69 105.34,32.34 105.34,31.28 102.38,31.28 102.38,32.63 102.26,32.71 102.38,33.02 102.38,33.6 83.86,88.59 85.87,90.75 102.38,41.48 "
           style="fill:#00356b;fill-opacity:1"
           id="polygon10" />
        <polygon
           points="22.11,31.28 22.11,32.27 3.22,88.73 5.87,90.41 22.11,41.48 22.11,94.72 25.08,94.72 25.08,41.53 41.58,90.5 44.2,88.82 25.08,32.34 25.08,31.28 "
           style="fill:#00356b;fill-opacity:1"
           id="polygon12" />
      </g>
      <path
         d="m 86.32,112.36 c -0.13,-0.47 -0.51,-0.7 -0.7,-0.8 -0.43,-0.36 -0.94,-0.6 -1.49,-0.71 -4.45,-2.11 -9.48,-4.5 -11.57,-8.57 -0.3,-4.85 -1.61,-11.62 -4.35,-15.06 l 0,-46.4 c 2.38,-1.09 3.49,-3.68 3.49,-8.09 0,-4.81 -1.39,-11.33 -3.98,-14.42 0.91,-0.85 1.42,-2.01 1.42,-3.28 0,-2.5 -2.03,-4.53 -4.53,-4.53 -2.5,0 -4.53,2.03 -4.53,4.53 0,1.27 0.51,2.44 1.41,3.28 -2.59,3.09 -3.98,9.61 -3.98,14.42 0,4.41 1.11,7 3.49,8.09 l 0,46.4 c -2.72,3.42 -4.04,10.15 -4.34,14.98 -2.1,4.04 -7.04,6.36 -12.28,8.8 l -0.72,0.34 c -0.68,0.32 -0.81,0.81 -0.82,1.1 -0.31,0.52 -0.47,1.1 -0.47,1.7 0,1.85 1.51,3.36 3.36,3.36 l 37.73,0 c 1.85,0 3.36,-1.51 3.36,-3.36 0.02,-0.63 -0.16,-1.24 -0.5,-1.78 z"
         style="fill:#00356b;fill-opacity:1"
         id="path14"
         inkscape:connector-curvature="0" />
      <path
         d="m 103.81,24.32 c -2.75,0 -4.99,2.24 -4.99,4.99 0,0.34 0.03,0.68 0.1,1.01 -2.66,1.31 -5.5,1.92 -8.91,1.92 -1.93,0 -3.85,-0.2 -5.63,-0.59 -6.59,-2.34 -11.81,-3.61 -20.46,-3.61 -8.9,0 -13.66,1.38 -19.85,3.47 -1.87,0.39 -4.13,0.62 -6.18,0.62 -3.43,0 -6.28,-0.63 -8.95,-1.98 0.05,-0.29 0.08,-0.57 0.08,-0.85 0,-2.75 -2.24,-4.99 -4.99,-4.99 -2.75,0 -4.99,2.24 -4.99,4.99 0,2.16 1.38,4.06 3.45,4.73 4.5,2.69 9.54,3.99 15.41,3.99 4.27,0 8.47,-0.7 12.17,-2.02 l 1.24,-0.45 c 3.85,-1.11 7.08,-1.71 12.63,-1.71 6.14,0 8.98,0.73 13.08,1.91 l 0.89,0.31 c 3.68,1.29 7.87,1.97 12.13,1.97 6.03,0 11.18,-1.35 15.66,-4.09 1.9,-0.77 3.13,-2.58 3.13,-4.63 -0.03,-2.75 -2.27,-4.99 -5.02,-4.99 z"
         style="fill:#00356b;fill-opacity:1"
         id="path16"
         inkscape:connector-curvature="0" />
    </g>
    <path
       d="m 2.98,88.47 41.39,0 c 1.97,0 2.82,2.49 1.27,3.7 l -2.82,2.2 C 31.34,103.32 15.2,103.15 3.91,93.97 L 1.67,92.15 C 0.17,90.91 1.03,88.47 2.98,88.47 Z"
       style="clip-rule:evenodd;fill:#00356b;fill-opacity:1;fill-rule:evenodd"
       id="path18"
       inkscape:connector-curvature="0" />
    <path
       d="m 83.63,88.47 41.39,0 c 1.97,0 2.82,2.49 1.27,3.7 l -2.82,2.2 c -11.48,8.95 -27.62,8.78 -38.91,-0.4 l -2.24,-1.82 c -1.51,-1.24 -0.64,-3.68 1.31,-3.68 z"
       style="clip-rule:evenodd;fill:#00356b;fill-opacity:1;fill-rule:evenodd"
       id="path20"
       inkscape:connector-curvature="0" />
  </g>
</svg>
