<?xml version="1.0" encoding="UTF-8" standalone="no"?>
<!-- Created with Inkscape (http://www.inkscape.org/) -->

<svg
   xmlns:dc="http://purl.org/dc/elements/1.1/"
   xmlns:cc="http://creativecommons.org/ns#"
   xmlns:rdf="http://www.w3.org/1999/02/22-rdf-syntax-ns#"
   xmlns:svg="http://www.w3.org/2000/svg"
   xmlns="http://www.w3.org/2000/svg"
   xmlns:sodipodi="http://sodipodi.sourceforge.net/DTD/sodipodi-0.dtd"
   xmlns:inkscape="http://www.inkscape.org/namespaces/inkscape"
   width="511.98044"
   height="512.01038"
   viewBox="0 0 511.98045 512.01034"
   id="svg4149"
   version="1.1"
   inkscape:version="0.91 r13725"
   sodipodi:docname="icon-signal.svg">
  <defs
     id="defs4151">
    <clipPath
       clipPathUnits="userSpaceOnUse"
       id="clipPath6910">
      <path
         inkscape:connector-curvature="0"
         id="path6912"
         d="M 99.88867,-2.3837657e-4 A 95.889392,95.889392 0 0 0 4,95.888436 95.889392,95.889392 0 0 0 99.88867,191.77906 95.889392,95.889392 0 0 0 142.59375,181.70093 l 0.12695,0.0137 40.79297,15.83204 c 3.25479,1.26313 7.53628,3.04697 10.45508,0.27343 2.83326,-2.69222 2.16811,-5.42213 1.1875,-9.41211 l -11.34766,-46.16797 a 95.889392,95.889392 0 0 1 -0.002,0.002 l 0,-0.008 0.002,0.006 A 95.889392,95.889392 0 0 0 195.7793,95.888466 95.889392,95.889392 0 0 0 99.88867,-2.0837657e-4 Z"
         style="display:inline;opacity:1;fill:#00a000;fill-opacity:1;fill-rule:evenodd;stroke:none;stroke-width:4;stroke-linecap:round;stroke-linejoin:round;stroke-miterlimit:4;stroke-dasharray:none;stroke-dashoffset:0;stroke-opacity:1" />
    </clipPath>
    <clipPath
       clipPathUnits="userSpaceOnUse"
       id="clipPath6906">
      <path
         inkscape:connector-curvature="0"
         id="path6908"
         d="M 99.88867,-2.3837657e-4 A 95.889392,95.889392 0 0 0 4,95.888436 95.889392,95.889392 0 0 0 99.88867,191.77906 95.889392,95.889392 0 0 0 142.59375,181.70093 l 0.12695,0.0137 40.79297,15.83204 c 3.25479,1.26313 7.53628,3.04697 10.45508,0.27343 2.83326,-2.69222 2.16811,-5.42213 1.1875,-9.41211 l -11.34766,-46.16797 a 95.889392,95.889392 0 0 1 -0.002,0.002 l 0,-0.008 0.002,0.006 A 95.889392,95.889392 0 0 0 195.7793,95.888466 95.889392,95.889392 0 0 0 99.88867,-2.0837657e-4 Z"
         style="display:inline;opacity:1;fill:#00a000;fill-opacity:1;fill-rule:evenodd;stroke:none;stroke-width:4;stroke-linecap:round;stroke-linejoin:round;stroke-miterlimit:4;stroke-dasharray:none;stroke-dashoffset:0;stroke-opacity:1" />
    </clipPath>
    <clipPath
       clipPathUnits="userSpaceOnUse"
       id="clipPath6902">
      <path
         inkscape:connector-curvature="0"
         id="path6904"
         d="M 99.88867,-2.3837657e-4 A 95.889392,95.889392 0 0 0 4,95.888436 95.889392,95.889392 0 0 0 99.88867,191.77906 95.889392,95.889392 0 0 0 142.59375,181.70093 l 0.12695,0.0137 40.79297,15.83204 c 3.25479,1.26313 7.53628,3.04697 10.45508,0.27343 2.83326,-2.69222 2.16811,-5.42213 1.1875,-9.41211 l -11.34766,-46.16797 a 95.889392,95.889392 0 0 1 -0.002,0.002 l 0,-0.008 0.002,0.006 A 95.889392,95.889392 0 0 0 195.7793,95.888466 95.889392,95.889392 0 0 0 99.88867,-2.0837657e-4 Z"
         style="display:inline;opacity:1;fill:#00a000;fill-opacity:1;fill-rule:evenodd;stroke:none;stroke-width:4;stroke-linecap:round;stroke-linejoin:round;stroke-miterlimit:4;stroke-dasharray:none;stroke-dashoffset:0;stroke-opacity:1" />
    </clipPath>
    <clipPath
       clipPathUnits="userSpaceOnUse"
       id="clipPath6898">
      <path
         inkscape:connector-curvature="0"
         id="path6900"
         d="M 99.88867,-2.3837657e-4 A 95.889392,95.889392 0 0 0 4,95.888436 95.889392,95.889392 0 0 0 99.88867,191.77906 95.889392,95.889392 0 0 0 142.59375,181.70093 l 0.12695,0.0137 40.79297,15.83204 c 3.25479,1.26313 7.53628,3.04697 10.45508,0.27343 2.83326,-2.69222 2.16811,-5.42213 1.1875,-9.41211 l -11.34766,-46.16797 a 95.889392,95.889392 0 0 1 -0.002,0.002 l 0,-0.008 0.002,0.006 A 95.889392,95.889392 0 0 0 195.7793,95.888466 95.889392,95.889392 0 0 0 99.88867,-2.0837657e-4 Z"
         style="display:inline;opacity:1;fill:#00a000;fill-opacity:1;fill-rule:evenodd;stroke:none;stroke-width:4;stroke-linecap:round;stroke-linejoin:round;stroke-miterlimit:4;stroke-dasharray:none;stroke-dashoffset:0;stroke-opacity:1" />
    </clipPath>
    <clipPath
       clipPathUnits="userSpaceOnUse"
       id="clipPath6894">
      <path
         inkscape:connector-curvature="0"
         id="path6896"
         d="M 99.88867,-2.3837657e-4 A 95.889392,95.889392 0 0 0 4,95.888436 95.889392,95.889392 0 0 0 99.88867,191.77906 95.889392,95.889392 0 0 0 142.59375,181.70093 l 0.12695,0.0137 40.79297,15.83204 c 3.25479,1.26313 7.53628,3.04697 10.45508,0.27343 2.83326,-2.69222 2.16811,-5.42213 1.1875,-9.41211 l -11.34766,-46.16797 a 95.889392,95.889392 0 0 1 -0.002,0.002 l 0,-0.008 0.002,0.006 A 95.889392,95.889392 0 0 0 195.7793,95.888466 95.889392,95.889392 0 0 0 99.88867,-2.0837657e-4 Z"
         style="display:inline;opacity:1;fill:#00a000;fill-opacity:1;fill-rule:evenodd;stroke:none;stroke-width:4;stroke-linecap:round;stroke-linejoin:round;stroke-miterlimit:4;stroke-dasharray:none;stroke-dashoffset:0;stroke-opacity:1" />
    </clipPath>
    <clipPath
       clipPathUnits="userSpaceOnUse"
       id="clipPath6890">
      <path
         inkscape:connector-curvature="0"
         id="path6892"
         d="M 99.88867,-2.3837657e-4 A 95.889392,95.889392 0 0 0 4,95.888436 95.889392,95.889392 0 0 0 99.88867,191.77906 95.889392,95.889392 0 0 0 142.59375,181.70093 l 0.12695,0.0137 40.79297,15.83204 c 3.25479,1.26313 7.53628,3.04697 10.45508,0.27343 2.83326,-2.69222 2.16811,-5.42213 1.1875,-9.41211 l -11.34766,-46.16797 a 95.889392,95.889392 0 0 1 -0.002,0.002 l 0,-0.008 0.002,0.006 A 95.889392,95.889392 0 0 0 195.7793,95.888466 95.889392,95.889392 0 0 0 99.88867,-2.0837657e-4 Z"
         style="display:inline;opacity:1;fill:#00a000;fill-opacity:1;fill-rule:evenodd;stroke:none;stroke-width:4;stroke-linecap:round;stroke-linejoin:round;stroke-miterlimit:4;stroke-dasharray:none;stroke-dashoffset:0;stroke-opacity:1" />
    </clipPath>
    <clipPath
       clipPathUnits="userSpaceOnUse"
       id="clipPath6886">
      <path
         inkscape:connector-curvature="0"
         id="path6888"
         d="M 99.88867,-2.3837657e-4 A 95.889392,95.889392 0 0 0 4,95.888436 95.889392,95.889392 0 0 0 99.88867,191.77906 95.889392,95.889392 0 0 0 142.59375,181.70093 l 0.12695,0.0137 40.79297,15.83204 c 3.25479,1.26313 7.53628,3.04697 10.45508,0.27343 2.83326,-2.69222 2.16811,-5.42213 1.1875,-9.41211 l -11.34766,-46.16797 a 95.889392,95.889392 0 0 1 -0.002,0.002 l 0,-0.008 0.002,0.006 A 95.889392,95.889392 0 0 0 195.7793,95.888466 95.889392,95.889392 0 0 0 99.88867,-2.0837657e-4 Z"
         style="display:inline;opacity:1;fill:#00a000;fill-opacity:1;fill-rule:evenodd;stroke:none;stroke-width:4;stroke-linecap:round;stroke-linejoin:round;stroke-miterlimit:4;stroke-dasharray:none;stroke-dashoffset:0;stroke-opacity:1" />
    </clipPath>
    <clipPath
       clipPathUnits="userSpaceOnUse"
       id="clipPath6882">
      <path
         inkscape:connector-curvature="0"
         id="path6884"
         d="M 99.88867,-2.3837657e-4 A 95.889392,95.889392 0 0 0 4,95.888436 95.889392,95.889392 0 0 0 99.88867,191.77906 95.889392,95.889392 0 0 0 142.59375,181.70093 l 0.12695,0.0137 40.79297,15.83204 c 3.25479,1.26313 7.53628,3.04697 10.45508,0.27343 2.83326,-2.69222 2.16811,-5.42213 1.1875,-9.41211 l -11.34766,-46.16797 a 95.889392,95.889392 0 0 1 -0.002,0.002 l 0,-0.008 0.002,0.006 A 95.889392,95.889392 0 0 0 195.7793,95.888466 95.889392,95.889392 0 0 0 99.88867,-2.0837657e-4 Z"
         style="display:inline;opacity:1;fill:#00a000;fill-opacity:1;fill-rule:evenodd;stroke:none;stroke-width:4;stroke-linecap:round;stroke-linejoin:round;stroke-miterlimit:4;stroke-dasharray:none;stroke-dashoffset:0;stroke-opacity:1" />
    </clipPath>
    <clipPath
       clipPathUnits="userSpaceOnUse"
       id="clipPath6910-3">
      <path
         inkscape:connector-curvature="0"
         id="path6912-6"
         d="M 99.88867,-2.3837657e-4 A 95.889392,95.889392 0 0 0 4,95.888436 95.889392,95.889392 0 0 0 99.88867,191.77906 95.889392,95.889392 0 0 0 142.59375,181.70093 l 0.12695,0.0137 40.79297,15.83204 c 3.25479,1.26313 7.53628,3.04697 10.45508,0.27343 2.83326,-2.69222 2.16811,-5.42213 1.1875,-9.41211 l -11.34766,-46.16797 a 95.889392,95.889392 0 0 1 -0.002,0.002 l 0,-0.008 0.002,0.006 A 95.889392,95.889392 0 0 0 195.7793,95.888466 95.889392,95.889392 0 0 0 99.88867,-2.0837657e-4 Z"
         style="display:inline;opacity:1;fill:#00a000;fill-opacity:1;fill-rule:evenodd;stroke:none;stroke-width:4;stroke-linecap:round;stroke-linejoin:round;stroke-miterlimit:4;stroke-dasharray:none;stroke-dashoffset:0;stroke-opacity:1" />
    </clipPath>
    <clipPath
       clipPathUnits="userSpaceOnUse"
       id="clipPath6906-7">
      <path
         inkscape:connector-curvature="0"
         id="path6908-5"
         d="M 99.88867,-2.3837657e-4 A 95.889392,95.889392 0 0 0 4,95.888436 95.889392,95.889392 0 0 0 99.88867,191.77906 95.889392,95.889392 0 0 0 142.59375,181.70093 l 0.12695,0.0137 40.79297,15.83204 c 3.25479,1.26313 7.53628,3.04697 10.45508,0.27343 2.83326,-2.69222 2.16811,-5.42213 1.1875,-9.41211 l -11.34766,-46.16797 a 95.889392,95.889392 0 0 1 -0.002,0.002 l 0,-0.008 0.002,0.006 A 95.889392,95.889392 0 0 0 195.7793,95.888466 95.889392,95.889392 0 0 0 99.88867,-2.0837657e-4 Z"
         style="display:inline;opacity:1;fill:#00a000;fill-opacity:1;fill-rule:evenodd;stroke:none;stroke-width:4;stroke-linecap:round;stroke-linejoin:round;stroke-miterlimit:4;stroke-dasharray:none;stroke-dashoffset:0;stroke-opacity:1" />
    </clipPath>
    <clipPath
       clipPathUnits="userSpaceOnUse"
       id="clipPath6902-3">
      <path
         inkscape:connector-curvature="0"
         id="path6904-5"
         d="M 99.88867,-2.3837657e-4 A 95.889392,95.889392 0 0 0 4,95.888436 95.889392,95.889392 0 0 0 99.88867,191.77906 95.889392,95.889392 0 0 0 142.59375,181.70093 l 0.12695,0.0137 40.79297,15.83204 c 3.25479,1.26313 7.53628,3.04697 10.45508,0.27343 2.83326,-2.69222 2.16811,-5.42213 1.1875,-9.41211 l -11.34766,-46.16797 a 95.889392,95.889392 0 0 1 -0.002,0.002 l 0,-0.008 0.002,0.006 A 95.889392,95.889392 0 0 0 195.7793,95.888466 95.889392,95.889392 0 0 0 99.88867,-2.0837657e-4 Z"
         style="display:inline;opacity:1;fill:#00a000;fill-opacity:1;fill-rule:evenodd;stroke:none;stroke-width:4;stroke-linecap:round;stroke-linejoin:round;stroke-miterlimit:4;stroke-dasharray:none;stroke-dashoffset:0;stroke-opacity:1" />
    </clipPath>
    <clipPath
       clipPathUnits="userSpaceOnUse"
       id="clipPath6898-6">
      <path
         inkscape:connector-curvature="0"
         id="path6900-2"
         d="M 99.88867,-2.3837657e-4 A 95.889392,95.889392 0 0 0 4,95.888436 95.889392,95.889392 0 0 0 99.88867,191.77906 95.889392,95.889392 0 0 0 142.59375,181.70093 l 0.12695,0.0137 40.79297,15.83204 c 3.25479,1.26313 7.53628,3.04697 10.45508,0.27343 2.83326,-2.69222 2.16811,-5.42213 1.1875,-9.41211 l -11.34766,-46.16797 a 95.889392,95.889392 0 0 1 -0.002,0.002 l 0,-0.008 0.002,0.006 A 95.889392,95.889392 0 0 0 195.7793,95.888466 95.889392,95.889392 0 0 0 99.88867,-2.0837657e-4 Z"
         style="display:inline;opacity:1;fill:#00a000;fill-opacity:1;fill-rule:evenodd;stroke:none;stroke-width:4;stroke-linecap:round;stroke-linejoin:round;stroke-miterlimit:4;stroke-dasharray:none;stroke-dashoffset:0;stroke-opacity:1" />
    </clipPath>
    <clipPath
       clipPathUnits="userSpaceOnUse"
       id="clipPath6894-9">
      <path
         inkscape:connector-curvature="0"
         id="path6896-1"
         d="M 99.88867,-2.3837657e-4 A 95.889392,95.889392 0 0 0 4,95.888436 95.889392,95.889392 0 0 0 99.88867,191.77906 95.889392,95.889392 0 0 0 142.59375,181.70093 l 0.12695,0.0137 40.79297,15.83204 c 3.25479,1.26313 7.53628,3.04697 10.45508,0.27343 2.83326,-2.69222 2.16811,-5.42213 1.1875,-9.41211 l -11.34766,-46.16797 a 95.889392,95.889392 0 0 1 -0.002,0.002 l 0,-0.008 0.002,0.006 A 95.889392,95.889392 0 0 0 195.7793,95.888466 95.889392,95.889392 0 0 0 99.88867,-2.0837657e-4 Z"
         style="display:inline;opacity:1;fill:#00a000;fill-opacity:1;fill-rule:evenodd;stroke:none;stroke-width:4;stroke-linecap:round;stroke-linejoin:round;stroke-miterlimit:4;stroke-dasharray:none;stroke-dashoffset:0;stroke-opacity:1" />
    </clipPath>
    <clipPath
       clipPathUnits="userSpaceOnUse"
       id="clipPath6890-2">
      <path
         inkscape:connector-curvature="0"
         id="path6892-7"
         d="M 99.88867,-2.3837657e-4 A 95.889392,95.889392 0 0 0 4,95.888436 95.889392,95.889392 0 0 0 99.88867,191.77906 95.889392,95.889392 0 0 0 142.59375,181.70093 l 0.12695,0.0137 40.79297,15.83204 c 3.25479,1.26313 7.53628,3.04697 10.45508,0.27343 2.83326,-2.69222 2.16811,-5.42213 1.1875,-9.41211 l -11.34766,-46.16797 a 95.889392,95.889392 0 0 1 -0.002,0.002 l 0,-0.008 0.002,0.006 A 95.889392,95.889392 0 0 0 195.7793,95.888466 95.889392,95.889392 0 0 0 99.88867,-2.0837657e-4 Z"
         style="display:inline;opacity:1;fill:#00a000;fill-opacity:1;fill-rule:evenodd;stroke:none;stroke-width:4;stroke-linecap:round;stroke-linejoin:round;stroke-miterlimit:4;stroke-dasharray:none;stroke-dashoffset:0;stroke-opacity:1" />
    </clipPath>
    <clipPath
       clipPathUnits="userSpaceOnUse"
       id="clipPath6886-0">
      <path
         inkscape:connector-curvature="0"
         id="path6888-9"
         d="M 99.88867,-2.3837657e-4 A 95.889392,95.889392 0 0 0 4,95.888436 95.889392,95.889392 0 0 0 99.88867,191.77906 95.889392,95.889392 0 0 0 142.59375,181.70093 l 0.12695,0.0137 40.79297,15.83204 c 3.25479,1.26313 7.53628,3.04697 10.45508,0.27343 2.83326,-2.69222 2.16811,-5.42213 1.1875,-9.41211 l -11.34766,-46.16797 a 95.889392,95.889392 0 0 1 -0.002,0.002 l 0,-0.008 0.002,0.006 A 95.889392,95.889392 0 0 0 195.7793,95.888466 95.889392,95.889392 0 0 0 99.88867,-2.0837657e-4 Z"
         style="display:inline;opacity:1;fill:#00a000;fill-opacity:1;fill-rule:evenodd;stroke:none;stroke-width:4;stroke-linecap:round;stroke-linejoin:round;stroke-miterlimit:4;stroke-dasharray:none;stroke-dashoffset:0;stroke-opacity:1" />
    </clipPath>
    <clipPath
       clipPathUnits="userSpaceOnUse"
       id="clipPath6882-3">
      <path
         inkscape:connector-curvature="0"
         id="path6884-6"
         d="M 99.88867,-2.3837657e-4 A 95.889392,95.889392 0 0 0 4,95.888436 95.889392,95.889392 0 0 0 99.88867,191.77906 95.889392,95.889392 0 0 0 142.59375,181.70093 l 0.12695,0.0137 40.79297,15.83204 c 3.25479,1.26313 7.53628,3.04697 10.45508,0.27343 2.83326,-2.69222 2.16811,-5.42213 1.1875,-9.41211 l -11.34766,-46.16797 a 95.889392,95.889392 0 0 1 -0.002,0.002 l 0,-0.008 0.002,0.006 A 95.889392,95.889392 0 0 0 195.7793,95.888466 95.889392,95.889392 0 0 0 99.88867,-2.0837657e-4 Z"
         style="display:inline;opacity:1;fill:#00a000;fill-opacity:1;fill-rule:evenodd;stroke:none;stroke-width:4;stroke-linecap:round;stroke-linejoin:round;stroke-miterlimit:4;stroke-dasharray:none;stroke-dashoffset:0;stroke-opacity:1" />
    </clipPath>
    <clipPath
       clipPathUnits="userSpaceOnUse"
       id="clipPath304">
      <path
         d="m 36.9029,15.91929 c -0.28541,0 -0.57082,0.06958 -0.83114,0.20875 -0.54259,0.28781 -0.90014,0.83181 -0.94718,1.44856 l -1.37373,17.74641 c -5.82423,4.4374 -10.35314,10.16205 -13.46755,17.03163 -3.07363,6.76837 -4.6324,14.32428 -4.6324,22.44316 0,27.7219 24.38209,50.2789 54.35004,50.2789 29.96482,0 54.35006,-22.557 54.35006,-50.2789 0,-27.72502 -24.38524,-50.28204 -54.35006,-50.28204 -4.98368,0 -9.91718,0.62307 -14.68132,1.85972 L 37.7999,16.16283 c -0.27914,-0.1613 -0.5865,-0.24354 -0.897,-0.24354"
         id="path302"
         inkscape:connector-curvature="0"
         style="clip-rule:evenodd" />
    </clipPath>
    <clipPath
       clipPathUnits="userSpaceOnUse"
       id="clipPath308">
      <path
         d="m 0,0 138,0 0,139 -138,0 z"
         id="path306"
         inkscape:connector-curvature="0" />
    </clipPath>
    <clipPath
       clipPathUnits="userSpaceOnUse"
       id="clipPath260">
      <path
         d="m 59.28982,138.3643 0.46418,-3.5582 c 5.13736,0.68 10.46605,0.7876 15.63477,0.3163 l 0.32618,3.574 C 73.49441,138.8988 71.24564,139 68.99373,139 c -3.25241,0 -6.51423,-0.2119 -9.70391,-0.6357 z m 22.30268,-4.0927 c 5.16245,-0.9456 10.19005,-2.4796 14.95732,-4.5576 l 1.41763,3.2925 c -5.01504,2.1887 -10.30922,3.8017 -15.72886,4.7948 z m -44.31055,-2.5144 1.55878,-3.226 c 4.67318,2.2803 9.63491,4.0199 14.75032,5.1743 l -0.78723,3.5044 c -5.37887,-1.2177 -10.60091,-3.0521 -15.52187,-5.4527 z m 64.88505,-4.8138 c 4.5948,-2.5428 8.8634,-5.6171 12.6772,-9.1373 l 2.415,2.6473 c -4.0239,3.7099 -8.5277,6.9518 -13.3734,9.6307 z m -83.62795,-8.5648 2.53104,-2.5334 c 3.65386,3.6815 7.78446,6.9423 12.27573,9.6813 l -1.85359,3.0679 c -4.73278,-2.8908 -9.09232,-6.3256 -12.95318,-10.2158 z m 100.69925,-5.0383 c 3.5033,-3.9409 6.4734,-8.277 8.8257,-12.8916 l 3.174,1.6415 c -2.4871,4.8834 -5.6298,9.4758 -9.3401,13.6411 z M 5.410227,99.38605 8.662636,97.9027 c 2.129594,4.7189 4.895864,9.1879 8.214134,13.2806 l -2.76313,2.274 c -3.519,-4.3362 -6.448367,-9.0677 -8.703413,-14.07125 z M 130.6076,94.73042 c 1.8661,-4.88968 3.0674,-10.00391 3.566,-15.20354 l 3.5504,0.34475 c -0.5238,5.51907 -1.8003,10.95274 -3.7856,16.14921 z M 0.01254545,76.88279 3.575455,76.71516 c 0.247772,5.22493 1.194954,10.38977 2.81959,15.35535 L 3.004636,93.1933 C 1.2765,87.92093 0.2665909,82.43033 0.01254545,76.88279 Z M 132.1475,57.82698 l 3.4281,-1.00261 c 1.5399,5.32298 2.3585,10.84205 2.4244,16.4054 l -3.5692,0.04428 C 134.3681,68.0333 133.5997,62.84 132.1475,57.82698 Z M 0,70.28205 C 0.1881818,64.19367 0.8562273,58.83907 2.032364,53.92093 l 3.471954,0.83814 C 4.384636,59.44 3.751091,64.5574 3.569182,70.39591 Z m 122.3182,-31.91256 2.8353,-2.17284 c 3.3778,4.44372 6.1441,9.27647 8.2329,14.35591 l -3.2994,1.36316 c -1.9697,-4.78846 -4.5791,-9.34605 -7.7688,-13.54623 z M 3.942409,47.53842 C 5.934,42.09526 8.637545,37.3574 12.21614,33.07814 l 2.73491,2.30251 C 11.64218,39.34679 9.136227,43.72409 7.295182,48.77507 Z M 106.3165,23.52019 108.261,20.51237 c 4.6481,3.03312 8.8947,6.60391 12.6301,10.61749 l -2.6063,2.45116 C 114.747,29.78251 110.723,26.40149 106.3165,23.52019 Z m -89.47736,4.73469 c 1.16045,-1.06269 2.39931,-2.09693 3.69463,-3.08055 l 3.13637,-9.86159 3.39981,1.09749 -3.312,10.40242 c -0.1129,0.3574 -0.33559,0.67051 -0.63354,0.89507 -1.36746,1.02158 -2.67532,2.09693 -3.88596,3.20391 z m 69.48613,-13.52093 0.88446,-3.4759 c 5.34436,1.37265 10.50682,3.36204 15.35877,5.90493 l -1.6529,3.18493 C 96.30832,17.92521 91.40305,16.03702 86.32527,14.73395 Z M 53.80432,14.20893 42.47577,9.265488 43.89968,5.96986 54.648,10.6666 c 1.21691,-0.33525 2.20173,-0.58827 3.0705,-0.784367 l 0.79036,3.501207 c -0.95345,0.21823 -2.07,0.50289 -3.519,0.90772 -0.15681,0.04428 -0.31677,0.06642 -0.47672,0.06642 -0.2415,0 -0.483,-0.0506 -0.70882,-0.14865 z m 15.17059,-1.6573 c -1.83791,0 -3.22105,0.0095 -4.44109,0.05377 L 64.40209,9.015628 c 1.2765,-0.044279 2.69727,-0.053768 4.57282,-0.053768 3.95495,0 7.92245,0.319442 11.78959,0.942512 L 80.19368,13.45302 C 76.51473,12.85209 72.73855,12.55163 68.97491,12.55163 Z"
         id="path258"
         inkscape:connector-curvature="0"
         style="clip-rule:evenodd" />
    </clipPath>
    <clipPath
       clipPathUnits="userSpaceOnUse"
       id="clipPath264">
      <path
         d="m 0,0 138,0 0,139 -138,0 z"
         id="path262"
         inkscape:connector-curvature="0" />
    </clipPath>
    <clipPath
       clipPathUnits="userSpaceOnUse"
       id="clipPath268">
      <path
         d="m 0,5 138,0 0,134 -138,0 z"
         id="path266"
         inkscape:connector-curvature="0" />
    </clipPath>
    <clipPath
       clipPathUnits="userSpaceOnUse"
       id="clipPath272">
      <path
         d="M 138,139 138,5.969858 -5.70307e-6,5.969864 0,139 Z"
         id="path270"
         inkscape:connector-curvature="0"
         style="clip-rule:evenodd" />
    </clipPath>
    <clipPath
       clipPathUnits="userSpaceOnUse"
       id="clipPath286">
      <path
         d="M 138,139 138,5.969858 -5.70307e-6,5.969864 0,139 Z"
         id="path284"
         inkscape:connector-curvature="0"
         style="clip-rule:evenodd" />
    </clipPath>
    <clipPath
       clipPathUnits="userSpaceOnUse"
       id="clipPath216">
      <path
         d="m 25.67427,9.015628 2.47459,-7.767814 c 0.15369,-0.483907 0.50182,-0.8792559 0.966,-1.088 0.23209,-0.10753493 0.483,-0.15813958 0.73705,-0.15813958 0.23836,0 0.47986,0.05060465 0.70568,0.14865118 L 38.00332,3.398512 36.57941,6.687814 30.94964,4.230326 29.07723,10.10995 Z"
         id="path214"
         inkscape:connector-curvature="0"
         style="clip-rule:evenodd" />
    </clipPath>
    <clipPath
       clipPathUnits="userSpaceOnUse"
       id="clipPath220">
      <path
         d="m 0,0 138,0 0,139 -138,0 z"
         id="path218"
         inkscape:connector-curvature="0" />
    </clipPath>
    <clipPath
       clipPathUnits="userSpaceOnUse"
       id="clipPath224">
      <path
         d="m 25,0 13,0 0,11 -13,0 z"
         id="path222"
         inkscape:connector-curvature="0" />
    </clipPath>
    <clipPath
       clipPathUnits="userSpaceOnUse"
       id="clipPath228">
      <path
         d="m 38.00332,10.10995 0,-10.10827558 -12.32905,5.4e-7 0,10.10827504 z"
         id="path226"
         inkscape:connector-curvature="0"
         style="clip-rule:evenodd" />
    </clipPath>
    <clipPath
       clipPathUnits="userSpaceOnUse"
       id="clipPath242">
      <path
         d="m 38.00332,10.10995 0,-10.10827558 -12.32905,5.4e-7 0,10.10827504 z"
         id="path240"
         inkscape:connector-curvature="0"
         style="clip-rule:evenodd" />
    </clipPath>
  </defs>
  <sodipodi:namedview
     id="base"
     pagecolor="#ffffff"
     bordercolor="#666666"
     borderopacity="1.0"
     inkscape:pageopacity="0.0"
     inkscape:pageshadow="2"
     inkscape:zoom="1.1666382"
     inkscape:cx="57.010953"
     inkscape:cy="175.80597"
     inkscape:document-units="px"
     inkscape:current-layer="layer1"
     showgrid="false"
     fit-margin-top="0"
     fit-margin-left="0"
     fit-margin-right="0"
     fit-margin-bottom="0"
     units="px"
     inkscape:window-width="1920"
     inkscape:window-height="1102"
     inkscape:window-x="0"
     inkscape:window-y="25"
     inkscape:window-maximized="1" />
  <metadata
     id="metadata4154">
    <rdf:RDF>
      <cc:Work
         rdf:about="">
        <dc:format>image/svg+xml</dc:format>
        <dc:type
           rdf:resource="http://purl.org/dc/dcmitype/StillImage" />
        <dc:title></dc:title>
      </cc:Work>
    </rdf:RDF>
  </metadata>
  <g
     inkscape:label="Layer 1"
     inkscape:groupmode="layer"
     id="layer1"
     transform="translate(-482.67966,916.35353)">
    <g
       id="g342"
       clip-path="url(#clipPath216)"
       transform="matrix(3.6834976,0,0,-3.6834976,484.2388,-403.77182)"
       style="fill:#1a91eb;fill-opacity:1">
      <g
         id="g340"
         clip-path="url(#clipPath220)"
         style="fill:#1a91eb;fill-opacity:1">
        <g
           id="g312"
           style="fill:#1a91eb;fill-opacity:1" />
        <g
           id="g338"
           style="fill:#1a91eb;fill-opacity:1">
          <g
             id="g336"
             clip-path="url(#clipPath224)"
             style="fill:#1a91eb;fill-opacity:1">
            <g
               id="g314"
               style="fill:#1a91eb;fill-opacity:1" />
            <g
               id="g324"
               style="fill:#1a91eb;fill-opacity:1">
              <g
                 id="g322"
                 clip-path="url(#clipPath228)"
                 style="fill:#1a91eb;fill-opacity:1">
                <g
                   id="g320"
                   style="fill:#1a91eb;fill-opacity:1">
                  <g
                     id="g318"
                     style="fill:#1a91eb;fill-opacity:1">
                    <path
                       inkscape:connector-curvature="0"
                       id="path316"
                       style="fill:#1a91eb;fill-opacity:1;stroke:none"
                       d="m 25.67427,0.00167442 12.32905,0 0,10.10827958 -12.32905,0 z" />
                  </g>
                </g>
              </g>
            </g>
            <g
               id="g334"
               style="fill:#1a91eb;fill-opacity:1">
              <g
                 id="g332"
                 clip-path="url(#clipPath242)"
                 style="fill:#1a91eb;fill-opacity:1">
                <g
                   id="g330"
                   style="fill:#1a91eb;fill-opacity:1">
                  <g
                     id="g328"
                     style="fill:#1a91eb;fill-opacity:1">
                    <path
                       inkscape:connector-curvature="0"
                       id="path326"
                       style="fill:#1a91eb;fill-opacity:1;stroke:none"
                       d="m 25,0 14,0 0,11 -14,0 z" />
                  </g>
                </g>
              </g>
            </g>
          </g>
        </g>
      </g>
    </g>
    <g
       id="g378"
       clip-path="url(#clipPath260)"
       transform="matrix(3.6834976,0,0,-3.6834976,484.2388,-403.77182)"
       style="fill:#1a91eb;fill-opacity:1">
      <g
         id="g376"
         clip-path="url(#clipPath264)"
         style="fill:#1a91eb;fill-opacity:1">
        <g
           id="g348"
           style="fill:#1a91eb;fill-opacity:1" />
        <g
           id="g374"
           style="fill:#1a91eb;fill-opacity:1">
          <g
             id="g372"
             clip-path="url(#clipPath268)"
             style="fill:#1a91eb;fill-opacity:1">
            <g
               id="g350"
               style="fill:#1a91eb;fill-opacity:1" />
            <g
               id="g360"
               style="fill:#1a91eb;fill-opacity:1">
              <g
                 id="g358"
                 clip-path="url(#clipPath272)"
                 style="fill:#1a91eb;fill-opacity:1">
                <g
                   id="g356"
                   style="fill:#1a91eb;fill-opacity:1">
                  <g
                     id="g354"
                     style="fill:#1a91eb;fill-opacity:1">
                    <path
                       inkscape:connector-curvature="0"
                       id="path352"
                       style="fill:#1a91eb;fill-opacity:1;stroke:none"
                       d="m 0,5.969858 138,0 0,133.030102 -138,0 z" />
                  </g>
                </g>
              </g>
            </g>
            <g
               id="g370"
               style="fill:#1a91eb;fill-opacity:1">
              <g
                 id="g368"
                 clip-path="url(#clipPath286)"
                 style="fill:#1a91eb;fill-opacity:1">
                <g
                   id="g366"
                   style="fill:#1a91eb;fill-opacity:1">
                  <g
                     id="g364"
                     style="fill:#1a91eb;fill-opacity:1">
                    <path
                       inkscape:connector-curvature="0"
                       id="path362"
                       style="fill:#1a91eb;fill-opacity:1;stroke:none"
                       d="m 0,5 138,0 0,134 -138,0 z" />
                  </g>
                </g>
              </g>
            </g>
          </g>
        </g>
      </g>
    </g>
    <g
       id="g388"
       clip-path="url(#clipPath304)"
       transform="matrix(3.6834976,0,0,-3.6834976,484.2388,-403.77182)"
       style="fill:#b9def4;fill-opacity:1">
      <g
         id="g386"
         clip-path="url(#clipPath308)"
         style="fill:#b9def4;fill-opacity:1">
        <path
           inkscape:connector-curvature="0"
           id="path384"
           style="fill:#b9def4;fill-opacity:1;fill-rule:nonzero;stroke:none"
           d="m 10.6509,130.0767 118.7001,0 0,-119.15741 -118.7001,0 z" />
      </g>
    </g>
  </g>
</svg>
