<?xml version="1.0" encoding="UTF-8" standalone="no"?>
<!-- Created with Inkscape (http://www.inkscape.org/) -->

<svg
   xmlns:dc="http://purl.org/dc/elements/1.1/"
   xmlns:cc="http://creativecommons.org/ns#"
   xmlns:rdf="http://www.w3.org/1999/02/22-rdf-syntax-ns#"
   xmlns:svg="http://www.w3.org/2000/svg"
   xmlns="http://www.w3.org/2000/svg"
   xmlns:sodipodi="http://sodipodi.sourceforge.net/DTD/sodipodi-0.dtd"
   xmlns:inkscape="http://www.inkscape.org/namespaces/inkscape"
   width="511.99997"
   height="512.00006"
   viewBox="0 0 511.99998 512.00003"
   id="svg4733"
   version="1.1"
   inkscape:version="0.91 r13725"
   sodipodi:docname="icon-ceid.svg">
  <defs
     id="defs4735" />
  <sodipodi:namedview
     id="base"
     pagecolor="#ffffff"
     bordercolor="#666666"
     borderopacity="1.0"
     inkscape:pageopacity="0.0"
     inkscape:pageshadow="2"
     inkscape:zoom="0.35"
     inkscape:cx="624.8284"
     inkscape:cy="180.58027"
     inkscape:document-units="px"
     inkscape:current-layer="layer1"
     showgrid="false"
     fit-margin-top="0"
     fit-margin-left="0"
     fit-margin-right="0"
     fit-margin-bottom="0"
     units="px"
     inkscape:window-width="1920"
     inkscape:window-height="1107"
     inkscape:window-x="0"
     inkscape:window-y="25"
     inkscape:window-maximized="1" />
  <metadata
     id="metadata4738">
    <rdf:RDF>
      <cc:Work
         rdf:about="">
        <dc:format>image/svg+xml</dc:format>
        <dc:type
           rdf:resource="http://purl.org/dc/dcmitype/StillImage" />
        <dc:title></dc:title>
      </cc:Work>
    </rdf:RDF>
  </metadata>
  <g
     inkscape:label="Layer 1"
     inkscape:groupmode="layer"
     id="layer1"
     transform="translate(277.8788,321.759)">
    <path
       inkscape:connector-curvature="0"
       style="fill:#000000;fill-opacity:1;stroke:none"
       id="path8"
       d="m -30.87104,-320.28313 c -60.69333,9.92648 -108.05682,43.39289 -135.85096,96.71227 -11.62816,21.83825 -24.67439,56.72274 -21.27103,56.72274 1.13446,0 3.11975,-1.41807 3.97059,-2.83614 3.40337,-5.67227 23.82355,-16.73321 40.84037,-22.6891 20.7038,-6.80673 57.8572,-7.65757 78.561,-1.41806 39.4223,11.62816 66.64922,45.94541 69.76897,87.92024 0.85084,13.329843 1.70168,14.464303 11.91177,19.285733 57.57358,27.22692 117.13246,-9.92648 129.32785,-81.113513 11.62816,-65.51477 -36.58617,-132.16399 -107.77321,-148.89719 -18.7185,-4.53782 -53.03576,-6.23951 -69.48535,-3.68698 z"
       sodipodi:nodetypes="ccssccccccc" />
    <path
       inkscape:connector-curvature="0"
       style="fill:#000000;fill-opacity:1;stroke:none"
       id="path10"
       d="m 75.48409,-319.99952 c 0,0.85084 5.67228,3.97059 12.19539,6.80673 17.01683,7.94118 50.48324,42.25844 59.84249,61.82779 4.25421,8.79202 12.19539,19.28573 17.30044,23.25632 11.91177,9.07564 42.25844,46.79626 50.19962,62.1114 l 5.95589,11.91177 2.55252,-8.50841 c 4.53782,-16.16598 5.95589,-72.88872 2.26891,-86.50218 -5.95588,-22.40548 -42.82566,-50.19962 -82.24797,-62.67862 -17.30043,-5.38866 -68.06729,-11.62816 -68.06729,-8.2248 z"
       sodipodi:nodetypes="sccccccccs" />
    <path
       inkscape:connector-curvature="0"
       style="fill:#000000;fill-opacity:1;stroke:none"
       id="path12"
       d="m -203.8754,-233.78096 c -59.55887,28.64499 -67.50006,39.13869 -67.78367,89.62193 0,16.4496 1.41807,36.86978 3.68698,45.378193 3.97059,15.88237 24.10716,62.39502 26.9433,62.39502 1.13445,0 0.85084,-4.82144 0,-11.06094 -3.68698,-23.25632 7.65757,-62.111403 28.36137,-96.712273 2.26891,-3.97059 7.65757,-19.28573 11.62816,-34.03364 3.97059,-14.4643 12.479,-36.30255 18.43489,-47.93072 6.2395,-11.62816 10.77732,-21.55464 10.49371,-21.83825 -0.28362,-0.28361 -14.74791,5.95589 -31.76474,14.18068 z"
       sodipodi:nodetypes="cccsccccsc" />
    <path
       inkscape:connector-curvature="0"
       style="fill:#000000;fill-opacity:1;stroke:none"
       id="path14"
       d="m 162.83711,-192.08974 c 3.68698,48.49794 -26.09246,102.384543 -66.64921,120.819433 -26.94331,12.479 -58.14081,11.62816 -86.50218,-1.98529 -11.34455,-5.38866 -11.62816,-5.38866 -19.28573,0 -12.76262,9.07563 -28.64499,28.36136 -34.60087,41.97482 -4.53782,10.2101 -5.38866,17.01682 -4.53782,33.1828003 4.53782,69.4853597 81.39713,120.8194367 153.43501,102.1009267 32.89918,-8.508407 58.99164,-26.376067 83.38242,-56.722727 46.79626,-58.42443 53.03576,-140.6724 15.03153,-203.351023 -10.77732,-17.86767 -37.1534,-53.03576 -39.98953,-53.31938 -0.85084,0 -0.85084,7.94119 -0.28362,17.30044 z"
       sodipodi:nodetypes="ccccccccccc" />
    <path
       inkscape:connector-curvature="0"
       style="fill:#000000;fill-opacity:1;stroke:none"
       id="path16"
       d="m -131.55391,-180.17797 c -36.30255,10.49371 -65.23114,34.88449 -81.96435,69.76897 -9.35925,20.136573 -10.2101,23.823553 -11.06094,52.752153 -1.13445,28.07775 -0.28361,33.75003 6.52312,53.8866003 18.15128,54.4538297 62.67863,100.6828597 112.59464,117.4160667 21.55464,7.09034 55.58828,11.91178 73.17233,9.92648 25.24162,-2.55252 53.8866,-7.65757 53.8866,-9.35925 0,-0.85084 -5.95588,-4.25421 -13.61345,-7.09034 -18.4349,-7.65757 -51.05047,-40.840377 -61.26056,-62.111397 -23.82355,-50.7668597 -9.92648,-99.83202 37.72062,-133.01483 5.95589,-4.2542 6.52311,-6.2395 5.10504,-19.002113 -3.68697,-31.48112 -21.55464,-56.43913 -48.78155,-68.63452 -17.30044,-7.65757 -53.31937,-9.92648 -72.3215,-4.53782 z"
       sodipodi:nodetypes="ccccccscccccc" />
    <path
       inkscape:connector-curvature="0"
       style="fill:#000000;fill-opacity:1;stroke:none"
       id="path18"
       d="m 149.79088,101.45043 c -19.00211,13.04623 -39.98953,18.71851 -75.72485,20.98741 -18.71851,1.13446 -39.70592,3.9706 -46.79626,6.52312 -16.4496,5.38866 -62.1114,11.62816 -73.45595,9.92648 -4.82143,-0.56723 -8.79203,-0.56723 -8.79203,0.28361 0,3.11975 43.96013,33.18281 61.82779,41.97483 26.37607,13.32984 38.57146,12.76262 71.18704,-3.68698 30.34666,-15.03152 53.8866,-35.73532 71.18704,-62.1114 6.80672,-10.21009 11.62816,-19.002117 11.06093,-19.569337 -0.56723,-0.28362 -5.38866,2.268907 -10.49371,5.672267 z"
       sodipodi:nodetypes="ccccsccccc" />
  </g>
</svg>
