<?xml version="1.0" encoding="UTF-8" standalone="no"?>
<!-- Created with Inkscape (http://www.inkscape.org/) -->

<svg
   xmlns:dc="http://purl.org/dc/elements/1.1/"
   xmlns:cc="http://creativecommons.org/ns#"
   xmlns:rdf="http://www.w3.org/1999/02/22-rdf-syntax-ns#"
   xmlns:svg="http://www.w3.org/2000/svg"
   xmlns="http://www.w3.org/2000/svg"
   xmlns:sodipodi="http://sodipodi.sourceforge.net/DTD/sodipodi-0.dtd"
   xmlns:inkscape="http://www.inkscape.org/namespaces/inkscape"
   width="144.49777mm"
   height="144.49777mm"
   viewBox="0 0 511.99998 511.99998"
   id="svg4157"
   version="1.1"
   inkscape:version="0.91 r13725"
   sodipodi:docname="icon-eff.svg">
  <defs
     id="defs4159" />
  <sodipodi:namedview
     id="base"
     pagecolor="#ffffff"
     bordercolor="#666666"
     borderopacity="1.0"
     inkscape:pageopacity="0.0"
     inkscape:pageshadow="2"
     inkscape:zoom="0.5"
     inkscape:cx="255.99999"
     inkscape:cy="255.99999"
     inkscape:document-units="px"
     inkscape:current-layer="layer1"
     showgrid="false"
     fit-margin-top="0"
     fit-margin-left="0"
     fit-margin-right="0"
     fit-margin-bottom="0"
     inkscape:window-width="1920"
     inkscape:window-height="1107"
     inkscape:window-x="0"
     inkscape:window-y="25"
     inkscape:window-maximized="1" />
  <metadata
     id="metadata4162">
    <rdf:RDF>
      <cc:Work
         rdf:about="">
        <dc:format>image/svg+xml</dc:format>
        <dc:type
           rdf:resource="http://purl.org/dc/dcmitype/StillImage" />
        <dc:title></dc:title>
      </cc:Work>
    </rdf:RDF>
  </metadata>
  <g
     inkscape:label="Layer 1"
     inkscape:groupmode="layer"
     id="layer1"
     transform="translate(626.42907,593.20422)">
    <g
       transform="matrix(3.8787879,0,0,3.8787879,-882.54163,-4056.3754)"
       style="display:inline"
       id="layer6">
      <path
         inkscape:connector-curvature="0"
         d="m 195.25,961.61225 c 0,23.736 -19.264,42.99995 -43,42.99995 -23.736,0 -43,-19.26395 -43,-42.99995 0,-23.736 19.264,-43 43,-43 23.736,0 43,19.264 43,43 z"
         style="display:inline;fill:none;fill-opacity:1;fill-rule:nonzero;stroke:#ffffff;stroke-width:6;stroke-linecap:square;stroke-linejoin:miter;stroke-miterlimit:4;stroke-dasharray:none;stroke-dashoffset:0;stroke-opacity:1;marker-mid:none"
         id="path3165" />
      <path
         inkscape:connector-curvature="0"
         d="m 97.25,932.61201 44,0 0,12 -44,0 0,-12 z m 0,46 44,0 0,12 -44,0 0,-12 z m 0,-24 42,0 0,12 -42,0 0,-12 z m -28,-22 28,0 0,58 -28,0 0,-58 z"
         style="display:inline;fill:none;fill-opacity:1;fill-rule:nonzero;stroke:#ffffff;stroke-width:6;stroke-linecap:square;stroke-linejoin:miter;stroke-miterlimit:4;stroke-dasharray:none;stroke-dashoffset:0;stroke-opacity:1"
         id="rect2160" />
      <path
         inkscape:connector-curvature="0"
         d="m 195.25,961.61205 c 0,23.736 -19.264,42.99995 -43,42.99995 -23.736,0 -43,-19.26395 -43,-42.99995 0,-23.736 19.264,-43 43,-43 23.736,0 43,19.264 43,43 z"
         style="display:inline;fill:#cb1009;fill-opacity:1;fill-rule:nonzero;stroke:none;stroke-width:0.14825581;stroke-linecap:square;stroke-linejoin:miter;stroke-miterlimit:4;stroke-dasharray:0.14825581, 0.14825581;stroke-dashoffset:0;stroke-opacity:1;marker-mid:none"
         id="path3557" />
      <path
         inkscape:connector-curvature="0"
         d="m 97.25,932.61201 44,0 0,12 -44,0 0,-12 z m 0,46 44,0 0,12 -44,0 0,-12 z m 0,-24 42,0 0,12 -42,0 0,-12 z m -28,-22 28,0 0,58 -28,0 0,-58 z"
         style="display:inline;fill:#000000;fill-opacity:1;fill-rule:nonzero;stroke:none;stroke-width:1;stroke-linecap:square;stroke-linejoin:miter;stroke-miterlimit:4;stroke-dasharray:none;stroke-dashoffset:0;stroke-opacity:1"
         id="path3562" />
      <path
         inkscape:connector-curvature="0"
         d="m 153.25,934.61201 6,0 0,4 -6,0 0,-4 z m 0,10 4,0 0,4 -4,0 0,-4 z m -4,-10 4,0 0,24 -4,0 0,-24 z"
         style="display:inline;fill:#ffffff;fill-opacity:1;fill-rule:nonzero;stroke:none;stroke-width:4.18818903;stroke-linejoin:miter;stroke-miterlimit:4;stroke-dashoffset:0;stroke-opacity:1"
         id="rect3140" />
      <path
         inkscape:connector-curvature="0"
         d="m 153.25,966.61201 6,0 0,4 -6,0 0,-4 z m 0,10 4,0 0,4 -4,0 0,-4 z m -4,-10 4,0 0,24 -4,0 0,-24 z"
         style="display:inline;fill:#ffffff;fill-opacity:1;fill-rule:nonzero;stroke:none;stroke-width:4.18818903;stroke-linejoin:miter;stroke-miterlimit:4;stroke-dashoffset:0;stroke-opacity:1"
         id="rect3153" />
    </g>
  </g>
</svg>
