<?xml version="1.0" encoding="UTF-8" standalone="no"?>
<!-- Created with Inkscape (http://www.inkscape.org/) -->

<svg
   xmlns:dc="http://purl.org/dc/elements/1.1/"
   xmlns:cc="http://creativecommons.org/ns#"
   xmlns:rdf="http://www.w3.org/1999/02/22-rdf-syntax-ns#"
   xmlns:svg="http://www.w3.org/2000/svg"
   xmlns="http://www.w3.org/2000/svg"
   xmlns:xlink="http://www.w3.org/1999/xlink"
   xmlns:sodipodi="http://sodipodi.sourceforge.net/DTD/sodipodi-0.dtd"
   xmlns:inkscape="http://www.inkscape.org/namespaces/inkscape"
   width="144.49777mm"
   height="144.49777mm"
   viewBox="0 0 511.99998 511.99998"
   id="svg4157"
   version="1.1"
   inkscape:version="0.91 r13725"
   sodipodi:docname="icon-mozilla.svg">
  <defs
     id="defs4159">
    <mask
       id="mask-2-3-7"
       fill="white">
      <use
         xlink:href="#path-1"
         id="use35-6-5"
         x="0"
         y="0"
         width="100%"
         height="100%" />
    </mask>
  </defs>
  <sodipodi:namedview
     id="base"
     pagecolor="#ffffff"
     bordercolor="#666666"
     borderopacity="1.0"
     inkscape:pageopacity="0.0"
     inkscape:pageshadow="2"
     inkscape:zoom="0.35355339"
     inkscape:cx="957.47817"
     inkscape:cy="-342.89908"
     inkscape:document-units="px"
     inkscape:current-layer="layer1"
     showgrid="false"
     fit-margin-top="0"
     fit-margin-left="0"
     fit-margin-right="0"
     fit-margin-bottom="0"
     inkscape:window-width="1920"
     inkscape:window-height="1107"
     inkscape:window-x="0"
     inkscape:window-y="25"
     inkscape:window-maximized="1" />
  <metadata
     id="metadata4162">
    <rdf:RDF>
      <cc:Work
         rdf:about="">
        <dc:format>image/svg+xml</dc:format>
        <dc:type
           rdf:resource="http://purl.org/dc/dcmitype/StillImage" />
        <dc:title></dc:title>
      </cc:Work>
    </rdf:RDF>
  </metadata>
  <g
     inkscape:label="Layer 1"
     inkscape:groupmode="layer"
     id="layer1"
     transform="translate(1967.9224,2133.8782)">
    <path
       d="m -1844.2915,-2033.3446 c -35.1657,23.2813 -90.2899,71.4376 -116.637,99.5049 6.4932,0.9058 13.3608,-4.1676 20.6901,-5.1344 l 50.6691,-13.9008 c -21.0471,18.0771 -65.3277,49.9505 -78.1528,75.0521 15.817,-5.7005 49.0099,-24.8185 65.5106,-26.3863 -14.4103,13.2302 -44.4808,38.3274 -53.9048,54.3012 1.1366,0.54 0.3484,1.9379 0.5226,2.9134 12.394,-7.1203 42.5167,-25.7374 56.178,-26.996 -14.0619,15.1725 -39.9299,44.3894 -45.5957,63.9646 12.2112,-8.3309 42.9218,-25.2235 56.3697,-30.3492 -3.0615,7.7212 -9.8507,13.4566 -14.2666,21.1822 -6.0925,10.6825 -20.5159,22.8457 -21.0515,35.5402 10.713,-10.3428 23.9954,-19.4837 37.3257,-26.7738 -5.9444,12.8338 -16.8795,23.4467 -19.8626,38.7237 8.7402,-8.7969 25.315,-13.3739 36.5767,-17.4414 l -1.3587,1.3544 c -0.9755,0.8318 -13.657,10.1687 -22.3014,20.5856 7.6864,-0.4965 1.9553,-1.4546 11.7887,0.7838 l -0.1873,0.4965 c -0.6706,58.7649 111.054,80.2475 179.526,77.2688 14.4321,-27.954 6.6412,-73.1142 43.9321,-92.5283 25.1016,-13.3565 27.9409,-20.6509 56.9097,-15.203 15.6601,2.9352 49.9113,14.7718 66.3119,11.0353 15.303,-8.8535 22.7368,-12.7511 36.2849,-23.3857 13.1082,-19.9193 -104.4651,-84.4762 -9.424,-0.7447 22.8022,4.8818 28.69,4.1546 35.4444,-5.9923 3.018,-8.1872 10.2253,-29.9486 16.8056,-44.1281 l 0.4659,-7.6646 c -6.3886,-19.2225 -4.8382,-52.1063 -8.0652,-56.8444 -21.0864,-29.2344 -97.2882,-33.8114 -131.7615,-72.2737 5.8791,-19.0919 -6.454,-34.8261 -19.0178,-46.7628 -18.8654,-13.8791 -44.912,-7.4991 -64.9968,-1.7376 -22.8849,-4.7861 -44.0584,-13.0037 -66.338,-19.5099 -49.5455,-5.1824 -98.39,31.0503 -98.39,31.0503 l 0,0 z"
       id="path9"
       inkscape:connector-curvature="0" />
    <path
       d="m -1699.0472,-2017.0834 -16.4223,6.2623 c -1.9728,-3.9237 2.9439,-7.6515 4.9036,-11.3183 1.4023,-2.6827 5.4305,-4.1851 6.3799,-7.4251 -21.2388,-3.423 -41.3105,-13.8399 -63.9646,-10.2514 -24.2263,3.8236 -38.3317,13.0777 -52.2804,24.126 -7.0419,3.8541 -10.4344,9.3282 -17.2802,13.94 -8.3614,7.5296 -11.9978,22.5409 -14.0794,25.4021 12.1284,-5.252 24.3308,-4.4681 32.5702,-7.2422 -30.985,19.3662 -36.3981,57.1971 -27.8277,88.7527 l -0.5052,0.6924 c -10.4125,-6.2231 -13.4261,-17.7026 -16.3091,-27.745 -2.0511,6.5977 -2.3429,14.9808 -3.7408,22.3493 -3.3271,-3.105 -5.1562,-7.5514 -7.0114,-11.5143 -3.4795,33.3933 12.7947,60.5895 32.7531,86.9497 13.3608,17.6721 -12.7293,29.3693 -6.5845,51.5531 l 31.3813,-1.7593 c 4.0457,-1.5155 2.7871,-0.9712 2.7871,-0.9712 -7.8649,15.7342 -49.4933,27.6623 -57.4889,36.6551 2.2341,1.8509 38.8326,-9.4239 52.2195,-11.7016 l -39.39,22.2622 c 3.9151,1.2063 -0.1219,14.4191 8.4746,13.1649 54.471,16.1697 115.827,38.6104 125.386,15.1898 7.9738,-14.8893 19.7756,-40.1085 17.9509,-54.3925 l 8.4528,-12.8426 c -11.2792,2.8002 -22.6411,7.3641 -31.3639,16.6487 -2.6086,-5.4697 1.4894,-12.0325 3.5274,-17.2061 5.8487,-10.4953 17.5328,-16.0522 26.787,-22.0184 l -19.4403,-8.6052 c -9.7985,-16.8273 -28.4069,-30.6889 -28.9121,-50.4558 l 4.6032,1.5678 c 17.72,20.1239 42.913,36.4548 68.1409,37.6219 -17.1713,-1.472 71.7294,-11.9455 66.5035,-19.4751 9.4501,13.5916 38.0138,19.3009 58.8781,26.4386 9.5851,-3.4491 13.7702,-2.4649 20.9732,-8.958 -3.0702,-3.3315 -7.8171,-6.0533 -12.3854,-7.7822 -27.414,-7.5688 -92.1581,-20.8861 -106.1068,-47.8428 -2.6304,11.4838 8.0043,20.9557 19.8844,30.7498 l -25.5763,-3.5971 c -44.9903,-20.8251 -39.5554,-56.5439 -29.6698,-90.4946 l 3.4186,28.3416 8.8186,15.4512 c 16.7707,-30.3362 7.9912,-26.5649 -25.6851,-67.4747 l 25.3977,9.7027 c 11.5971,9.3282 30.6584,25.4543 47.5597,36.6551 45.5217,29.8092 68.0452,49.563 125.8171,53.613 l 17.8202,3.9543 c 12.6118,-33.0536 -11.8409,-63.5683 -4.4463,-17.3717 -9.4327,-11.4577 -18.652,-22.0618 -16.7315,-28.0411 -3.3097,-4.9951 13.6874,-17.4805 12.2416,-23.1637 -16.6792,-16.9579 -88.7918,-26.0596 -127.951,-64.9183 -1.1497,6.4975 18.1076,23.3161 21.4435,29.1037 -38.8369,0.3833 -61.7262,-11.5448 -65.8764,-24.1348 -0.8492,-2.0947 0.2047,-11.4228 4.3462,-14.4277 5.6047,-2.9265 11.0657,-7.3728 17.5066,-7.9695 -10.0859,-8.235 -22.8632,2.8002 -31.7994,7.7866 -6.9417,11.9193 3.8715,25.2061 5.2346,34.9001 -9.4719,-2.3909 -22.2578,-19.0657 -23.8256,-29.5349 -14.3973,1.5765 -27.61,-0.2831 -38.6758,-8.5965 9.768,-2.1426 19.8583,-5.7964 30.0749,-7.6429 26.7521,-5.8355 54.8629,-33.3366 81.885,-11.8453 l -12.5813,-15.9911 c -25.2192,-2.6565 -47.1504,9.0494 -70.2095,14.8763 l 0,0 z"
       id="path11"
       inkscape:connector-curvature="0"
       style="fill:#ff1a00" />
    <path
       d="m -1787.2903,-2004.9812 c -7.1813,8.3788 -14.3799,16.7663 -16.0565,28.0324 l 1.6069,1.8901 c 4.7991,-5.7746 11.989,-10.6129 18.6128,-13.9662 0,11.8715 7.6646,23.5121 17.8986,29.2344 l 1.7202,0.1219 c -2.1687,-12.5377 -0.7229,-27.8669 4.1807,-39.1853 7.8083,-6.5671 18.0771,-9.1714 24.6835,-16.0782 -16.5355,-3.8671 -32.2741,-0.5923 -46.4144,4.7904 l -6.2318,5.1605 0,0 z"
       id="path13"
       inkscape:connector-curvature="0" />
    <path
       d="m -1621.2602,-1970.0898 c -6.798,-9.3935 -16.4484,-16.9318 -28.7161,-15.8605 0.1263,11.5927 15.9301,18.3515 28.7161,15.8605 z"
       id="path15"
       inkscape:connector-curvature="0"
       style="fill:#ffffff" />
    <path
       d="m -1719.3541,-1968.5917 c -10.6477,0.8143 -20.6247,2.7087 -30.6627,5.3304 4.4289,4.0805 10.0249,5.4523 14.223,9.2715 -13.1387,4.9515 -26.8958,8.1045 -38.3796,18.2296 l 2.3778,1.4153 c 21.2431,-4.4202 46.3577,-4.0457 68.5111,0.6968 l 1.2803,-0.9232 -12.8382,-23.3466 19.7407,-4.2721 c -10.4735,-9.7942 -22.4538,-19.4228 -36.2414,-23.6123 2.1078,5.6962 7.9085,11.3924 11.989,17.2106 l 0,0 0,0 z"
       id="path17"
       inkscape:connector-curvature="0" />
    <path
       d="m -1642.229,-1945.1886 c 10.4779,1.938 22.0532,2.1906 32.0389,0.3223 -16.4919,-8.4136 -37.5609,-6.7588 -50.6865,-21.5306 2.4823,7.7517 7.8562,20.2459 18.6476,21.2083 z"
       id="path19"
       inkscape:connector-curvature="0" />
    <path
       d="m -1798.9919,-1885.7922 c 4.1066,13.1648 -9.7114,29.2082 1.3587,41.3061 9.4283,10.983 20.947,20.0935 32.0259,28.15 l -0.9799,-4.1067 c -9.8682,-11.5274 -18.9394,-24.2523 -23.499,-37.9572 11.5666,4.0414 23.7908,9.6505 36.9992,11.5231 -14.8763,-22.2274 -42.1467,-43.4793 -31.8735,-73.9025 0.5618,-5.0255 7.2074,-8.8883 5.5351,-13.5568 -15.547,11.8758 -22.0532,29.4129 -19.5665,48.544 l 0,0 z"
       id="path21"
       inkscape:connector-curvature="0" />
    <path
       d="m -1594.9872,-1868.6253 c -1.4545,2.5651 -0.9275,6.3146 -1.3761,9.4676 3.2139,-1.6505 5.5046,-5.2215 8.7098,-6.6107 -0.9276,-1.9075 -5.0604,-1.9162 -7.3337,-2.8569 z"
       id="path23"
       inkscape:connector-curvature="0"
       style="fill:#ffffff" />
    <path
       d="m -1576.1479,-1848.9673 6.6107,-6.4757 c -1.4632,-1.1628 -3.4186,-2.8786 -6.0751,-2.2558 l -0.5356,8.7315 z"
       id="path25"
       inkscape:connector-curvature="0"
       style="fill:#ffffff" />
    <path
       d="m -1560.5661,-1841.9864 c 1.546,0.1132 5.1126,-7.1551 6.6673,-7.0462 l -5.2389,-3.0963 c -1.8073,-0.1133 -0.8231,8.8622 -1.4284,10.1425 z"
       id="path27"
       inkscape:connector-curvature="0"
       style="fill:#ffffff" />
    <path
       d="m -1544.4704,-1838.6897 -1.6767,4.1371 c 3.6407,-0.2918 5.5046,-7.3336 7.6908,-9.3108 -6.0577,-1.215 -6.2885,-2.8872 -6.0141,5.1737 z"
       id="path29"
       inkscape:connector-curvature="0"
       style="fill:#ffffff" />
    <path
       d="m -1527.2033,-1829.1525 6.5236,-11.1878 -6.0751,-1.3935 -0.4485,12.5813 z"
       id="path31"
       inkscape:connector-curvature="0"
       style="fill:#ffffff" />
    <path
       d="m -1510.5502,-1831.0861 7.4686,-5.7136 c -7.5209,-2.9526 -7.9477,-4.0544 -7.4686,5.7136 z"
       id="path33"
       inkscape:connector-curvature="0"
       style="fill:#ffffff" />
    <path
       d="m -1492.534,-1835.6152 c 1.1061,3.2575 0.087,7.1725 -0.135,10.6085 1.7593,-3.3358 5.8007,-5.718 6.2928,-9.6722 -1.7202,-1.4458 -4.0936,-0.7969 -6.1578,-0.9363 l 0,0 z"
       id="path35"
       inkscape:connector-curvature="0"
       style="fill:#ffffff" />
    <path
       d="m -1716.9807,-1710.7562 c 2.3822,4.4899 2.491,9.9509 4.8732,14.4365 5.6395,-12.1632 4.995,-26.7739 -2.3212,-37.709 -12.7293,-5.6091 -25.0188,-11.4316 -35.9888,-20.3417 4.5596,15.5513 19.4707,32.6922 33.4368,43.6142 l 0,0 z"
       id="path37"
       inkscape:connector-curvature="0" />
    <path
       d="m -1638.6449,-1968.7659 c -4.1502,-1.08 -6.5759,-5.7354 -5.4436,-10.4213 1.1671,-4.6989 5.4523,-7.621 9.6112,-6.541 4.1589,1.0669 6.5846,5.7397 5.4436,10.4212 -1.1584,4.6815 -5.461,7.6124 -9.6112,6.5411 z"
       id="path71"
       inkscape:connector-curvature="0" />
    <path
       d="m -1721.5228,-1679.6623 12.3461,-10.0598 c -12.0108,-7.7996 -32.3394,-21.7918 -43.3311,-32.1695 8.6357,17.9639 8.897,37.8352 30.985,42.2293 z"
       id="path75"
       inkscape:connector-curvature="0" />
    <path
       d="m -1897.8827,-1759.9621 c 50.3076,66.0855 118.7229,92.2801 202.1191,85.1033 l -7.0942,-15.425 c -74.1681,2.7479 -135.916,-15.6428 -178.006,-76.5938 l -17.0189,6.9155 z"
       id="path2225"
       inkscape:connector-curvature="0" />
  </g>
</svg>
